G04 #@! TF.GenerationSoftware,KiCad,Pcbnew,5.0.0-rc2-be01b52~65~ubuntu16.04.1*
G04 #@! TF.CreationDate,2018-06-25T12:20:31+02:00*
G04 #@! TF.ProjectId,Firefly,46697265666C792E6B696361645F7063,rev?*
G04 #@! TF.SameCoordinates,Original*
G04 #@! TF.FileFunction,Legend,Bot*
G04 #@! TF.FilePolarity,Positive*
%FSLAX46Y46*%
G04 Gerber Fmt 4.6, Leading zero omitted, Abs format (unit mm)*
G04 Created by KiCad (PCBNEW 5.0.0-rc2-be01b52~65~ubuntu16.04.1) date Mon Jun 25 12:20:31 2018*
%MOMM*%
%LPD*%
G01*
G04 APERTURE LIST*
%ADD10C,0.450000*%
%ADD11C,0.350000*%
%ADD12C,3.203200*%
%ADD13C,2.003200*%
%ADD14R,1.800000X1.800000*%
%ADD15R,1.524000X1.524000*%
%ADD16C,1.727200*%
G04 APERTURE END LIST*
D10*
X189285714Y-127985714D02*
X190285714Y-127985714D01*
X190285714Y-129557142D02*
X190285714Y-126557142D01*
X188857142Y-126557142D01*
X187714285Y-129557142D02*
X187714285Y-127557142D01*
X187714285Y-126557142D02*
X187857142Y-126700000D01*
X187714285Y-126842857D01*
X187571428Y-126700000D01*
X187714285Y-126557142D01*
X187714285Y-126842857D01*
X186285714Y-129557142D02*
X186285714Y-127557142D01*
X186285714Y-128128571D02*
X186142857Y-127842857D01*
X186000000Y-127700000D01*
X185714285Y-127557142D01*
X185428571Y-127557142D01*
X183285714Y-129414285D02*
X183571428Y-129557142D01*
X184142857Y-129557142D01*
X184428571Y-129414285D01*
X184571428Y-129128571D01*
X184571428Y-127985714D01*
X184428571Y-127700000D01*
X184142857Y-127557142D01*
X183571428Y-127557142D01*
X183285714Y-127700000D01*
X183142857Y-127985714D01*
X183142857Y-128271428D01*
X184571428Y-128557142D01*
X182285714Y-127557142D02*
X181142857Y-127557142D01*
X181857142Y-129557142D02*
X181857142Y-126985714D01*
X181714285Y-126700000D01*
X181428571Y-126557142D01*
X181142857Y-126557142D01*
X179714285Y-129557142D02*
X180000000Y-129414285D01*
X180142857Y-129128571D01*
X180142857Y-126557142D01*
X178857142Y-127557142D02*
X178142857Y-129557142D01*
X177428571Y-127557142D02*
X178142857Y-129557142D01*
X178428571Y-130271428D01*
X178571428Y-130414285D01*
X178857142Y-130557142D01*
D11*
X197050000Y-132978571D02*
X197050000Y-131478571D01*
X197050000Y-132050000D02*
X196907142Y-131978571D01*
X196621428Y-131978571D01*
X196478571Y-132050000D01*
X196407142Y-132121428D01*
X196335714Y-132264285D01*
X196335714Y-132692857D01*
X196407142Y-132835714D01*
X196478571Y-132907142D01*
X196621428Y-132978571D01*
X196907142Y-132978571D01*
X197050000Y-132907142D01*
X195835714Y-131978571D02*
X195478571Y-132978571D01*
X195121428Y-131978571D02*
X195478571Y-132978571D01*
X195621428Y-133335714D01*
X195692857Y-133407142D01*
X195835714Y-133478571D01*
X193621428Y-131478571D02*
X192764285Y-131478571D01*
X193192857Y-132978571D02*
X193192857Y-131478571D01*
X191621428Y-131978571D02*
X191621428Y-132978571D01*
X192264285Y-131978571D02*
X192264285Y-132764285D01*
X192192857Y-132907142D01*
X192050000Y-132978571D01*
X191835714Y-132978571D01*
X191692857Y-132907142D01*
X191621428Y-132835714D01*
X191121428Y-131978571D02*
X190550000Y-131978571D01*
X190907142Y-131478571D02*
X190907142Y-132764285D01*
X190835714Y-132907142D01*
X190692857Y-132978571D01*
X190550000Y-132978571D01*
X189835714Y-132978571D02*
X189978571Y-132907142D01*
X190050000Y-132835714D01*
X190121428Y-132692857D01*
X190121428Y-132264285D01*
X190050000Y-132121428D01*
X189978571Y-132050000D01*
X189835714Y-131978571D01*
X189621428Y-131978571D01*
X189478571Y-132050000D01*
X189407142Y-132121428D01*
X189335714Y-132264285D01*
X189335714Y-132692857D01*
X189407142Y-132835714D01*
X189478571Y-132907142D01*
X189621428Y-132978571D01*
X189835714Y-132978571D01*
X188692857Y-132192857D02*
X188192857Y-132192857D01*
X187978571Y-132978571D02*
X188692857Y-132978571D01*
X188692857Y-131478571D01*
X187978571Y-131478571D01*
X187121428Y-132978571D02*
X187264285Y-132907142D01*
X187335714Y-132764285D01*
X187335714Y-131478571D01*
X185978571Y-132907142D02*
X186121428Y-132978571D01*
X186407142Y-132978571D01*
X186550000Y-132907142D01*
X186621428Y-132764285D01*
X186621428Y-132192857D01*
X186550000Y-132050000D01*
X186407142Y-131978571D01*
X186121428Y-131978571D01*
X185978571Y-132050000D01*
X185907142Y-132192857D01*
X185907142Y-132335714D01*
X186621428Y-132478571D01*
X184621428Y-132907142D02*
X184764285Y-132978571D01*
X185050000Y-132978571D01*
X185192857Y-132907142D01*
X185264285Y-132835714D01*
X185335714Y-132692857D01*
X185335714Y-132264285D01*
X185264285Y-132121428D01*
X185192857Y-132050000D01*
X185050000Y-131978571D01*
X184764285Y-131978571D01*
X184621428Y-132050000D01*
X184192857Y-131978571D02*
X183621428Y-131978571D01*
X183978571Y-131478571D02*
X183978571Y-132764285D01*
X183907142Y-132907142D01*
X183764285Y-132978571D01*
X183621428Y-132978571D01*
X183121428Y-132978571D02*
X183121428Y-131978571D01*
X183121428Y-132264285D02*
X183050000Y-132121428D01*
X182978571Y-132050000D01*
X182835714Y-131978571D01*
X182692857Y-131978571D01*
X181978571Y-132978571D02*
X182121428Y-132907142D01*
X182192857Y-132835714D01*
X182264285Y-132692857D01*
X182264285Y-132264285D01*
X182192857Y-132121428D01*
X182121428Y-132050000D01*
X181978571Y-131978571D01*
X181764285Y-131978571D01*
X181621428Y-132050000D01*
X181550000Y-132121428D01*
X181478571Y-132264285D01*
X181478571Y-132692857D01*
X181550000Y-132835714D01*
X181621428Y-132907142D01*
X181764285Y-132978571D01*
X181978571Y-132978571D01*
%LPC*%
D12*
G04 #@! TO.C,REF\002A\002A*
X164400000Y-124600000D03*
G04 #@! TD*
G04 #@! TO.C,REF\002A\002A*
X112000000Y-139000000D03*
G04 #@! TD*
G04 #@! TO.C,REF\002A\002A*
X189200000Y-107300000D03*
G04 #@! TD*
D13*
G04 #@! TO.C,MD1*
X139840000Y-140400000D03*
X142380000Y-140400000D03*
X144920000Y-140400000D03*
X147460000Y-140400000D03*
D14*
X150000000Y-140400000D03*
G04 #@! TD*
D13*
G04 #@! TO.C,MD2*
X162780000Y-116500000D03*
X160240000Y-116500000D03*
X157700000Y-116500000D03*
X155160000Y-116500000D03*
X152620000Y-116500000D03*
X150080000Y-116500000D03*
X147540000Y-116500000D03*
D14*
X145000000Y-116500000D03*
G04 #@! TD*
D15*
G04 #@! TO.C,U1*
X171000000Y-120000000D03*
D16*
X173540000Y-120000000D03*
X176080000Y-120000000D03*
X178620000Y-120000000D03*
G04 #@! TD*
D14*
G04 #@! TO.C,U2*
X126000000Y-102000000D03*
D13*
X123460000Y-102000000D03*
X120920000Y-102000000D03*
X118380000Y-102000000D03*
X115840000Y-102000000D03*
X113300000Y-102000000D03*
X110760000Y-102000000D03*
X108220000Y-102000000D03*
X126000000Y-124860000D03*
X123460000Y-124860000D03*
X120920000Y-124860000D03*
X118380000Y-124860000D03*
X115840000Y-124860000D03*
X113300000Y-124860000D03*
X110760000Y-124860000D03*
X108220000Y-124860000D03*
G04 #@! TD*
D12*
G04 #@! TO.C,REF\002A\002A*
X192000000Y-139000000D03*
G04 #@! TD*
M02*
