G04 #@! TF.GenerationSoftware,KiCad,Pcbnew,5.0.0-rc2-be01b52~65~ubuntu16.04.1*
G04 #@! TF.CreationDate,2018-06-25T12:20:31+02:00*
G04 #@! TF.ProjectId,Firefly,46697265666C792E6B696361645F7063,rev?*
G04 #@! TF.SameCoordinates,Original*
G04 #@! TF.FileFunction,Copper,L1,Top,Signal*
G04 #@! TF.FilePolarity,Positive*
%FSLAX46Y46*%
G04 Gerber Fmt 4.6, Leading zero omitted, Abs format (unit mm)*
G04 Created by KiCad (PCBNEW 5.0.0-rc2-be01b52~65~ubuntu16.04.1) date Mon Jun 25 12:20:31 2018*
%MOMM*%
%LPD*%
G01*
G04 APERTURE LIST*
G04 #@! TA.AperFunction,SMDPad,CuDef*
%ADD10R,1.500000X1.000000*%
G04 #@! TD*
G04 #@! TA.AperFunction,SMDPad,CuDef*
%ADD11R,1.000000X0.670000*%
G04 #@! TD*
G04 #@! TA.AperFunction,SMDPad,CuDef*
%ADD12R,0.670000X1.000000*%
G04 #@! TD*
G04 #@! TA.AperFunction,ComponentPad*
%ADD13C,1.800000*%
G04 #@! TD*
G04 #@! TA.AperFunction,ComponentPad*
%ADD14R,1.800000X1.800000*%
G04 #@! TD*
G04 #@! TA.AperFunction,ComponentPad*
%ADD15R,1.524000X1.524000*%
G04 #@! TD*
G04 #@! TA.AperFunction,ComponentPad*
%ADD16C,1.524000*%
G04 #@! TD*
G04 #@! TA.AperFunction,Conductor*
%ADD17C,0.100000*%
G04 #@! TD*
G04 #@! TA.AperFunction,SMDPad,CuDef*
%ADD18C,1.000000*%
G04 #@! TD*
G04 #@! TA.AperFunction,SMDPad,CuDef*
%ADD19R,0.500000X1.500000*%
G04 #@! TD*
G04 #@! TA.AperFunction,SMDPad,CuDef*
%ADD20R,1.000000X1.500000*%
G04 #@! TD*
G04 #@! TA.AperFunction,ViaPad*
%ADD21C,0.863600*%
G04 #@! TD*
G04 #@! TA.AperFunction,Conductor*
%ADD22C,0.812800*%
G04 #@! TD*
G04 #@! TA.AperFunction,Conductor*
%ADD23C,0.508000*%
G04 #@! TD*
G04 #@! TA.AperFunction,Conductor*
%ADD24C,0.609600*%
G04 #@! TD*
G04 #@! TA.AperFunction,Conductor*
%ADD25C,0.400000*%
G04 #@! TD*
G04 APERTURE END LIST*
D10*
G04 #@! TO.P,D3,3*
G04 #@! TO.N,GND*
X122950000Y-130700000D03*
G04 #@! TO.P,D3,4*
G04 #@! TO.N,Net-(D2-Pad2)*
X122950000Y-133900000D03*
G04 #@! TO.P,D3,2*
G04 #@! TO.N,Net-(D3-Pad2)*
X127850000Y-130700000D03*
G04 #@! TO.P,D3,1*
G04 #@! TO.N,Net-(C10-Pad1)*
X127850000Y-133900000D03*
G04 #@! TD*
D11*
G04 #@! TO.P,C1,1*
G04 #@! TO.N,+3V3*
X169000000Y-120000000D03*
G04 #@! TO.P,C1,2*
G04 #@! TO.N,GND*
X169000000Y-121750000D03*
G04 #@! TD*
D12*
G04 #@! TO.P,C2,1*
G04 #@! TO.N,Net-(C10-Pad1)*
X108075000Y-136300000D03*
G04 #@! TO.P,C2,2*
G04 #@! TO.N,GND*
X106325000Y-136300000D03*
G04 #@! TD*
D11*
G04 #@! TO.P,C3,1*
G04 #@! TO.N,Net-(C3-Pad1)*
X140200000Y-111050000D03*
G04 #@! TO.P,C3,2*
G04 #@! TO.N,GND*
X140200000Y-112800000D03*
G04 #@! TD*
D12*
G04 #@! TO.P,C4,2*
G04 #@! TO.N,GND*
X116725000Y-136300000D03*
G04 #@! TO.P,C4,1*
G04 #@! TO.N,Net-(C10-Pad1)*
X118475000Y-136300000D03*
G04 #@! TD*
G04 #@! TO.P,C5,1*
G04 #@! TO.N,Net-(C10-Pad1)*
X128475000Y-136200000D03*
G04 #@! TO.P,C5,2*
G04 #@! TO.N,GND*
X126725000Y-136200000D03*
G04 #@! TD*
G04 #@! TO.P,C6,1*
G04 #@! TO.N,Net-(C10-Pad1)*
X138475000Y-136300000D03*
G04 #@! TO.P,C6,2*
G04 #@! TO.N,GND*
X136725000Y-136300000D03*
G04 #@! TD*
G04 #@! TO.P,C7,2*
G04 #@! TO.N,GND*
X146725000Y-136300000D03*
G04 #@! TO.P,C7,1*
G04 #@! TO.N,Net-(C10-Pad1)*
X148475000Y-136300000D03*
G04 #@! TD*
G04 #@! TO.P,C8,2*
G04 #@! TO.N,GND*
X156725000Y-136300000D03*
G04 #@! TO.P,C8,1*
G04 #@! TO.N,Net-(C10-Pad1)*
X158475000Y-136300000D03*
G04 #@! TD*
G04 #@! TO.P,C9,1*
G04 #@! TO.N,Net-(C10-Pad1)*
X168475000Y-136300000D03*
G04 #@! TO.P,C9,2*
G04 #@! TO.N,GND*
X166725000Y-136300000D03*
G04 #@! TD*
G04 #@! TO.P,C10,2*
G04 #@! TO.N,GND*
X176725000Y-136300000D03*
G04 #@! TO.P,C10,1*
G04 #@! TO.N,Net-(C10-Pad1)*
X178475000Y-136300000D03*
G04 #@! TD*
G04 #@! TO.P,C11,2*
G04 #@! TO.N,GND*
X186650000Y-136300000D03*
G04 #@! TO.P,C11,1*
G04 #@! TO.N,Net-(C10-Pad1)*
X188400000Y-136300000D03*
G04 #@! TD*
G04 #@! TO.P,C12,2*
G04 #@! TO.N,GND*
X196725000Y-136300000D03*
G04 #@! TO.P,C12,1*
G04 #@! TO.N,Net-(C10-Pad1)*
X198475000Y-136300000D03*
G04 #@! TD*
D10*
G04 #@! TO.P,D1,3*
G04 #@! TO.N,GND*
X102950000Y-130700000D03*
G04 #@! TO.P,D1,4*
G04 #@! TO.N,/D4*
X102950000Y-133900000D03*
G04 #@! TO.P,D1,2*
G04 #@! TO.N,Net-(D1-Pad2)*
X107850000Y-130700000D03*
G04 #@! TO.P,D1,1*
G04 #@! TO.N,Net-(C10-Pad1)*
X107850000Y-133900000D03*
G04 #@! TD*
G04 #@! TO.P,D2,1*
G04 #@! TO.N,Net-(C10-Pad1)*
X117850000Y-133900000D03*
G04 #@! TO.P,D2,2*
G04 #@! TO.N,Net-(D2-Pad2)*
X117850000Y-130700000D03*
G04 #@! TO.P,D2,4*
G04 #@! TO.N,Net-(D1-Pad2)*
X112950000Y-133900000D03*
G04 #@! TO.P,D2,3*
G04 #@! TO.N,GND*
X112950000Y-130700000D03*
G04 #@! TD*
G04 #@! TO.P,D4,1*
G04 #@! TO.N,Net-(C10-Pad1)*
X137850000Y-133900000D03*
G04 #@! TO.P,D4,2*
G04 #@! TO.N,Net-(D4-Pad2)*
X137850000Y-130700000D03*
G04 #@! TO.P,D4,4*
G04 #@! TO.N,Net-(D3-Pad2)*
X132950000Y-133900000D03*
G04 #@! TO.P,D4,3*
G04 #@! TO.N,GND*
X132950000Y-130700000D03*
G04 #@! TD*
G04 #@! TO.P,D5,1*
G04 #@! TO.N,Net-(C10-Pad1)*
X147850000Y-133900000D03*
G04 #@! TO.P,D5,2*
G04 #@! TO.N,Net-(D5-Pad2)*
X147850000Y-130700000D03*
G04 #@! TO.P,D5,4*
G04 #@! TO.N,Net-(D4-Pad2)*
X142950000Y-133900000D03*
G04 #@! TO.P,D5,3*
G04 #@! TO.N,GND*
X142950000Y-130700000D03*
G04 #@! TD*
G04 #@! TO.P,D6,3*
G04 #@! TO.N,GND*
X152950000Y-130700000D03*
G04 #@! TO.P,D6,4*
G04 #@! TO.N,Net-(D5-Pad2)*
X152950000Y-133900000D03*
G04 #@! TO.P,D6,2*
G04 #@! TO.N,Net-(D6-Pad2)*
X157850000Y-130700000D03*
G04 #@! TO.P,D6,1*
G04 #@! TO.N,Net-(C10-Pad1)*
X157850000Y-133900000D03*
G04 #@! TD*
G04 #@! TO.P,D7,3*
G04 #@! TO.N,GND*
X162950000Y-130700000D03*
G04 #@! TO.P,D7,4*
G04 #@! TO.N,Net-(D6-Pad2)*
X162950000Y-133900000D03*
G04 #@! TO.P,D7,2*
G04 #@! TO.N,Net-(D7-Pad2)*
X167850000Y-130700000D03*
G04 #@! TO.P,D7,1*
G04 #@! TO.N,Net-(C10-Pad1)*
X167850000Y-133900000D03*
G04 #@! TD*
G04 #@! TO.P,D8,1*
G04 #@! TO.N,Net-(C10-Pad1)*
X177850000Y-133900000D03*
G04 #@! TO.P,D8,2*
G04 #@! TO.N,Net-(D8-Pad2)*
X177850000Y-130700000D03*
G04 #@! TO.P,D8,4*
G04 #@! TO.N,Net-(D7-Pad2)*
X172950000Y-133900000D03*
G04 #@! TO.P,D8,3*
G04 #@! TO.N,GND*
X172950000Y-130700000D03*
G04 #@! TD*
G04 #@! TO.P,D9,3*
G04 #@! TO.N,GND*
X182950000Y-130700000D03*
G04 #@! TO.P,D9,4*
G04 #@! TO.N,Net-(D8-Pad2)*
X182950000Y-133900000D03*
G04 #@! TO.P,D9,2*
G04 #@! TO.N,Net-(D10-Pad4)*
X187850000Y-130700000D03*
G04 #@! TO.P,D9,1*
G04 #@! TO.N,Net-(C10-Pad1)*
X187850000Y-133900000D03*
G04 #@! TD*
G04 #@! TO.P,D10,1*
G04 #@! TO.N,Net-(C10-Pad1)*
X197850000Y-133900000D03*
G04 #@! TO.P,D10,2*
G04 #@! TO.N,Net-(D10-Pad2)*
X197850000Y-130700000D03*
G04 #@! TO.P,D10,4*
G04 #@! TO.N,Net-(D10-Pad4)*
X192950000Y-133900000D03*
G04 #@! TO.P,D10,3*
G04 #@! TO.N,GND*
X192950000Y-130700000D03*
G04 #@! TD*
D13*
G04 #@! TO.P,MD1,5*
G04 #@! TO.N,Net-(MD1-Pad5)*
X139840000Y-140400000D03*
G04 #@! TO.P,MD1,4*
G04 #@! TO.N,/SDA*
X142380000Y-140400000D03*
G04 #@! TO.P,MD1,3*
G04 #@! TO.N,/SCL*
X144920000Y-140400000D03*
G04 #@! TO.P,MD1,2*
G04 #@! TO.N,GND*
X147460000Y-140400000D03*
D14*
G04 #@! TO.P,MD1,1*
G04 #@! TO.N,+3V3*
X150000000Y-140400000D03*
G04 #@! TD*
D13*
G04 #@! TO.P,MD2,8*
G04 #@! TO.N,Net-(MD2-Pad8)*
X162780000Y-116500000D03*
G04 #@! TO.P,MD2,7*
G04 #@! TO.N,Net-(MD2-Pad7)*
X160240000Y-116500000D03*
G04 #@! TO.P,MD2,6*
G04 #@! TO.N,Net-(MD2-Pad6)*
X157700000Y-116500000D03*
G04 #@! TO.P,MD2,5*
G04 #@! TO.N,Net-(MD2-Pad5)*
X155160000Y-116500000D03*
G04 #@! TO.P,MD2,4*
G04 #@! TO.N,/SDA*
X152620000Y-116500000D03*
G04 #@! TO.P,MD2,3*
G04 #@! TO.N,/SCL*
X150080000Y-116500000D03*
G04 #@! TO.P,MD2,2*
G04 #@! TO.N,GND*
X147540000Y-116500000D03*
D14*
G04 #@! TO.P,MD2,1*
G04 #@! TO.N,+3V3*
X145000000Y-116500000D03*
G04 #@! TD*
D12*
G04 #@! TO.P,R1,2*
G04 #@! TO.N,/D6*
X172875000Y-122000000D03*
G04 #@! TO.P,R1,1*
G04 #@! TO.N,+3V3*
X171125000Y-122000000D03*
G04 #@! TD*
G04 #@! TO.P,R2,1*
G04 #@! TO.N,Net-(MD1-Pad5)*
X141875000Y-108800000D03*
G04 #@! TO.P,R2,2*
G04 #@! TO.N,Net-(C3-Pad1)*
X140125000Y-108800000D03*
G04 #@! TD*
D15*
G04 #@! TO.P,U1,1*
G04 #@! TO.N,+3V3*
X171000000Y-120000000D03*
D16*
G04 #@! TO.P,U1,2*
G04 #@! TO.N,/D6*
X173540000Y-120000000D03*
G04 #@! TO.P,U1,3*
G04 #@! TO.N,N/C*
X176080000Y-120000000D03*
G04 #@! TO.P,U1,4*
G04 #@! TO.N,GND*
X178620000Y-120000000D03*
G04 #@! TD*
D14*
G04 #@! TO.P,U2,1*
G04 #@! TO.N,Net-(U2-Pad1)*
X126000000Y-102000000D03*
D13*
G04 #@! TO.P,U2,2*
G04 #@! TO.N,Net-(U2-Pad2)*
X123460000Y-102000000D03*
G04 #@! TO.P,U2,3*
G04 #@! TO.N,Net-(C3-Pad1)*
X120920000Y-102000000D03*
G04 #@! TO.P,U2,4*
G04 #@! TO.N,Net-(U2-Pad4)*
X118380000Y-102000000D03*
G04 #@! TO.P,U2,5*
G04 #@! TO.N,/D6*
X115840000Y-102000000D03*
G04 #@! TO.P,U2,6*
G04 #@! TO.N,Net-(MD2-Pad7)*
X113300000Y-102000000D03*
G04 #@! TO.P,U2,7*
G04 #@! TO.N,Net-(MD2-Pad6)*
X110760000Y-102000000D03*
G04 #@! TO.P,U2,8*
G04 #@! TO.N,+3V3*
X108220000Y-102000000D03*
G04 #@! TO.P,U2,16*
G04 #@! TO.N,Net-(U2-Pad16)*
X126000000Y-124860000D03*
G04 #@! TO.P,U2,15*
G04 #@! TO.N,N/C*
X123460000Y-124860000D03*
G04 #@! TO.P,U2,14*
G04 #@! TO.N,/SCL*
X120920000Y-124860000D03*
G04 #@! TO.P,U2,13*
G04 #@! TO.N,/SDA*
X118380000Y-124860000D03*
G04 #@! TO.P,U2,12*
G04 #@! TO.N,Net-(MD2-Pad5)*
X115840000Y-124860000D03*
G04 #@! TO.P,U2,11*
G04 #@! TO.N,/D4*
X113300000Y-124860000D03*
G04 #@! TO.P,U2,10*
G04 #@! TO.N,GND*
X110760000Y-124860000D03*
G04 #@! TO.P,U2,9*
G04 #@! TO.N,+5V*
X108220000Y-124860000D03*
G04 #@! TD*
D17*
G04 #@! TO.N,+3V3*
G04 #@! TO.C,JP1*
G36*
X101549010Y-126852408D02*
X101597546Y-126859607D01*
X101645143Y-126871530D01*
X101691343Y-126888060D01*
X101735699Y-126909039D01*
X101777786Y-126934265D01*
X101817198Y-126963495D01*
X101853554Y-126996447D01*
X101886506Y-127032803D01*
X101915736Y-127072215D01*
X101940962Y-127114302D01*
X101961941Y-127158658D01*
X101978471Y-127204858D01*
X101990394Y-127252455D01*
X101997593Y-127300991D01*
X102000001Y-127350000D01*
X102000001Y-127850000D01*
X101997593Y-127899009D01*
X101990394Y-127947545D01*
X101978471Y-127995142D01*
X101961941Y-128041342D01*
X101940962Y-128085698D01*
X101915736Y-128127785D01*
X101886506Y-128167197D01*
X101853554Y-128203553D01*
X101817198Y-128236505D01*
X101777786Y-128265735D01*
X101735699Y-128290961D01*
X101691343Y-128311940D01*
X101645143Y-128328470D01*
X101597546Y-128340393D01*
X101549010Y-128347592D01*
X101500001Y-128350000D01*
X101499999Y-128350000D01*
X101450990Y-128347592D01*
X101402454Y-128340393D01*
X101354857Y-128328470D01*
X101308657Y-128311940D01*
X101264301Y-128290961D01*
X101222214Y-128265735D01*
X101182802Y-128236505D01*
X101146446Y-128203553D01*
X101113494Y-128167197D01*
X101084264Y-128127785D01*
X101059038Y-128085698D01*
X101038059Y-128041342D01*
X101021529Y-127995142D01*
X101009606Y-127947545D01*
X101002407Y-127899009D01*
X100999999Y-127850000D01*
X100999999Y-127350000D01*
X101002407Y-127300991D01*
X101009606Y-127252455D01*
X101021529Y-127204858D01*
X101038059Y-127158658D01*
X101059038Y-127114302D01*
X101084264Y-127072215D01*
X101113494Y-127032803D01*
X101146446Y-126996447D01*
X101182802Y-126963495D01*
X101222214Y-126934265D01*
X101264301Y-126909039D01*
X101308657Y-126888060D01*
X101354857Y-126871530D01*
X101402454Y-126859607D01*
X101450990Y-126852408D01*
X101499999Y-126850000D01*
X101500001Y-126850000D01*
X101549010Y-126852408D01*
X101549010Y-126852408D01*
G37*
D18*
G04 #@! TD*
G04 #@! TO.P,JP1,1*
G04 #@! TO.N,+3V3*
X101500000Y-127600000D03*
D19*
G04 #@! TO.P,JP1,1*
G04 #@! TO.N,+3V3*
X101800000Y-127600000D03*
D20*
G04 #@! TO.P,JP1,2*
G04 #@! TO.N,Net-(C10-Pad1)*
X102800000Y-127600000D03*
D17*
G04 #@! TD*
G04 #@! TO.N,+5V*
G04 #@! TO.C,JP1*
G36*
X104149010Y-126852408D02*
X104197546Y-126859607D01*
X104245143Y-126871530D01*
X104291343Y-126888060D01*
X104335699Y-126909039D01*
X104377786Y-126934265D01*
X104417198Y-126963495D01*
X104453554Y-126996447D01*
X104486506Y-127032803D01*
X104515736Y-127072215D01*
X104540962Y-127114302D01*
X104561941Y-127158658D01*
X104578471Y-127204858D01*
X104590394Y-127252455D01*
X104597593Y-127300991D01*
X104600001Y-127350000D01*
X104600001Y-127850000D01*
X104597593Y-127899009D01*
X104590394Y-127947545D01*
X104578471Y-127995142D01*
X104561941Y-128041342D01*
X104540962Y-128085698D01*
X104515736Y-128127785D01*
X104486506Y-128167197D01*
X104453554Y-128203553D01*
X104417198Y-128236505D01*
X104377786Y-128265735D01*
X104335699Y-128290961D01*
X104291343Y-128311940D01*
X104245143Y-128328470D01*
X104197546Y-128340393D01*
X104149010Y-128347592D01*
X104100001Y-128350000D01*
X104099999Y-128350000D01*
X104050990Y-128347592D01*
X104002454Y-128340393D01*
X103954857Y-128328470D01*
X103908657Y-128311940D01*
X103864301Y-128290961D01*
X103822214Y-128265735D01*
X103782802Y-128236505D01*
X103746446Y-128203553D01*
X103713494Y-128167197D01*
X103684264Y-128127785D01*
X103659038Y-128085698D01*
X103638059Y-128041342D01*
X103621529Y-127995142D01*
X103609606Y-127947545D01*
X103602407Y-127899009D01*
X103599999Y-127850000D01*
X103599999Y-127350000D01*
X103602407Y-127300991D01*
X103609606Y-127252455D01*
X103621529Y-127204858D01*
X103638059Y-127158658D01*
X103659038Y-127114302D01*
X103684264Y-127072215D01*
X103713494Y-127032803D01*
X103746446Y-126996447D01*
X103782802Y-126963495D01*
X103822214Y-126934265D01*
X103864301Y-126909039D01*
X103908657Y-126888060D01*
X103954857Y-126871530D01*
X104002454Y-126859607D01*
X104050990Y-126852408D01*
X104099999Y-126850000D01*
X104100001Y-126850000D01*
X104149010Y-126852408D01*
X104149010Y-126852408D01*
G37*
D18*
G04 #@! TO.P,JP1,3*
G04 #@! TO.N,+5V*
X104100000Y-127600000D03*
D19*
X103800000Y-127600000D03*
G04 #@! TD*
D21*
G04 #@! TO.N,+3V3*
X150400000Y-138800000D03*
G04 #@! TO.N,GND*
X152800000Y-120800000D03*
X152800000Y-122400000D03*
X154800000Y-125400000D03*
X142000000Y-121800000D03*
X140400000Y-130400000D03*
X105800000Y-129200000D03*
X107000000Y-127600000D03*
X111200000Y-130600000D03*
X121387200Y-130700000D03*
X131400000Y-130800000D03*
X110800000Y-122600000D03*
X195600000Y-137000000D03*
X196800000Y-137400000D03*
X186800000Y-137400004D03*
X176800000Y-137400000D03*
X166800000Y-137400000D03*
X155780400Y-136300000D03*
X145800000Y-136400000D03*
X145800000Y-130600000D03*
X125600000Y-136200000D03*
X105380400Y-136300000D03*
X113000000Y-129400000D03*
X123000000Y-129400000D03*
X109860001Y-126660001D03*
X140200000Y-114200000D03*
G04 #@! TO.N,Net-(C3-Pad1)*
X146400000Y-105000000D03*
G04 #@! TO.N,/D4*
X103600000Y-135800000D03*
G04 #@! TO.N,Net-(MD1-Pad5)*
X145800000Y-138400000D03*
X148800000Y-125400000D03*
G04 #@! TO.N,/SCL*
X150600000Y-121600000D03*
G04 #@! TD*
D22*
G04 #@! TO.N,+3V3*
X104800000Y-107100000D02*
X108220000Y-103680000D01*
X104800000Y-120600000D02*
X104800000Y-107100000D01*
X101500000Y-123900000D02*
X104800000Y-120600000D01*
X101500000Y-127600000D02*
X101500000Y-123900000D01*
X108220000Y-103680000D02*
X108220000Y-102000000D01*
D23*
X171000000Y-121875000D02*
X171125000Y-122000000D01*
X171000000Y-120000000D02*
X171000000Y-121875000D01*
D22*
X150400000Y-139410657D02*
X150400000Y-138800000D01*
X150000000Y-140400000D02*
X150400000Y-140000000D01*
X150400000Y-140000000D02*
X150400000Y-139410657D01*
D23*
X171000000Y-120000000D02*
X169125000Y-120000000D01*
X169125000Y-120000000D02*
X169000000Y-120125000D01*
D22*
G04 #@! TO.N,GND*
X147540000Y-116500000D02*
X147540000Y-117772792D01*
X147540000Y-117772792D02*
X147400000Y-117912792D01*
X152800000Y-122400000D02*
X152800000Y-120800000D01*
X154800000Y-127537200D02*
X154800000Y-125400000D01*
X152950000Y-130700000D02*
X152950000Y-129387200D01*
X152950000Y-129387200D02*
X154800000Y-127537200D01*
X142950000Y-130700000D02*
X140700000Y-130700000D01*
X140700000Y-130700000D02*
X140400000Y-130400000D01*
X107000000Y-127600000D02*
X107000000Y-128000000D01*
X107000000Y-128000000D02*
X105800000Y-129200000D01*
X107800000Y-127000000D02*
X107400000Y-127400000D01*
X109520002Y-127000000D02*
X107800000Y-127000000D01*
X107400000Y-127400000D02*
X107200000Y-127400000D01*
X109860001Y-126660001D02*
X109520002Y-127000000D01*
X107200000Y-127400000D02*
X107000000Y-127600000D01*
X110760000Y-124860000D02*
X110760000Y-122640000D01*
X110760000Y-122640000D02*
X110800000Y-122600000D01*
X109860001Y-125759999D02*
X110760000Y-124860000D01*
X109860001Y-126660001D02*
X109860001Y-125759999D01*
X112950000Y-130700000D02*
X111300000Y-130700000D01*
X111300000Y-130700000D02*
X111200000Y-130600000D01*
X121087200Y-130400000D02*
X121387200Y-130700000D01*
X122950000Y-130700000D02*
X121387200Y-130700000D01*
X132950000Y-130700000D02*
X131500000Y-130700000D01*
X131500000Y-130700000D02*
X131400000Y-130800000D01*
X132950000Y-130700000D02*
X132950000Y-129450000D01*
X132950000Y-129450000D02*
X133000000Y-129400000D01*
X142950000Y-130700000D02*
X141387200Y-130700000D01*
X141387200Y-130700000D02*
X139687200Y-129000000D01*
X196500000Y-136300000D02*
X195800000Y-137000000D01*
X195800000Y-137000000D02*
X195600000Y-137000000D01*
X196725000Y-136300000D02*
X196500000Y-136300000D01*
D24*
X196725000Y-136300000D02*
X196725000Y-137325000D01*
X196725000Y-137325000D02*
X196800000Y-137400000D01*
X186650000Y-137250000D02*
X186800000Y-137400000D01*
X186650000Y-136300000D02*
X186800000Y-136450000D01*
X186800000Y-136450000D02*
X186800000Y-136789347D01*
X186800000Y-136789347D02*
X186800000Y-137400004D01*
X186800000Y-137400000D02*
X186800000Y-137400004D01*
X176725000Y-136300000D02*
X176725000Y-137325000D01*
X176725000Y-137325000D02*
X176800000Y-137400000D01*
X166725000Y-136300000D02*
X166725000Y-137325000D01*
X166725000Y-137325000D02*
X166800000Y-137400000D01*
X156725000Y-136300000D02*
X155780400Y-136300000D01*
X148359999Y-138640001D02*
X149336601Y-137663399D01*
X149336601Y-137663399D02*
X154417001Y-137663399D01*
X154417001Y-137663399D02*
X155780400Y-136300000D01*
X147460000Y-140400000D02*
X148359999Y-139500001D01*
X148359999Y-139500001D02*
X148359999Y-138640001D01*
X146410657Y-136400000D02*
X145800000Y-136400000D01*
X146625000Y-136400000D02*
X146410657Y-136400000D01*
X146725000Y-136300000D02*
X146625000Y-136400000D01*
X147460000Y-140400000D02*
X147200000Y-140140000D01*
X147200000Y-140140000D02*
X147200000Y-136775000D01*
X147200000Y-136775000D02*
X146725000Y-136300000D01*
X126725000Y-136200000D02*
X125600000Y-136200000D01*
X106325000Y-136300000D02*
X105380400Y-136300000D01*
X105380400Y-136300000D02*
X105280400Y-136200000D01*
X112950000Y-129450000D02*
X113000000Y-129400000D01*
X112950000Y-130700000D02*
X112950000Y-129450000D01*
X122950000Y-130700000D02*
X122950000Y-129450000D01*
X122950000Y-129450000D02*
X123000000Y-129400000D01*
X140200000Y-112800000D02*
X140200000Y-114200000D01*
G04 #@! TO.N,Net-(C3-Pad1)*
X140200000Y-111050000D02*
X140200000Y-108875000D01*
X140200000Y-108875000D02*
X140125000Y-108800000D01*
X146400000Y-105000000D02*
X142400000Y-105000000D01*
X142400000Y-105000000D02*
X140125000Y-107275000D01*
X140125000Y-107275000D02*
X140125000Y-108800000D01*
D23*
G04 #@! TO.N,/D4*
X103168201Y-135368201D02*
X103600000Y-135800000D01*
X102950000Y-133900000D02*
X102950000Y-135150000D01*
X102950000Y-135150000D02*
X103168201Y-135368201D01*
G04 #@! TO.N,Net-(D1-Pad2)*
X107850000Y-130700000D02*
X108700000Y-130700000D01*
X108700000Y-130700000D02*
X111900000Y-133900000D01*
X112700000Y-133900000D02*
X112950000Y-133900000D01*
X111900000Y-133900000D02*
X112700000Y-133900000D01*
G04 #@! TO.N,Net-(D2-Pad2)*
X117850000Y-130700000D02*
X118700000Y-130700000D01*
X118700000Y-130700000D02*
X121900000Y-133900000D01*
X121900000Y-133900000D02*
X122950000Y-133900000D01*
G04 #@! TO.N,Net-(D3-Pad2)*
X127850000Y-130700000D02*
X128700000Y-130700000D01*
X128700000Y-130700000D02*
X131900000Y-133900000D01*
X132700000Y-133900000D02*
X132950000Y-133900000D01*
X131900000Y-133900000D02*
X132700000Y-133900000D01*
G04 #@! TO.N,Net-(D4-Pad2)*
X142950000Y-133900000D02*
X141900000Y-133900000D01*
X138700000Y-130700000D02*
X137850000Y-130700000D01*
X141900000Y-133900000D02*
X138700000Y-130700000D01*
X137850000Y-130700000D02*
X138100000Y-130700000D01*
G04 #@! TO.N,Net-(D5-Pad2)*
X147850000Y-130700000D02*
X148900000Y-130700000D01*
X148900000Y-130700000D02*
X151992000Y-133792000D01*
X152842000Y-133792000D02*
X152950000Y-133900000D01*
X151992000Y-133792000D02*
X152842000Y-133792000D01*
G04 #@! TO.N,Net-(D6-Pad2)*
X157850000Y-130700000D02*
X158700000Y-130700000D01*
X161900000Y-133900000D02*
X162950000Y-133900000D01*
X158700000Y-130700000D02*
X161900000Y-133900000D01*
G04 #@! TO.N,Net-(D7-Pad2)*
X167850000Y-130700000D02*
X168900000Y-130700000D01*
X172100000Y-133900000D02*
X172950000Y-133900000D01*
X168900000Y-130700000D02*
X172100000Y-133900000D01*
G04 #@! TO.N,Net-(D8-Pad2)*
X177850000Y-130700000D02*
X178100000Y-130700000D01*
X178100000Y-130700000D02*
X181300000Y-133900000D01*
X181300000Y-133900000D02*
X182950000Y-133900000D01*
G04 #@! TO.N,Net-(D10-Pad4)*
X187850000Y-130700000D02*
X187850000Y-130850000D01*
X187850000Y-130850000D02*
X190900000Y-133900000D01*
X190900000Y-133900000D02*
X191692000Y-133900000D01*
X191692000Y-133900000D02*
X192950000Y-133900000D01*
D24*
G04 #@! TO.N,Net-(MD1-Pad5)*
X145189343Y-138400000D02*
X145800000Y-138400000D01*
X141840000Y-138400000D02*
X145189343Y-138400000D01*
X139840000Y-140400000D02*
X141840000Y-138400000D01*
X141875000Y-118475000D02*
X148800000Y-125400000D01*
X141875000Y-117675000D02*
X141875000Y-118475000D01*
X141875000Y-108800000D02*
X141875000Y-117675000D01*
D23*
G04 #@! TO.N,/SCL*
X150080000Y-121080000D02*
X150168201Y-121168201D01*
X150080000Y-116500000D02*
X150080000Y-121080000D01*
X150168201Y-121168201D02*
X150600000Y-121600000D01*
G04 #@! TO.N,Net-(MD2-Pad7)*
X128000000Y-103800000D02*
X130000000Y-101800000D01*
X115100000Y-103800000D02*
X128000000Y-103800000D01*
X130000000Y-101800000D02*
X146800000Y-101800000D01*
X160000000Y-115000000D02*
X160000000Y-116260000D01*
X113300000Y-102000000D02*
X115100000Y-103800000D01*
X146800000Y-101800000D02*
X160000000Y-115000000D01*
X160000000Y-116260000D02*
X160240000Y-116500000D01*
G04 #@! TO.N,Net-(MD2-Pad6)*
X111487208Y-104000000D02*
X111500000Y-104000000D01*
X112300000Y-104800000D02*
X128600000Y-104800000D01*
X110760000Y-103272792D02*
X111487208Y-104000000D01*
X111500000Y-104000000D02*
X112300000Y-104800000D01*
X128600000Y-104800000D02*
X130600000Y-102800000D01*
X110760000Y-102000000D02*
X110760000Y-103272792D01*
X130600000Y-102800000D02*
X145800000Y-102800000D01*
X145800000Y-102800000D02*
X157700000Y-114700000D01*
X157700000Y-114700000D02*
X157700000Y-116500000D01*
G04 #@! TO.N,Net-(MD2-Pad5)*
X115840000Y-124860000D02*
X118380000Y-127400000D01*
X118380000Y-127400000D02*
X149710986Y-127400000D01*
X155160000Y-121950986D02*
X155160000Y-117772792D01*
X149710986Y-127400000D02*
X155160000Y-121950986D01*
X155160000Y-117772792D02*
X155160000Y-116500000D01*
G04 #@! TO.N,/D6*
X147200000Y-100200000D02*
X156000000Y-109000000D01*
X116367208Y-100200000D02*
X147200000Y-100200000D01*
X115840000Y-102000000D02*
X115840000Y-100727208D01*
X115840000Y-100727208D02*
X116367208Y-100200000D01*
X156000000Y-109000000D02*
X164400000Y-109000000D01*
X164400000Y-109000000D02*
X173540000Y-118140000D01*
X173540000Y-118140000D02*
X173540000Y-120000000D01*
X172875000Y-122000000D02*
X172875000Y-120665000D01*
X172875000Y-120665000D02*
X173540000Y-120000000D01*
D22*
G04 #@! TO.N,+5V*
X108220000Y-124860000D02*
X106840000Y-124860000D01*
X106840000Y-124860000D02*
X104100000Y-127600000D01*
G04 #@! TO.N,Net-(C10-Pad1)*
X194387200Y-135800000D02*
X196287200Y-133900000D01*
X187850000Y-133900000D02*
X189412800Y-133900000D01*
X189412800Y-133900000D02*
X191312800Y-135800000D01*
X191312800Y-135800000D02*
X194387200Y-135800000D01*
X196287200Y-133900000D02*
X197850000Y-133900000D01*
X179412800Y-133900000D02*
X181112800Y-135600000D01*
X184587200Y-135600000D02*
X186287200Y-133900000D01*
X181112800Y-135600000D02*
X184587200Y-135600000D01*
X177850000Y-133900000D02*
X179412800Y-133900000D01*
X186287200Y-133900000D02*
X187850000Y-133900000D01*
D24*
X128475000Y-136200000D02*
X128475000Y-134525000D01*
X128475000Y-134525000D02*
X127850000Y-133900000D01*
X108075000Y-136300000D02*
X108075000Y-134125000D01*
X108075000Y-134125000D02*
X107850000Y-133900000D01*
X118475000Y-136300000D02*
X118475000Y-134525000D01*
X118475000Y-134525000D02*
X117850000Y-133900000D01*
X107775000Y-133975000D02*
X107850000Y-133900000D01*
X138475000Y-136300000D02*
X138475000Y-134525000D01*
X138475000Y-134525000D02*
X137850000Y-133900000D01*
X148475000Y-136300000D02*
X148475000Y-134525000D01*
X148475000Y-134525000D02*
X147850000Y-133900000D01*
X158475000Y-136300000D02*
X158475000Y-134525000D01*
X158475000Y-134525000D02*
X157850000Y-133900000D01*
X168475000Y-136300000D02*
X168475000Y-134525000D01*
X168475000Y-134525000D02*
X167850000Y-133900000D01*
X178475000Y-136300000D02*
X178475000Y-134525000D01*
X178475000Y-134525000D02*
X177850000Y-133900000D01*
X188400000Y-136300000D02*
X188400000Y-134450000D01*
X188400000Y-134450000D02*
X187850000Y-133900000D01*
X198475000Y-136300000D02*
X198475000Y-134525000D01*
X198475000Y-134525000D02*
X197850000Y-133900000D01*
D22*
X174600000Y-135600000D02*
X174600000Y-135587200D01*
X174600000Y-135587200D02*
X176287200Y-133900000D01*
X176287200Y-133900000D02*
X177850000Y-133900000D01*
X171112800Y-135600000D02*
X174600000Y-135600000D01*
X167850000Y-133900000D02*
X169412800Y-133900000D01*
X169412800Y-133900000D02*
X171112800Y-135600000D01*
X161112800Y-135600000D02*
X164600000Y-135600000D01*
X166300000Y-133900000D02*
X167850000Y-133900000D01*
X159412800Y-133900000D02*
X161112800Y-135600000D01*
X164600000Y-135600000D02*
X166300000Y-133900000D01*
X157850000Y-133900000D02*
X159412800Y-133900000D01*
X151312800Y-135800000D02*
X154200000Y-135800000D01*
X149412800Y-133900000D02*
X151312800Y-135800000D01*
X154200000Y-135800000D02*
X156100000Y-133900000D01*
X147850000Y-133900000D02*
X149412800Y-133900000D01*
X156100000Y-133900000D02*
X157850000Y-133900000D01*
X144400000Y-135800000D02*
X144400000Y-135787200D01*
X144400000Y-135787200D02*
X146287200Y-133900000D01*
X146287200Y-133900000D02*
X147850000Y-133900000D01*
X141312800Y-135800000D02*
X144400000Y-135800000D01*
X137850000Y-133900000D02*
X139412800Y-133900000D01*
X139412800Y-133900000D02*
X141312800Y-135800000D01*
X133800000Y-136000000D02*
X135900000Y-133900000D01*
X135900000Y-133900000D02*
X137850000Y-133900000D01*
X131512800Y-136000000D02*
X133800000Y-136000000D01*
X127850000Y-133900000D02*
X129412800Y-133900000D01*
X129412800Y-133900000D02*
X131512800Y-136000000D01*
X124000000Y-135600000D02*
X125700000Y-133900000D01*
X125700000Y-133900000D02*
X127850000Y-133900000D01*
X121112800Y-135600000D02*
X124000000Y-135600000D01*
X117850000Y-133900000D02*
X119412800Y-133900000D01*
X119412800Y-133900000D02*
X121112800Y-135600000D01*
X114400000Y-135400000D02*
X115900000Y-133900000D01*
X109600000Y-135400000D02*
X114400000Y-135400000D01*
X107850000Y-133900000D02*
X108100000Y-133900000D01*
X108100000Y-133900000D02*
X109600000Y-135400000D01*
X115900000Y-133900000D02*
X117850000Y-133900000D01*
X101400000Y-129200000D02*
X101200000Y-129400000D01*
X102291522Y-129200000D02*
X101400000Y-129200000D01*
X102800000Y-128691522D02*
X102291522Y-129200000D01*
X102800000Y-127600000D02*
X102800000Y-128691522D01*
X101200000Y-129400000D02*
X101200000Y-132200000D01*
X101200000Y-132200000D02*
X101600000Y-132600000D01*
X101600000Y-132600000D02*
X104987200Y-132600000D01*
X104987200Y-132600000D02*
X106287200Y-133900000D01*
X106287200Y-133900000D02*
X107850000Y-133900000D01*
G04 #@! TD*
D25*
G04 #@! TO.N,GND*
G36*
X196779000Y-136246000D02*
X196799000Y-136246000D01*
X196799000Y-136354000D01*
X196779000Y-136354000D01*
X196779000Y-137331000D01*
X196956000Y-137508000D01*
X197200830Y-137508000D01*
X197364956Y-137440017D01*
X197419040Y-137520960D01*
X197749819Y-137741979D01*
X198140000Y-137819591D01*
X198587242Y-137819591D01*
X198599243Y-141000000D01*
X193535534Y-141000000D01*
X194119398Y-140416136D01*
X194500000Y-139497281D01*
X194500000Y-138502719D01*
X194119398Y-137583864D01*
X193741934Y-137206400D01*
X194248683Y-137206400D01*
X194387200Y-137233953D01*
X194525717Y-137206400D01*
X194525718Y-137206400D01*
X194935950Y-137124800D01*
X195401158Y-136813958D01*
X195479626Y-136696522D01*
X195822147Y-136354002D01*
X195858998Y-136354002D01*
X195682000Y-136531000D01*
X195682000Y-136940830D01*
X195789787Y-137201050D01*
X195988950Y-137400213D01*
X196249170Y-137508000D01*
X196494000Y-137508000D01*
X196671000Y-137331000D01*
X196671000Y-136354000D01*
X196651000Y-136354000D01*
X196651000Y-136246000D01*
X196671000Y-136246000D01*
X196671000Y-136226000D01*
X196779000Y-136226000D01*
X196779000Y-136246000D01*
X196779000Y-136246000D01*
G37*
X196779000Y-136246000D02*
X196799000Y-136246000D01*
X196799000Y-136354000D01*
X196779000Y-136354000D01*
X196779000Y-137331000D01*
X196956000Y-137508000D01*
X197200830Y-137508000D01*
X197364956Y-137440017D01*
X197419040Y-137520960D01*
X197749819Y-137741979D01*
X198140000Y-137819591D01*
X198587242Y-137819591D01*
X198599243Y-141000000D01*
X193535534Y-141000000D01*
X194119398Y-140416136D01*
X194500000Y-139497281D01*
X194500000Y-138502719D01*
X194119398Y-137583864D01*
X193741934Y-137206400D01*
X194248683Y-137206400D01*
X194387200Y-137233953D01*
X194525717Y-137206400D01*
X194525718Y-137206400D01*
X194935950Y-137124800D01*
X195401158Y-136813958D01*
X195479626Y-136696522D01*
X195822147Y-136354002D01*
X195858998Y-136354002D01*
X195682000Y-136531000D01*
X195682000Y-136940830D01*
X195789787Y-137201050D01*
X195988950Y-137400213D01*
X196249170Y-137508000D01*
X196494000Y-137508000D01*
X196671000Y-137331000D01*
X196671000Y-136354000D01*
X196651000Y-136354000D01*
X196651000Y-136246000D01*
X196671000Y-136246000D01*
X196671000Y-136226000D01*
X196779000Y-136226000D01*
X196779000Y-136246000D01*
G36*
X105194777Y-134796527D02*
X105273242Y-134913958D01*
X105626504Y-135150000D01*
X105658130Y-135171132D01*
X105588950Y-135199787D01*
X105389787Y-135398950D01*
X105282000Y-135659170D01*
X105282000Y-136069000D01*
X105459000Y-136246000D01*
X106271000Y-136246000D01*
X106271000Y-136226000D01*
X106379000Y-136226000D01*
X106379000Y-136246000D01*
X106399000Y-136246000D01*
X106399000Y-136354000D01*
X106379000Y-136354000D01*
X106379000Y-137331000D01*
X106556000Y-137508000D01*
X106800830Y-137508000D01*
X106964956Y-137440017D01*
X107019040Y-137520960D01*
X107349819Y-137741979D01*
X107740000Y-137819591D01*
X108410000Y-137819591D01*
X108800181Y-137741979D01*
X109130960Y-137520960D01*
X109351979Y-137190181D01*
X109429580Y-136800054D01*
X109461482Y-136806400D01*
X109461486Y-136806400D01*
X109599999Y-136833952D01*
X109738512Y-136806400D01*
X110763004Y-136806400D01*
X110583864Y-136880602D01*
X109880602Y-137583864D01*
X109500000Y-138502719D01*
X109500000Y-139497281D01*
X109880602Y-140416136D01*
X110464466Y-141000000D01*
X101598942Y-141000000D01*
X101568069Y-135180447D01*
X101694263Y-135264767D01*
X101696000Y-135273502D01*
X101696000Y-135273507D01*
X101768758Y-135639286D01*
X101845470Y-135754093D01*
X101975956Y-135949379D01*
X101975958Y-135949381D01*
X102045918Y-136054083D01*
X102150619Y-136124042D01*
X102208378Y-136181801D01*
X102386178Y-136611050D01*
X102788950Y-137013822D01*
X103315197Y-137231800D01*
X103884803Y-137231800D01*
X104411050Y-137013822D01*
X104813822Y-136611050D01*
X104846979Y-136531000D01*
X105282000Y-136531000D01*
X105282000Y-136940830D01*
X105389787Y-137201050D01*
X105588950Y-137400213D01*
X105849170Y-137508000D01*
X106094000Y-137508000D01*
X106271000Y-137331000D01*
X106271000Y-136354000D01*
X105459000Y-136354000D01*
X105282000Y-136531000D01*
X104846979Y-136531000D01*
X105031800Y-136084803D01*
X105031800Y-135515197D01*
X104813822Y-134988950D01*
X104631194Y-134806322D01*
X104641979Y-134790181D01*
X104719591Y-134400000D01*
X104719591Y-134321340D01*
X105194777Y-134796527D01*
X105194777Y-134796527D01*
G37*
X105194777Y-134796527D02*
X105273242Y-134913958D01*
X105626504Y-135150000D01*
X105658130Y-135171132D01*
X105588950Y-135199787D01*
X105389787Y-135398950D01*
X105282000Y-135659170D01*
X105282000Y-136069000D01*
X105459000Y-136246000D01*
X106271000Y-136246000D01*
X106271000Y-136226000D01*
X106379000Y-136226000D01*
X106379000Y-136246000D01*
X106399000Y-136246000D01*
X106399000Y-136354000D01*
X106379000Y-136354000D01*
X106379000Y-137331000D01*
X106556000Y-137508000D01*
X106800830Y-137508000D01*
X106964956Y-137440017D01*
X107019040Y-137520960D01*
X107349819Y-137741979D01*
X107740000Y-137819591D01*
X108410000Y-137819591D01*
X108800181Y-137741979D01*
X109130960Y-137520960D01*
X109351979Y-137190181D01*
X109429580Y-136800054D01*
X109461482Y-136806400D01*
X109461486Y-136806400D01*
X109599999Y-136833952D01*
X109738512Y-136806400D01*
X110763004Y-136806400D01*
X110583864Y-136880602D01*
X109880602Y-137583864D01*
X109500000Y-138502719D01*
X109500000Y-139497281D01*
X109880602Y-140416136D01*
X110464466Y-141000000D01*
X101598942Y-141000000D01*
X101568069Y-135180447D01*
X101694263Y-135264767D01*
X101696000Y-135273502D01*
X101696000Y-135273507D01*
X101768758Y-135639286D01*
X101845470Y-135754093D01*
X101975956Y-135949379D01*
X101975958Y-135949381D01*
X102045918Y-136054083D01*
X102150619Y-136124042D01*
X102208378Y-136181801D01*
X102386178Y-136611050D01*
X102788950Y-137013822D01*
X103315197Y-137231800D01*
X103884803Y-137231800D01*
X104411050Y-137013822D01*
X104813822Y-136611050D01*
X104846979Y-136531000D01*
X105282000Y-136531000D01*
X105282000Y-136940830D01*
X105389787Y-137201050D01*
X105588950Y-137400213D01*
X105849170Y-137508000D01*
X106094000Y-137508000D01*
X106271000Y-137331000D01*
X106271000Y-136354000D01*
X105459000Y-136354000D01*
X105282000Y-136531000D01*
X104846979Y-136531000D01*
X105031800Y-136084803D01*
X105031800Y-135515197D01*
X104813822Y-134988950D01*
X104631194Y-134806322D01*
X104641979Y-134790181D01*
X104719591Y-134400000D01*
X104719591Y-134321340D01*
X105194777Y-134796527D01*
G36*
X125682000Y-135969000D02*
X125859000Y-136146000D01*
X126671000Y-136146000D01*
X126671000Y-136126000D01*
X126779000Y-136126000D01*
X126779000Y-136146000D01*
X126799000Y-136146000D01*
X126799000Y-136254000D01*
X126779000Y-136254000D01*
X126779000Y-137231000D01*
X126956000Y-137408000D01*
X127200830Y-137408000D01*
X127364956Y-137340017D01*
X127419040Y-137420960D01*
X127749819Y-137641979D01*
X128140000Y-137719591D01*
X128810000Y-137719591D01*
X129200181Y-137641979D01*
X129530960Y-137420960D01*
X129751979Y-137090181D01*
X129829591Y-136700000D01*
X129829591Y-136305740D01*
X130420377Y-136896527D01*
X130498842Y-137013958D01*
X130964050Y-137324800D01*
X131374282Y-137406400D01*
X131374286Y-137406400D01*
X131512799Y-137433952D01*
X131651312Y-137406400D01*
X133661483Y-137406400D01*
X133800000Y-137433953D01*
X133938517Y-137406400D01*
X133938518Y-137406400D01*
X134348750Y-137324800D01*
X134813958Y-137013958D01*
X134892426Y-136896522D01*
X135257948Y-136531000D01*
X135682000Y-136531000D01*
X135682000Y-136940830D01*
X135789787Y-137201050D01*
X135988950Y-137400213D01*
X136249170Y-137508000D01*
X136494000Y-137508000D01*
X136671000Y-137331000D01*
X136671000Y-136354000D01*
X135859000Y-136354000D01*
X135682000Y-136531000D01*
X135257948Y-136531000D01*
X135700974Y-136087974D01*
X135859000Y-136246000D01*
X136671000Y-136246000D01*
X136671000Y-136226000D01*
X136779000Y-136226000D01*
X136779000Y-136246000D01*
X136799000Y-136246000D01*
X136799000Y-136354000D01*
X136779000Y-136354000D01*
X136779000Y-137331000D01*
X136956000Y-137508000D01*
X137200830Y-137508000D01*
X137364956Y-137440017D01*
X137419040Y-137520960D01*
X137749819Y-137741979D01*
X138140000Y-137819591D01*
X138810000Y-137819591D01*
X139200181Y-137741979D01*
X139530960Y-137520960D01*
X139751979Y-137190181D01*
X139829591Y-136800000D01*
X139829591Y-136305740D01*
X140220377Y-136696527D01*
X140298842Y-136813958D01*
X140416272Y-136892422D01*
X140764049Y-137124800D01*
X141254031Y-137222263D01*
X140899292Y-137459292D01*
X140826498Y-137568236D01*
X139894735Y-138500000D01*
X139462067Y-138500000D01*
X138763737Y-138789258D01*
X138229258Y-139323737D01*
X137940000Y-140022067D01*
X137940000Y-140777933D01*
X138031983Y-141000000D01*
X113535534Y-141000000D01*
X114119398Y-140416136D01*
X114500000Y-139497281D01*
X114500000Y-138502719D01*
X114119398Y-137583864D01*
X113416136Y-136880602D01*
X113236996Y-136806400D01*
X114261483Y-136806400D01*
X114400000Y-136833953D01*
X114538517Y-136806400D01*
X114538518Y-136806400D01*
X114948750Y-136724800D01*
X115238792Y-136531000D01*
X115682000Y-136531000D01*
X115682000Y-136940830D01*
X115789787Y-137201050D01*
X115988950Y-137400213D01*
X116249170Y-137508000D01*
X116494000Y-137508000D01*
X116671000Y-137331000D01*
X116671000Y-136354000D01*
X115859000Y-136354000D01*
X115682000Y-136531000D01*
X115238792Y-136531000D01*
X115413958Y-136413958D01*
X115492426Y-136296522D01*
X115700974Y-136087974D01*
X115859000Y-136246000D01*
X116671000Y-136246000D01*
X116671000Y-136226000D01*
X116779000Y-136226000D01*
X116779000Y-136246000D01*
X116799000Y-136246000D01*
X116799000Y-136354000D01*
X116779000Y-136354000D01*
X116779000Y-137331000D01*
X116956000Y-137508000D01*
X117200830Y-137508000D01*
X117364956Y-137440017D01*
X117419040Y-137520960D01*
X117749819Y-137741979D01*
X118140000Y-137819591D01*
X118810000Y-137819591D01*
X119200181Y-137741979D01*
X119530960Y-137520960D01*
X119751979Y-137190181D01*
X119829591Y-136800000D01*
X119829591Y-136305740D01*
X120020375Y-136496524D01*
X120098842Y-136613958D01*
X120564050Y-136924800D01*
X120974282Y-137006400D01*
X121112799Y-137033953D01*
X121251316Y-137006400D01*
X123861483Y-137006400D01*
X124000000Y-137033953D01*
X124138517Y-137006400D01*
X124138518Y-137006400D01*
X124548750Y-136924800D01*
X125013958Y-136613958D01*
X125092426Y-136496522D01*
X125157948Y-136431000D01*
X125682000Y-136431000D01*
X125682000Y-136840830D01*
X125789787Y-137101050D01*
X125988950Y-137300213D01*
X126249170Y-137408000D01*
X126494000Y-137408000D01*
X126671000Y-137231000D01*
X126671000Y-136254000D01*
X125859000Y-136254000D01*
X125682000Y-136431000D01*
X125157948Y-136431000D01*
X125682000Y-135906948D01*
X125682000Y-135969000D01*
X125682000Y-135969000D01*
G37*
X125682000Y-135969000D02*
X125859000Y-136146000D01*
X126671000Y-136146000D01*
X126671000Y-136126000D01*
X126779000Y-136126000D01*
X126779000Y-136146000D01*
X126799000Y-136146000D01*
X126799000Y-136254000D01*
X126779000Y-136254000D01*
X126779000Y-137231000D01*
X126956000Y-137408000D01*
X127200830Y-137408000D01*
X127364956Y-137340017D01*
X127419040Y-137420960D01*
X127749819Y-137641979D01*
X128140000Y-137719591D01*
X128810000Y-137719591D01*
X129200181Y-137641979D01*
X129530960Y-137420960D01*
X129751979Y-137090181D01*
X129829591Y-136700000D01*
X129829591Y-136305740D01*
X130420377Y-136896527D01*
X130498842Y-137013958D01*
X130964050Y-137324800D01*
X131374282Y-137406400D01*
X131374286Y-137406400D01*
X131512799Y-137433952D01*
X131651312Y-137406400D01*
X133661483Y-137406400D01*
X133800000Y-137433953D01*
X133938517Y-137406400D01*
X133938518Y-137406400D01*
X134348750Y-137324800D01*
X134813958Y-137013958D01*
X134892426Y-136896522D01*
X135257948Y-136531000D01*
X135682000Y-136531000D01*
X135682000Y-136940830D01*
X135789787Y-137201050D01*
X135988950Y-137400213D01*
X136249170Y-137508000D01*
X136494000Y-137508000D01*
X136671000Y-137331000D01*
X136671000Y-136354000D01*
X135859000Y-136354000D01*
X135682000Y-136531000D01*
X135257948Y-136531000D01*
X135700974Y-136087974D01*
X135859000Y-136246000D01*
X136671000Y-136246000D01*
X136671000Y-136226000D01*
X136779000Y-136226000D01*
X136779000Y-136246000D01*
X136799000Y-136246000D01*
X136799000Y-136354000D01*
X136779000Y-136354000D01*
X136779000Y-137331000D01*
X136956000Y-137508000D01*
X137200830Y-137508000D01*
X137364956Y-137440017D01*
X137419040Y-137520960D01*
X137749819Y-137741979D01*
X138140000Y-137819591D01*
X138810000Y-137819591D01*
X139200181Y-137741979D01*
X139530960Y-137520960D01*
X139751979Y-137190181D01*
X139829591Y-136800000D01*
X139829591Y-136305740D01*
X140220377Y-136696527D01*
X140298842Y-136813958D01*
X140416272Y-136892422D01*
X140764049Y-137124800D01*
X141254031Y-137222263D01*
X140899292Y-137459292D01*
X140826498Y-137568236D01*
X139894735Y-138500000D01*
X139462067Y-138500000D01*
X138763737Y-138789258D01*
X138229258Y-139323737D01*
X137940000Y-140022067D01*
X137940000Y-140777933D01*
X138031983Y-141000000D01*
X113535534Y-141000000D01*
X114119398Y-140416136D01*
X114500000Y-139497281D01*
X114500000Y-138502719D01*
X114119398Y-137583864D01*
X113416136Y-136880602D01*
X113236996Y-136806400D01*
X114261483Y-136806400D01*
X114400000Y-136833953D01*
X114538517Y-136806400D01*
X114538518Y-136806400D01*
X114948750Y-136724800D01*
X115238792Y-136531000D01*
X115682000Y-136531000D01*
X115682000Y-136940830D01*
X115789787Y-137201050D01*
X115988950Y-137400213D01*
X116249170Y-137508000D01*
X116494000Y-137508000D01*
X116671000Y-137331000D01*
X116671000Y-136354000D01*
X115859000Y-136354000D01*
X115682000Y-136531000D01*
X115238792Y-136531000D01*
X115413958Y-136413958D01*
X115492426Y-136296522D01*
X115700974Y-136087974D01*
X115859000Y-136246000D01*
X116671000Y-136246000D01*
X116671000Y-136226000D01*
X116779000Y-136226000D01*
X116779000Y-136246000D01*
X116799000Y-136246000D01*
X116799000Y-136354000D01*
X116779000Y-136354000D01*
X116779000Y-137331000D01*
X116956000Y-137508000D01*
X117200830Y-137508000D01*
X117364956Y-137440017D01*
X117419040Y-137520960D01*
X117749819Y-137741979D01*
X118140000Y-137819591D01*
X118810000Y-137819591D01*
X119200181Y-137741979D01*
X119530960Y-137520960D01*
X119751979Y-137190181D01*
X119829591Y-136800000D01*
X119829591Y-136305740D01*
X120020375Y-136496524D01*
X120098842Y-136613958D01*
X120564050Y-136924800D01*
X120974282Y-137006400D01*
X121112799Y-137033953D01*
X121251316Y-137006400D01*
X123861483Y-137006400D01*
X124000000Y-137033953D01*
X124138517Y-137006400D01*
X124138518Y-137006400D01*
X124548750Y-136924800D01*
X125013958Y-136613958D01*
X125092426Y-136496522D01*
X125157948Y-136431000D01*
X125682000Y-136431000D01*
X125682000Y-136840830D01*
X125789787Y-137101050D01*
X125988950Y-137300213D01*
X126249170Y-137408000D01*
X126494000Y-137408000D01*
X126671000Y-137231000D01*
X126671000Y-136254000D01*
X125859000Y-136254000D01*
X125682000Y-136431000D01*
X125157948Y-136431000D01*
X125682000Y-135906948D01*
X125682000Y-135969000D01*
G36*
X156779000Y-136246000D02*
X156799000Y-136246000D01*
X156799000Y-136354000D01*
X156779000Y-136354000D01*
X156779000Y-137331000D01*
X156956000Y-137508000D01*
X157200830Y-137508000D01*
X157364956Y-137440017D01*
X157419040Y-137520960D01*
X157749819Y-137741979D01*
X158140000Y-137819591D01*
X158810000Y-137819591D01*
X159200181Y-137741979D01*
X159530960Y-137520960D01*
X159751979Y-137190181D01*
X159829591Y-136800000D01*
X159829591Y-136305740D01*
X160020375Y-136496524D01*
X160098842Y-136613958D01*
X160564050Y-136924800D01*
X160974282Y-137006400D01*
X161112799Y-137033953D01*
X161251316Y-137006400D01*
X164461483Y-137006400D01*
X164600000Y-137033953D01*
X164738517Y-137006400D01*
X164738518Y-137006400D01*
X165148750Y-136924800D01*
X165613958Y-136613958D01*
X165692426Y-136496522D01*
X165834946Y-136354002D01*
X165858998Y-136354002D01*
X165682000Y-136531000D01*
X165682000Y-136940830D01*
X165789787Y-137201050D01*
X165988950Y-137400213D01*
X166249170Y-137508000D01*
X166494000Y-137508000D01*
X166671000Y-137331000D01*
X166671000Y-136354000D01*
X166651000Y-136354000D01*
X166651000Y-136246000D01*
X166671000Y-136246000D01*
X166671000Y-136226000D01*
X166779000Y-136226000D01*
X166779000Y-136246000D01*
X166799000Y-136246000D01*
X166799000Y-136354000D01*
X166779000Y-136354000D01*
X166779000Y-137331000D01*
X166956000Y-137508000D01*
X167200830Y-137508000D01*
X167364956Y-137440017D01*
X167419040Y-137520960D01*
X167749819Y-137741979D01*
X168140000Y-137819591D01*
X168810000Y-137819591D01*
X169200181Y-137741979D01*
X169530960Y-137520960D01*
X169751979Y-137190181D01*
X169829591Y-136800000D01*
X169829591Y-136305740D01*
X170020375Y-136496524D01*
X170098842Y-136613958D01*
X170564050Y-136924800D01*
X170974282Y-137006400D01*
X171112799Y-137033953D01*
X171251316Y-137006400D01*
X174461482Y-137006400D01*
X174600000Y-137033953D01*
X174738518Y-137006400D01*
X175148750Y-136924800D01*
X175613958Y-136613958D01*
X175718201Y-136457947D01*
X175822146Y-136354002D01*
X175858998Y-136354002D01*
X175682000Y-136531000D01*
X175682000Y-136940830D01*
X175789787Y-137201050D01*
X175988950Y-137400213D01*
X176249170Y-137508000D01*
X176494000Y-137508000D01*
X176671000Y-137331000D01*
X176671000Y-136354000D01*
X176651000Y-136354000D01*
X176651000Y-136246000D01*
X176671000Y-136246000D01*
X176671000Y-136226000D01*
X176779000Y-136226000D01*
X176779000Y-136246000D01*
X176799000Y-136246000D01*
X176799000Y-136354000D01*
X176779000Y-136354000D01*
X176779000Y-137331000D01*
X176956000Y-137508000D01*
X177200830Y-137508000D01*
X177364956Y-137440017D01*
X177419040Y-137520960D01*
X177749819Y-137741979D01*
X178140000Y-137819591D01*
X178810000Y-137819591D01*
X179200181Y-137741979D01*
X179530960Y-137520960D01*
X179751979Y-137190181D01*
X179829591Y-136800000D01*
X179829591Y-136305740D01*
X180020375Y-136496524D01*
X180098842Y-136613958D01*
X180564050Y-136924800D01*
X180974282Y-137006400D01*
X181112799Y-137033953D01*
X181251316Y-137006400D01*
X184448683Y-137006400D01*
X184587200Y-137033953D01*
X184725717Y-137006400D01*
X184725718Y-137006400D01*
X185135950Y-136924800D01*
X185601158Y-136613958D01*
X185607000Y-136605215D01*
X185607000Y-136940830D01*
X185714787Y-137201050D01*
X185913950Y-137400213D01*
X186174170Y-137508000D01*
X186419000Y-137508000D01*
X186596000Y-137331000D01*
X186596000Y-136354000D01*
X186576000Y-136354000D01*
X186576000Y-136246000D01*
X186596000Y-136246000D01*
X186596000Y-136226000D01*
X186704000Y-136226000D01*
X186704000Y-136246000D01*
X186724000Y-136246000D01*
X186724000Y-136354000D01*
X186704000Y-136354000D01*
X186704000Y-137331000D01*
X186881000Y-137508000D01*
X187125830Y-137508000D01*
X187289956Y-137440017D01*
X187344040Y-137520960D01*
X187674819Y-137741979D01*
X188065000Y-137819591D01*
X188735000Y-137819591D01*
X189125181Y-137741979D01*
X189455960Y-137520960D01*
X189676979Y-137190181D01*
X189754591Y-136800000D01*
X189754591Y-136230740D01*
X190220377Y-136696527D01*
X190298842Y-136813958D01*
X190416272Y-136892422D01*
X190509650Y-136954816D01*
X189880602Y-137583864D01*
X189500000Y-138502719D01*
X189500000Y-139497281D01*
X189880602Y-140416136D01*
X190464466Y-141000000D01*
X151919591Y-141000000D01*
X151919591Y-139500000D01*
X151841979Y-139109819D01*
X151829299Y-139090842D01*
X151831800Y-139084803D01*
X151831800Y-138515197D01*
X151726953Y-138262073D01*
X151724800Y-138251250D01*
X151718670Y-138242075D01*
X151613822Y-137988950D01*
X151420088Y-137795216D01*
X151413958Y-137786042D01*
X151404784Y-137779912D01*
X151211050Y-137586178D01*
X150957925Y-137481330D01*
X150948750Y-137475200D01*
X150937927Y-137473047D01*
X150684803Y-137368200D01*
X150410824Y-137368200D01*
X150400000Y-137366047D01*
X150389176Y-137368200D01*
X150115197Y-137368200D01*
X149862072Y-137473048D01*
X149851251Y-137475200D01*
X149842078Y-137481329D01*
X149588950Y-137586178D01*
X149395214Y-137779914D01*
X149386043Y-137786042D01*
X149379915Y-137795213D01*
X149186178Y-137988950D01*
X149081330Y-138242075D01*
X149075200Y-138251250D01*
X149073047Y-138262073D01*
X148972069Y-138505856D01*
X148709819Y-138558021D01*
X148379040Y-138779040D01*
X148241741Y-138984523D01*
X147790018Y-138794056D01*
X147188123Y-138790248D01*
X147231800Y-138684803D01*
X147231800Y-138115197D01*
X147013822Y-137588950D01*
X146779002Y-137354130D01*
X146779002Y-137331002D01*
X146956000Y-137508000D01*
X147200830Y-137508000D01*
X147364956Y-137440017D01*
X147419040Y-137520960D01*
X147749819Y-137741979D01*
X148140000Y-137819591D01*
X148810000Y-137819591D01*
X149200181Y-137741979D01*
X149530960Y-137520960D01*
X149751979Y-137190181D01*
X149829591Y-136800000D01*
X149829591Y-136305740D01*
X150220377Y-136696527D01*
X150298842Y-136813958D01*
X150416272Y-136892422D01*
X150764049Y-137124800D01*
X151312800Y-137233953D01*
X151451318Y-137206400D01*
X154061483Y-137206400D01*
X154200000Y-137233953D01*
X154338517Y-137206400D01*
X154338518Y-137206400D01*
X154748750Y-137124800D01*
X155213958Y-136813958D01*
X155292426Y-136696522D01*
X155682000Y-136306948D01*
X155682000Y-136354002D01*
X155858998Y-136354002D01*
X155682000Y-136531000D01*
X155682000Y-136940830D01*
X155789787Y-137201050D01*
X155988950Y-137400213D01*
X156249170Y-137508000D01*
X156494000Y-137508000D01*
X156671000Y-137331000D01*
X156671000Y-136354000D01*
X156651000Y-136354000D01*
X156651000Y-136246000D01*
X156671000Y-136246000D01*
X156671000Y-136226000D01*
X156779000Y-136226000D01*
X156779000Y-136246000D01*
X156779000Y-136246000D01*
G37*
X156779000Y-136246000D02*
X156799000Y-136246000D01*
X156799000Y-136354000D01*
X156779000Y-136354000D01*
X156779000Y-137331000D01*
X156956000Y-137508000D01*
X157200830Y-137508000D01*
X157364956Y-137440017D01*
X157419040Y-137520960D01*
X157749819Y-137741979D01*
X158140000Y-137819591D01*
X158810000Y-137819591D01*
X159200181Y-137741979D01*
X159530960Y-137520960D01*
X159751979Y-137190181D01*
X159829591Y-136800000D01*
X159829591Y-136305740D01*
X160020375Y-136496524D01*
X160098842Y-136613958D01*
X160564050Y-136924800D01*
X160974282Y-137006400D01*
X161112799Y-137033953D01*
X161251316Y-137006400D01*
X164461483Y-137006400D01*
X164600000Y-137033953D01*
X164738517Y-137006400D01*
X164738518Y-137006400D01*
X165148750Y-136924800D01*
X165613958Y-136613958D01*
X165692426Y-136496522D01*
X165834946Y-136354002D01*
X165858998Y-136354002D01*
X165682000Y-136531000D01*
X165682000Y-136940830D01*
X165789787Y-137201050D01*
X165988950Y-137400213D01*
X166249170Y-137508000D01*
X166494000Y-137508000D01*
X166671000Y-137331000D01*
X166671000Y-136354000D01*
X166651000Y-136354000D01*
X166651000Y-136246000D01*
X166671000Y-136246000D01*
X166671000Y-136226000D01*
X166779000Y-136226000D01*
X166779000Y-136246000D01*
X166799000Y-136246000D01*
X166799000Y-136354000D01*
X166779000Y-136354000D01*
X166779000Y-137331000D01*
X166956000Y-137508000D01*
X167200830Y-137508000D01*
X167364956Y-137440017D01*
X167419040Y-137520960D01*
X167749819Y-137741979D01*
X168140000Y-137819591D01*
X168810000Y-137819591D01*
X169200181Y-137741979D01*
X169530960Y-137520960D01*
X169751979Y-137190181D01*
X169829591Y-136800000D01*
X169829591Y-136305740D01*
X170020375Y-136496524D01*
X170098842Y-136613958D01*
X170564050Y-136924800D01*
X170974282Y-137006400D01*
X171112799Y-137033953D01*
X171251316Y-137006400D01*
X174461482Y-137006400D01*
X174600000Y-137033953D01*
X174738518Y-137006400D01*
X175148750Y-136924800D01*
X175613958Y-136613958D01*
X175718201Y-136457947D01*
X175822146Y-136354002D01*
X175858998Y-136354002D01*
X175682000Y-136531000D01*
X175682000Y-136940830D01*
X175789787Y-137201050D01*
X175988950Y-137400213D01*
X176249170Y-137508000D01*
X176494000Y-137508000D01*
X176671000Y-137331000D01*
X176671000Y-136354000D01*
X176651000Y-136354000D01*
X176651000Y-136246000D01*
X176671000Y-136246000D01*
X176671000Y-136226000D01*
X176779000Y-136226000D01*
X176779000Y-136246000D01*
X176799000Y-136246000D01*
X176799000Y-136354000D01*
X176779000Y-136354000D01*
X176779000Y-137331000D01*
X176956000Y-137508000D01*
X177200830Y-137508000D01*
X177364956Y-137440017D01*
X177419040Y-137520960D01*
X177749819Y-137741979D01*
X178140000Y-137819591D01*
X178810000Y-137819591D01*
X179200181Y-137741979D01*
X179530960Y-137520960D01*
X179751979Y-137190181D01*
X179829591Y-136800000D01*
X179829591Y-136305740D01*
X180020375Y-136496524D01*
X180098842Y-136613958D01*
X180564050Y-136924800D01*
X180974282Y-137006400D01*
X181112799Y-137033953D01*
X181251316Y-137006400D01*
X184448683Y-137006400D01*
X184587200Y-137033953D01*
X184725717Y-137006400D01*
X184725718Y-137006400D01*
X185135950Y-136924800D01*
X185601158Y-136613958D01*
X185607000Y-136605215D01*
X185607000Y-136940830D01*
X185714787Y-137201050D01*
X185913950Y-137400213D01*
X186174170Y-137508000D01*
X186419000Y-137508000D01*
X186596000Y-137331000D01*
X186596000Y-136354000D01*
X186576000Y-136354000D01*
X186576000Y-136246000D01*
X186596000Y-136246000D01*
X186596000Y-136226000D01*
X186704000Y-136226000D01*
X186704000Y-136246000D01*
X186724000Y-136246000D01*
X186724000Y-136354000D01*
X186704000Y-136354000D01*
X186704000Y-137331000D01*
X186881000Y-137508000D01*
X187125830Y-137508000D01*
X187289956Y-137440017D01*
X187344040Y-137520960D01*
X187674819Y-137741979D01*
X188065000Y-137819591D01*
X188735000Y-137819591D01*
X189125181Y-137741979D01*
X189455960Y-137520960D01*
X189676979Y-137190181D01*
X189754591Y-136800000D01*
X189754591Y-136230740D01*
X190220377Y-136696527D01*
X190298842Y-136813958D01*
X190416272Y-136892422D01*
X190509650Y-136954816D01*
X189880602Y-137583864D01*
X189500000Y-138502719D01*
X189500000Y-139497281D01*
X189880602Y-140416136D01*
X190464466Y-141000000D01*
X151919591Y-141000000D01*
X151919591Y-139500000D01*
X151841979Y-139109819D01*
X151829299Y-139090842D01*
X151831800Y-139084803D01*
X151831800Y-138515197D01*
X151726953Y-138262073D01*
X151724800Y-138251250D01*
X151718670Y-138242075D01*
X151613822Y-137988950D01*
X151420088Y-137795216D01*
X151413958Y-137786042D01*
X151404784Y-137779912D01*
X151211050Y-137586178D01*
X150957925Y-137481330D01*
X150948750Y-137475200D01*
X150937927Y-137473047D01*
X150684803Y-137368200D01*
X150410824Y-137368200D01*
X150400000Y-137366047D01*
X150389176Y-137368200D01*
X150115197Y-137368200D01*
X149862072Y-137473048D01*
X149851251Y-137475200D01*
X149842078Y-137481329D01*
X149588950Y-137586178D01*
X149395214Y-137779914D01*
X149386043Y-137786042D01*
X149379915Y-137795213D01*
X149186178Y-137988950D01*
X149081330Y-138242075D01*
X149075200Y-138251250D01*
X149073047Y-138262073D01*
X148972069Y-138505856D01*
X148709819Y-138558021D01*
X148379040Y-138779040D01*
X148241741Y-138984523D01*
X147790018Y-138794056D01*
X147188123Y-138790248D01*
X147231800Y-138684803D01*
X147231800Y-138115197D01*
X147013822Y-137588950D01*
X146779002Y-137354130D01*
X146779002Y-137331002D01*
X146956000Y-137508000D01*
X147200830Y-137508000D01*
X147364956Y-137440017D01*
X147419040Y-137520960D01*
X147749819Y-137741979D01*
X148140000Y-137819591D01*
X148810000Y-137819591D01*
X149200181Y-137741979D01*
X149530960Y-137520960D01*
X149751979Y-137190181D01*
X149829591Y-136800000D01*
X149829591Y-136305740D01*
X150220377Y-136696527D01*
X150298842Y-136813958D01*
X150416272Y-136892422D01*
X150764049Y-137124800D01*
X151312800Y-137233953D01*
X151451318Y-137206400D01*
X154061483Y-137206400D01*
X154200000Y-137233953D01*
X154338517Y-137206400D01*
X154338518Y-137206400D01*
X154748750Y-137124800D01*
X155213958Y-136813958D01*
X155292426Y-136696522D01*
X155682000Y-136306948D01*
X155682000Y-136354002D01*
X155858998Y-136354002D01*
X155682000Y-136531000D01*
X155682000Y-136940830D01*
X155789787Y-137201050D01*
X155988950Y-137400213D01*
X156249170Y-137508000D01*
X156494000Y-137508000D01*
X156671000Y-137331000D01*
X156671000Y-136354000D01*
X156651000Y-136354000D01*
X156651000Y-136246000D01*
X156671000Y-136246000D01*
X156671000Y-136226000D01*
X156779000Y-136226000D01*
X156779000Y-136246000D01*
G36*
X147550510Y-140385858D02*
X147536368Y-140400000D01*
X147550510Y-140414142D01*
X147474142Y-140490510D01*
X147460000Y-140476368D01*
X147445858Y-140490510D01*
X147369490Y-140414142D01*
X147383632Y-140400000D01*
X147369490Y-140385858D01*
X147445858Y-140309490D01*
X147460000Y-140323632D01*
X147474142Y-140309490D01*
X147550510Y-140385858D01*
X147550510Y-140385858D01*
G37*
X147550510Y-140385858D02*
X147536368Y-140400000D01*
X147550510Y-140414142D01*
X147474142Y-140490510D01*
X147460000Y-140476368D01*
X147445858Y-140490510D01*
X147369490Y-140414142D01*
X147383632Y-140400000D01*
X147369490Y-140385858D01*
X147445858Y-140309490D01*
X147460000Y-140323632D01*
X147474142Y-140309490D01*
X147550510Y-140385858D01*
G36*
X145682000Y-136531000D02*
X145682000Y-136940830D01*
X145693337Y-136968200D01*
X145515197Y-136968200D01*
X145208591Y-137095200D01*
X144993050Y-137095200D01*
X145413958Y-136813958D01*
X145518201Y-136657947D01*
X145822147Y-136354002D01*
X145858998Y-136354002D01*
X145682000Y-136531000D01*
X145682000Y-136531000D01*
G37*
X145682000Y-136531000D02*
X145682000Y-136940830D01*
X145693337Y-136968200D01*
X145515197Y-136968200D01*
X145208591Y-137095200D01*
X144993050Y-137095200D01*
X145413958Y-136813958D01*
X145518201Y-136657947D01*
X145822147Y-136354002D01*
X145858998Y-136354002D01*
X145682000Y-136531000D01*
G36*
X146779000Y-136246000D02*
X146799000Y-136246000D01*
X146799000Y-136354000D01*
X146779000Y-136354000D01*
X146779000Y-136374000D01*
X146671000Y-136374000D01*
X146671000Y-136354000D01*
X146651000Y-136354000D01*
X146651000Y-136246000D01*
X146671000Y-136246000D01*
X146671000Y-136226000D01*
X146779000Y-136226000D01*
X146779000Y-136246000D01*
X146779000Y-136246000D01*
G37*
X146779000Y-136246000D02*
X146799000Y-136246000D01*
X146799000Y-136354000D01*
X146779000Y-136354000D01*
X146779000Y-136374000D01*
X146671000Y-136374000D01*
X146671000Y-136354000D01*
X146651000Y-136354000D01*
X146651000Y-136246000D01*
X146671000Y-136246000D01*
X146671000Y-136226000D01*
X146779000Y-136226000D01*
X146779000Y-136246000D01*
G36*
X185832897Y-101006557D02*
X187428820Y-101693783D01*
X188960227Y-102514825D01*
X190415885Y-103463662D01*
X191785191Y-104533378D01*
X193058109Y-105716138D01*
X194225352Y-107003308D01*
X195278383Y-108385476D01*
X196209504Y-109852536D01*
X197011913Y-111393775D01*
X197679741Y-112997922D01*
X198208108Y-114653249D01*
X198504748Y-115958637D01*
X198554641Y-129180409D01*
X197100000Y-129180409D01*
X196709819Y-129258021D01*
X196379040Y-129479040D01*
X196158021Y-129809819D01*
X196080409Y-130200000D01*
X196080409Y-131200000D01*
X196158021Y-131590181D01*
X196379040Y-131920960D01*
X196709819Y-132141979D01*
X197100000Y-132219591D01*
X198566110Y-132219591D01*
X198566716Y-132380409D01*
X197100000Y-132380409D01*
X196709819Y-132458021D01*
X196656571Y-132493600D01*
X196425718Y-132493600D01*
X196287200Y-132466047D01*
X195738449Y-132575200D01*
X195669257Y-132621433D01*
X195273242Y-132886042D01*
X195194778Y-133003472D01*
X194719591Y-133478660D01*
X194719591Y-133400000D01*
X194641979Y-133009819D01*
X194420960Y-132679040D01*
X194090181Y-132458021D01*
X193700000Y-132380409D01*
X192200000Y-132380409D01*
X191809819Y-132458021D01*
X191528488Y-132646000D01*
X191419424Y-132646000D01*
X189704424Y-130931000D01*
X191492000Y-130931000D01*
X191492000Y-131340830D01*
X191599787Y-131601050D01*
X191798950Y-131800213D01*
X192059170Y-131908000D01*
X192719000Y-131908000D01*
X192896000Y-131731000D01*
X192896000Y-130754000D01*
X193004000Y-130754000D01*
X193004000Y-131731000D01*
X193181000Y-131908000D01*
X193840830Y-131908000D01*
X194101050Y-131800213D01*
X194300213Y-131601050D01*
X194408000Y-131340830D01*
X194408000Y-130931000D01*
X194231000Y-130754000D01*
X193004000Y-130754000D01*
X192896000Y-130754000D01*
X191669000Y-130754000D01*
X191492000Y-130931000D01*
X189704424Y-130931000D01*
X189619591Y-130846168D01*
X189619591Y-130200000D01*
X189591579Y-130059170D01*
X191492000Y-130059170D01*
X191492000Y-130469000D01*
X191669000Y-130646000D01*
X192896000Y-130646000D01*
X192896000Y-129669000D01*
X193004000Y-129669000D01*
X193004000Y-130646000D01*
X194231000Y-130646000D01*
X194408000Y-130469000D01*
X194408000Y-130059170D01*
X194300213Y-129798950D01*
X194101050Y-129599787D01*
X193840830Y-129492000D01*
X193181000Y-129492000D01*
X193004000Y-129669000D01*
X192896000Y-129669000D01*
X192719000Y-129492000D01*
X192059170Y-129492000D01*
X191798950Y-129599787D01*
X191599787Y-129798950D01*
X191492000Y-130059170D01*
X189591579Y-130059170D01*
X189541979Y-129809819D01*
X189320960Y-129479040D01*
X188990181Y-129258021D01*
X188600000Y-129180409D01*
X187100000Y-129180409D01*
X186709819Y-129258021D01*
X186379040Y-129479040D01*
X186158021Y-129809819D01*
X186080409Y-130200000D01*
X186080409Y-131200000D01*
X186158021Y-131590181D01*
X186379040Y-131920960D01*
X186709819Y-132141979D01*
X187100000Y-132219591D01*
X187446168Y-132219591D01*
X187606986Y-132380409D01*
X187100000Y-132380409D01*
X186709819Y-132458021D01*
X186656571Y-132493600D01*
X186425716Y-132493600D01*
X186287199Y-132466047D01*
X186148682Y-132493600D01*
X185738450Y-132575200D01*
X185273242Y-132886042D01*
X185194775Y-133003476D01*
X184719591Y-133478660D01*
X184719591Y-133400000D01*
X184641979Y-133009819D01*
X184420960Y-132679040D01*
X184090181Y-132458021D01*
X183700000Y-132380409D01*
X182200000Y-132380409D01*
X181809819Y-132458021D01*
X181702891Y-132529468D01*
X180104423Y-130931000D01*
X181492000Y-130931000D01*
X181492000Y-131340830D01*
X181599787Y-131601050D01*
X181798950Y-131800213D01*
X182059170Y-131908000D01*
X182719000Y-131908000D01*
X182896000Y-131731000D01*
X182896000Y-130754000D01*
X183004000Y-130754000D01*
X183004000Y-131731000D01*
X183181000Y-131908000D01*
X183840830Y-131908000D01*
X184101050Y-131800213D01*
X184300213Y-131601050D01*
X184408000Y-131340830D01*
X184408000Y-130931000D01*
X184231000Y-130754000D01*
X183004000Y-130754000D01*
X182896000Y-130754000D01*
X181669000Y-130754000D01*
X181492000Y-130931000D01*
X180104423Y-130931000D01*
X179619591Y-130446168D01*
X179619591Y-130200000D01*
X179591579Y-130059170D01*
X181492000Y-130059170D01*
X181492000Y-130469000D01*
X181669000Y-130646000D01*
X182896000Y-130646000D01*
X182896000Y-129669000D01*
X183004000Y-129669000D01*
X183004000Y-130646000D01*
X184231000Y-130646000D01*
X184408000Y-130469000D01*
X184408000Y-130059170D01*
X184300213Y-129798950D01*
X184101050Y-129599787D01*
X183840830Y-129492000D01*
X183181000Y-129492000D01*
X183004000Y-129669000D01*
X182896000Y-129669000D01*
X182719000Y-129492000D01*
X182059170Y-129492000D01*
X181798950Y-129599787D01*
X181599787Y-129798950D01*
X181492000Y-130059170D01*
X179591579Y-130059170D01*
X179541979Y-129809819D01*
X179320960Y-129479040D01*
X178990181Y-129258021D01*
X178600000Y-129180409D01*
X177100000Y-129180409D01*
X176709819Y-129258021D01*
X176379040Y-129479040D01*
X176158021Y-129809819D01*
X176080409Y-130200000D01*
X176080409Y-131200000D01*
X176158021Y-131590181D01*
X176379040Y-131920960D01*
X176709819Y-132141979D01*
X177100000Y-132219591D01*
X177846168Y-132219591D01*
X178006986Y-132380409D01*
X177100000Y-132380409D01*
X176709819Y-132458021D01*
X176656571Y-132493600D01*
X176425716Y-132493600D01*
X176287199Y-132466047D01*
X176148682Y-132493600D01*
X175738450Y-132575200D01*
X175273242Y-132886042D01*
X175194778Y-133003472D01*
X174719591Y-133478660D01*
X174719591Y-133400000D01*
X174641979Y-133009819D01*
X174420960Y-132679040D01*
X174090181Y-132458021D01*
X173700000Y-132380409D01*
X172353833Y-132380409D01*
X170904424Y-130931000D01*
X171492000Y-130931000D01*
X171492000Y-131340830D01*
X171599787Y-131601050D01*
X171798950Y-131800213D01*
X172059170Y-131908000D01*
X172719000Y-131908000D01*
X172896000Y-131731000D01*
X172896000Y-130754000D01*
X173004000Y-130754000D01*
X173004000Y-131731000D01*
X173181000Y-131908000D01*
X173840830Y-131908000D01*
X174101050Y-131800213D01*
X174300213Y-131601050D01*
X174408000Y-131340830D01*
X174408000Y-130931000D01*
X174231000Y-130754000D01*
X173004000Y-130754000D01*
X172896000Y-130754000D01*
X171669000Y-130754000D01*
X171492000Y-130931000D01*
X170904424Y-130931000D01*
X170032594Y-130059170D01*
X171492000Y-130059170D01*
X171492000Y-130469000D01*
X171669000Y-130646000D01*
X172896000Y-130646000D01*
X172896000Y-129669000D01*
X173004000Y-129669000D01*
X173004000Y-130646000D01*
X174231000Y-130646000D01*
X174408000Y-130469000D01*
X174408000Y-130059170D01*
X174300213Y-129798950D01*
X174101050Y-129599787D01*
X173840830Y-129492000D01*
X173181000Y-129492000D01*
X173004000Y-129669000D01*
X172896000Y-129669000D01*
X172719000Y-129492000D01*
X172059170Y-129492000D01*
X171798950Y-129599787D01*
X171599787Y-129798950D01*
X171492000Y-130059170D01*
X170032594Y-130059170D01*
X169874044Y-129900621D01*
X169804083Y-129795917D01*
X169389286Y-129518758D01*
X169341093Y-129509172D01*
X169320960Y-129479040D01*
X168990181Y-129258021D01*
X168600000Y-129180409D01*
X167100000Y-129180409D01*
X166709819Y-129258021D01*
X166379040Y-129479040D01*
X166158021Y-129809819D01*
X166080409Y-130200000D01*
X166080409Y-131200000D01*
X166158021Y-131590181D01*
X166379040Y-131920960D01*
X166709819Y-132141979D01*
X167100000Y-132219591D01*
X168600000Y-132219591D01*
X168638508Y-132211931D01*
X168858381Y-132431804D01*
X168600000Y-132380409D01*
X167100000Y-132380409D01*
X166709819Y-132458021D01*
X166656571Y-132493600D01*
X166438516Y-132493600D01*
X166299999Y-132466047D01*
X166161482Y-132493600D01*
X165751250Y-132575200D01*
X165286042Y-132886042D01*
X165207575Y-133003476D01*
X164719591Y-133491460D01*
X164719591Y-133400000D01*
X164641979Y-133009819D01*
X164420960Y-132679040D01*
X164090181Y-132458021D01*
X163700000Y-132380409D01*
X162200000Y-132380409D01*
X162161492Y-132388069D01*
X160704423Y-130931000D01*
X161492000Y-130931000D01*
X161492000Y-131340830D01*
X161599787Y-131601050D01*
X161798950Y-131800213D01*
X162059170Y-131908000D01*
X162719000Y-131908000D01*
X162896000Y-131731000D01*
X162896000Y-130754000D01*
X163004000Y-130754000D01*
X163004000Y-131731000D01*
X163181000Y-131908000D01*
X163840830Y-131908000D01*
X164101050Y-131800213D01*
X164300213Y-131601050D01*
X164408000Y-131340830D01*
X164408000Y-130931000D01*
X164231000Y-130754000D01*
X163004000Y-130754000D01*
X162896000Y-130754000D01*
X161669000Y-130754000D01*
X161492000Y-130931000D01*
X160704423Y-130931000D01*
X159832593Y-130059170D01*
X161492000Y-130059170D01*
X161492000Y-130469000D01*
X161669000Y-130646000D01*
X162896000Y-130646000D01*
X162896000Y-129669000D01*
X163004000Y-129669000D01*
X163004000Y-130646000D01*
X164231000Y-130646000D01*
X164408000Y-130469000D01*
X164408000Y-130059170D01*
X164300213Y-129798950D01*
X164101050Y-129599787D01*
X163840830Y-129492000D01*
X163181000Y-129492000D01*
X163004000Y-129669000D01*
X162896000Y-129669000D01*
X162719000Y-129492000D01*
X162059170Y-129492000D01*
X161798950Y-129599787D01*
X161599787Y-129798950D01*
X161492000Y-130059170D01*
X159832593Y-130059170D01*
X159674044Y-129900621D01*
X159604083Y-129795917D01*
X159475107Y-129709738D01*
X159320960Y-129479040D01*
X158990181Y-129258021D01*
X158600000Y-129180409D01*
X157100000Y-129180409D01*
X156709819Y-129258021D01*
X156379040Y-129479040D01*
X156158021Y-129809819D01*
X156080409Y-130200000D01*
X156080409Y-131200000D01*
X156158021Y-131590181D01*
X156379040Y-131920960D01*
X156709819Y-132141979D01*
X157100000Y-132219591D01*
X158446168Y-132219591D01*
X158608720Y-132382144D01*
X158600000Y-132380409D01*
X157100000Y-132380409D01*
X156709819Y-132458021D01*
X156656571Y-132493600D01*
X156238518Y-132493600D01*
X156100000Y-132466047D01*
X155551249Y-132575200D01*
X155482057Y-132621433D01*
X155086042Y-132886042D01*
X155007578Y-133003472D01*
X154701583Y-133309468D01*
X154641979Y-133009819D01*
X154420960Y-132679040D01*
X154090181Y-132458021D01*
X153700000Y-132380409D01*
X152353833Y-132380409D01*
X150904424Y-130931000D01*
X151492000Y-130931000D01*
X151492000Y-131340830D01*
X151599787Y-131601050D01*
X151798950Y-131800213D01*
X152059170Y-131908000D01*
X152719000Y-131908000D01*
X152896000Y-131731000D01*
X152896000Y-130754000D01*
X153004000Y-130754000D01*
X153004000Y-131731000D01*
X153181000Y-131908000D01*
X153840830Y-131908000D01*
X154101050Y-131800213D01*
X154300213Y-131601050D01*
X154408000Y-131340830D01*
X154408000Y-130931000D01*
X154231000Y-130754000D01*
X153004000Y-130754000D01*
X152896000Y-130754000D01*
X151669000Y-130754000D01*
X151492000Y-130931000D01*
X150904424Y-130931000D01*
X150032594Y-130059170D01*
X151492000Y-130059170D01*
X151492000Y-130469000D01*
X151669000Y-130646000D01*
X152896000Y-130646000D01*
X152896000Y-129669000D01*
X153004000Y-129669000D01*
X153004000Y-130646000D01*
X154231000Y-130646000D01*
X154408000Y-130469000D01*
X154408000Y-130059170D01*
X154300213Y-129798950D01*
X154101050Y-129599787D01*
X153840830Y-129492000D01*
X153181000Y-129492000D01*
X153004000Y-129669000D01*
X152896000Y-129669000D01*
X152719000Y-129492000D01*
X152059170Y-129492000D01*
X151798950Y-129599787D01*
X151599787Y-129798950D01*
X151492000Y-130059170D01*
X150032594Y-130059170D01*
X149874044Y-129900621D01*
X149804083Y-129795917D01*
X149389286Y-129518758D01*
X149341093Y-129509172D01*
X149320960Y-129479040D01*
X148990181Y-129258021D01*
X148600000Y-129180409D01*
X147100000Y-129180409D01*
X146709819Y-129258021D01*
X146379040Y-129479040D01*
X146158021Y-129809819D01*
X146080409Y-130200000D01*
X146080409Y-131200000D01*
X146158021Y-131590181D01*
X146379040Y-131920960D01*
X146709819Y-132141979D01*
X147100000Y-132219591D01*
X148600000Y-132219591D01*
X148638508Y-132211931D01*
X148858381Y-132431804D01*
X148600000Y-132380409D01*
X147100000Y-132380409D01*
X146709819Y-132458021D01*
X146656571Y-132493600D01*
X146425718Y-132493600D01*
X146287200Y-132466047D01*
X145738449Y-132575200D01*
X145669257Y-132621433D01*
X145273242Y-132886042D01*
X145194778Y-133003472D01*
X144719591Y-133478660D01*
X144719591Y-133400000D01*
X144641979Y-133009819D01*
X144420960Y-132679040D01*
X144090181Y-132458021D01*
X143700000Y-132380409D01*
X142200000Y-132380409D01*
X142161492Y-132388069D01*
X140704423Y-130931000D01*
X141492000Y-130931000D01*
X141492000Y-131340830D01*
X141599787Y-131601050D01*
X141798950Y-131800213D01*
X142059170Y-131908000D01*
X142719000Y-131908000D01*
X142896000Y-131731000D01*
X142896000Y-130754000D01*
X143004000Y-130754000D01*
X143004000Y-131731000D01*
X143181000Y-131908000D01*
X143840830Y-131908000D01*
X144101050Y-131800213D01*
X144300213Y-131601050D01*
X144408000Y-131340830D01*
X144408000Y-130931000D01*
X144231000Y-130754000D01*
X143004000Y-130754000D01*
X142896000Y-130754000D01*
X141669000Y-130754000D01*
X141492000Y-130931000D01*
X140704423Y-130931000D01*
X139832593Y-130059170D01*
X141492000Y-130059170D01*
X141492000Y-130469000D01*
X141669000Y-130646000D01*
X142896000Y-130646000D01*
X142896000Y-129669000D01*
X143004000Y-129669000D01*
X143004000Y-130646000D01*
X144231000Y-130646000D01*
X144408000Y-130469000D01*
X144408000Y-130059170D01*
X144300213Y-129798950D01*
X144101050Y-129599787D01*
X143840830Y-129492000D01*
X143181000Y-129492000D01*
X143004000Y-129669000D01*
X142896000Y-129669000D01*
X142719000Y-129492000D01*
X142059170Y-129492000D01*
X141798950Y-129599787D01*
X141599787Y-129798950D01*
X141492000Y-130059170D01*
X139832593Y-130059170D01*
X139674044Y-129900621D01*
X139604083Y-129795917D01*
X139475107Y-129709738D01*
X139320960Y-129479040D01*
X138990181Y-129258021D01*
X138600000Y-129180409D01*
X137100000Y-129180409D01*
X136709819Y-129258021D01*
X136379040Y-129479040D01*
X136158021Y-129809819D01*
X136080409Y-130200000D01*
X136080409Y-131200000D01*
X136158021Y-131590181D01*
X136379040Y-131920960D01*
X136709819Y-132141979D01*
X137100000Y-132219591D01*
X138446168Y-132219591D01*
X138608720Y-132382144D01*
X138600000Y-132380409D01*
X137100000Y-132380409D01*
X136709819Y-132458021D01*
X136656571Y-132493600D01*
X136038512Y-132493600D01*
X135899999Y-132466048D01*
X135761486Y-132493600D01*
X135761482Y-132493600D01*
X135351250Y-132575200D01*
X134886042Y-132886042D01*
X134807578Y-133003472D01*
X134668401Y-133142650D01*
X134641979Y-133009819D01*
X134420960Y-132679040D01*
X134090181Y-132458021D01*
X133700000Y-132380409D01*
X132200000Y-132380409D01*
X132161492Y-132388069D01*
X130704423Y-130931000D01*
X131492000Y-130931000D01*
X131492000Y-131340830D01*
X131599787Y-131601050D01*
X131798950Y-131800213D01*
X132059170Y-131908000D01*
X132719000Y-131908000D01*
X132896000Y-131731000D01*
X132896000Y-130754000D01*
X133004000Y-130754000D01*
X133004000Y-131731000D01*
X133181000Y-131908000D01*
X133840830Y-131908000D01*
X134101050Y-131800213D01*
X134300213Y-131601050D01*
X134408000Y-131340830D01*
X134408000Y-130931000D01*
X134231000Y-130754000D01*
X133004000Y-130754000D01*
X132896000Y-130754000D01*
X131669000Y-130754000D01*
X131492000Y-130931000D01*
X130704423Y-130931000D01*
X129832593Y-130059170D01*
X131492000Y-130059170D01*
X131492000Y-130469000D01*
X131669000Y-130646000D01*
X132896000Y-130646000D01*
X132896000Y-129669000D01*
X133004000Y-129669000D01*
X133004000Y-130646000D01*
X134231000Y-130646000D01*
X134408000Y-130469000D01*
X134408000Y-130059170D01*
X134300213Y-129798950D01*
X134101050Y-129599787D01*
X133840830Y-129492000D01*
X133181000Y-129492000D01*
X133004000Y-129669000D01*
X132896000Y-129669000D01*
X132719000Y-129492000D01*
X132059170Y-129492000D01*
X131798950Y-129599787D01*
X131599787Y-129798950D01*
X131492000Y-130059170D01*
X129832593Y-130059170D01*
X129674044Y-129900621D01*
X129604083Y-129795917D01*
X129475107Y-129709738D01*
X129320960Y-129479040D01*
X128990181Y-129258021D01*
X128600000Y-129180409D01*
X127100000Y-129180409D01*
X126709819Y-129258021D01*
X126379040Y-129479040D01*
X126158021Y-129809819D01*
X126080409Y-130200000D01*
X126080409Y-131200000D01*
X126158021Y-131590181D01*
X126379040Y-131920960D01*
X126709819Y-132141979D01*
X127100000Y-132219591D01*
X128446168Y-132219591D01*
X128608720Y-132382144D01*
X128600000Y-132380409D01*
X127100000Y-132380409D01*
X126709819Y-132458021D01*
X126656571Y-132493600D01*
X125838516Y-132493600D01*
X125699999Y-132466047D01*
X125561482Y-132493600D01*
X125151250Y-132575200D01*
X124686042Y-132886042D01*
X124622658Y-132980903D01*
X124420960Y-132679040D01*
X124090181Y-132458021D01*
X123700000Y-132380409D01*
X122200000Y-132380409D01*
X122161492Y-132388069D01*
X120704423Y-130931000D01*
X121492000Y-130931000D01*
X121492000Y-131340830D01*
X121599787Y-131601050D01*
X121798950Y-131800213D01*
X122059170Y-131908000D01*
X122719000Y-131908000D01*
X122896000Y-131731000D01*
X122896000Y-130754000D01*
X123004000Y-130754000D01*
X123004000Y-131731000D01*
X123181000Y-131908000D01*
X123840830Y-131908000D01*
X124101050Y-131800213D01*
X124300213Y-131601050D01*
X124408000Y-131340830D01*
X124408000Y-130931000D01*
X124231000Y-130754000D01*
X123004000Y-130754000D01*
X122896000Y-130754000D01*
X121669000Y-130754000D01*
X121492000Y-130931000D01*
X120704423Y-130931000D01*
X119832593Y-130059170D01*
X121492000Y-130059170D01*
X121492000Y-130469000D01*
X121669000Y-130646000D01*
X122896000Y-130646000D01*
X122896000Y-129669000D01*
X123004000Y-129669000D01*
X123004000Y-130646000D01*
X124231000Y-130646000D01*
X124408000Y-130469000D01*
X124408000Y-130059170D01*
X124300213Y-129798950D01*
X124101050Y-129599787D01*
X123840830Y-129492000D01*
X123181000Y-129492000D01*
X123004000Y-129669000D01*
X122896000Y-129669000D01*
X122719000Y-129492000D01*
X122059170Y-129492000D01*
X121798950Y-129599787D01*
X121599787Y-129798950D01*
X121492000Y-130059170D01*
X119832593Y-130059170D01*
X119674044Y-129900621D01*
X119604083Y-129795917D01*
X119475107Y-129709738D01*
X119320960Y-129479040D01*
X118990181Y-129258021D01*
X118600000Y-129180409D01*
X117100000Y-129180409D01*
X116709819Y-129258021D01*
X116379040Y-129479040D01*
X116158021Y-129809819D01*
X116080409Y-130200000D01*
X116080409Y-131200000D01*
X116158021Y-131590181D01*
X116379040Y-131920960D01*
X116709819Y-132141979D01*
X117100000Y-132219591D01*
X118446168Y-132219591D01*
X118608720Y-132382144D01*
X118600000Y-132380409D01*
X117100000Y-132380409D01*
X116709819Y-132458021D01*
X116656571Y-132493600D01*
X116038512Y-132493600D01*
X115899999Y-132466048D01*
X115761486Y-132493600D01*
X115761482Y-132493600D01*
X115351250Y-132575200D01*
X114886042Y-132886042D01*
X114807578Y-133003472D01*
X114668401Y-133142650D01*
X114641979Y-133009819D01*
X114420960Y-132679040D01*
X114090181Y-132458021D01*
X113700000Y-132380409D01*
X112200000Y-132380409D01*
X112161492Y-132388069D01*
X110704423Y-130931000D01*
X111492000Y-130931000D01*
X111492000Y-131340830D01*
X111599787Y-131601050D01*
X111798950Y-131800213D01*
X112059170Y-131908000D01*
X112719000Y-131908000D01*
X112896000Y-131731000D01*
X112896000Y-130754000D01*
X113004000Y-130754000D01*
X113004000Y-131731000D01*
X113181000Y-131908000D01*
X113840830Y-131908000D01*
X114101050Y-131800213D01*
X114300213Y-131601050D01*
X114408000Y-131340830D01*
X114408000Y-130931000D01*
X114231000Y-130754000D01*
X113004000Y-130754000D01*
X112896000Y-130754000D01*
X111669000Y-130754000D01*
X111492000Y-130931000D01*
X110704423Y-130931000D01*
X109832593Y-130059170D01*
X111492000Y-130059170D01*
X111492000Y-130469000D01*
X111669000Y-130646000D01*
X112896000Y-130646000D01*
X112896000Y-129669000D01*
X113004000Y-129669000D01*
X113004000Y-130646000D01*
X114231000Y-130646000D01*
X114408000Y-130469000D01*
X114408000Y-130059170D01*
X114300213Y-129798950D01*
X114101050Y-129599787D01*
X113840830Y-129492000D01*
X113181000Y-129492000D01*
X113004000Y-129669000D01*
X112896000Y-129669000D01*
X112719000Y-129492000D01*
X112059170Y-129492000D01*
X111798950Y-129599787D01*
X111599787Y-129798950D01*
X111492000Y-130059170D01*
X109832593Y-130059170D01*
X109674044Y-129900621D01*
X109604083Y-129795917D01*
X109475107Y-129709738D01*
X109320960Y-129479040D01*
X108990181Y-129258021D01*
X108600000Y-129180409D01*
X107100000Y-129180409D01*
X106709819Y-129258021D01*
X106379040Y-129479040D01*
X106158021Y-129809819D01*
X106080409Y-130200000D01*
X106080409Y-131200000D01*
X106158021Y-131590181D01*
X106379040Y-131920960D01*
X106709819Y-132141979D01*
X107100000Y-132219591D01*
X108446168Y-132219591D01*
X108608720Y-132382144D01*
X108600000Y-132380409D01*
X107100000Y-132380409D01*
X106813539Y-132437390D01*
X106079626Y-131703478D01*
X106001158Y-131586042D01*
X105535950Y-131275200D01*
X105125718Y-131193600D01*
X105125717Y-131193600D01*
X104987200Y-131166047D01*
X104848683Y-131193600D01*
X104408000Y-131193600D01*
X104408000Y-130931000D01*
X104231000Y-130754000D01*
X103004000Y-130754000D01*
X103004000Y-130774000D01*
X102896000Y-130774000D01*
X102896000Y-130754000D01*
X102876000Y-130754000D01*
X102876000Y-130646000D01*
X102896000Y-130646000D01*
X102896000Y-130626000D01*
X103004000Y-130626000D01*
X103004000Y-130646000D01*
X104231000Y-130646000D01*
X104408000Y-130469000D01*
X104408000Y-130059170D01*
X104300213Y-129798950D01*
X104101050Y-129599787D01*
X103931505Y-129529559D01*
X104038392Y-129369591D01*
X104050000Y-129369591D01*
X104074999Y-129364618D01*
X104099999Y-129369591D01*
X104100001Y-129369591D01*
X104681523Y-129253919D01*
X105174514Y-128924513D01*
X105503920Y-128431522D01*
X105565125Y-128123823D01*
X107196396Y-126492554D01*
X107842067Y-126760000D01*
X108597933Y-126760000D01*
X109296263Y-126470742D01*
X109779550Y-125987455D01*
X109840535Y-126217406D01*
X110429982Y-126465944D01*
X111069671Y-126469991D01*
X111662216Y-126228932D01*
X111679465Y-126217406D01*
X111740450Y-125987455D01*
X112223737Y-126470742D01*
X112922067Y-126760000D01*
X113677933Y-126760000D01*
X114376263Y-126470742D01*
X114570000Y-126277005D01*
X114763737Y-126470742D01*
X115462067Y-126760000D01*
X115966577Y-126760000D01*
X117405958Y-128199382D01*
X117475917Y-128304083D01*
X117580618Y-128374042D01*
X117580620Y-128374044D01*
X117890712Y-128581241D01*
X117890713Y-128581241D01*
X117890714Y-128581242D01*
X118256493Y-128654000D01*
X118256497Y-128654000D01*
X118379999Y-128678566D01*
X118503501Y-128654000D01*
X149587484Y-128654000D01*
X149710986Y-128678566D01*
X149834488Y-128654000D01*
X149834493Y-128654000D01*
X150200272Y-128581242D01*
X150615069Y-128304083D01*
X150685030Y-128199379D01*
X154781690Y-124102719D01*
X161900000Y-124102719D01*
X161900000Y-125097281D01*
X162280602Y-126016136D01*
X162983864Y-126719398D01*
X163902719Y-127100000D01*
X164897281Y-127100000D01*
X165816136Y-126719398D01*
X166519398Y-126016136D01*
X166900000Y-125097281D01*
X166900000Y-124102719D01*
X166519398Y-123183864D01*
X165816136Y-122480602D01*
X164897281Y-122100000D01*
X163902719Y-122100000D01*
X162983864Y-122480602D01*
X162280602Y-123183864D01*
X161900000Y-124102719D01*
X154781690Y-124102719D01*
X155959379Y-122925030D01*
X156064083Y-122855069D01*
X156177577Y-122685213D01*
X156341242Y-122440273D01*
X156400523Y-122142245D01*
X156414000Y-122074493D01*
X156414000Y-122074489D01*
X156432595Y-121981000D01*
X167792000Y-121981000D01*
X167792000Y-122225830D01*
X167899787Y-122486050D01*
X168098950Y-122685213D01*
X168359170Y-122793000D01*
X168769000Y-122793000D01*
X168946000Y-122616000D01*
X168946000Y-121804000D01*
X167969000Y-121804000D01*
X167792000Y-121981000D01*
X156432595Y-121981000D01*
X156438566Y-121950986D01*
X156414000Y-121827483D01*
X156414000Y-117933005D01*
X156430000Y-117917005D01*
X156623737Y-118110742D01*
X157322067Y-118400000D01*
X158077933Y-118400000D01*
X158776263Y-118110742D01*
X158970000Y-117917005D01*
X159163737Y-118110742D01*
X159862067Y-118400000D01*
X160617933Y-118400000D01*
X161316263Y-118110742D01*
X161510000Y-117917005D01*
X161703737Y-118110742D01*
X162402067Y-118400000D01*
X163157933Y-118400000D01*
X163856263Y-118110742D01*
X164390742Y-117576263D01*
X164680000Y-116877933D01*
X164680000Y-116122067D01*
X164390742Y-115423737D01*
X163856263Y-114889258D01*
X163157933Y-114600000D01*
X162402067Y-114600000D01*
X161703737Y-114889258D01*
X161510000Y-115082995D01*
X161316263Y-114889258D01*
X161251176Y-114862298D01*
X161181242Y-114510714D01*
X160980789Y-114210715D01*
X160974044Y-114200620D01*
X160974042Y-114200618D01*
X160904083Y-114095917D01*
X160799382Y-114025958D01*
X157027424Y-110254000D01*
X163880577Y-110254000D01*
X171865591Y-118239014D01*
X171762000Y-118218409D01*
X170238000Y-118218409D01*
X169847819Y-118296021D01*
X169517040Y-118517040D01*
X169431267Y-118645409D01*
X168500000Y-118645409D01*
X168109819Y-118723021D01*
X167779040Y-118944040D01*
X167558021Y-119274819D01*
X167480409Y-119665000D01*
X167480409Y-120335000D01*
X167558021Y-120725181D01*
X167779040Y-121055960D01*
X167859983Y-121110044D01*
X167792000Y-121274170D01*
X167792000Y-121519000D01*
X167969000Y-121696000D01*
X168946000Y-121696000D01*
X168946000Y-121676000D01*
X169054000Y-121676000D01*
X169054000Y-121696000D01*
X169074000Y-121696000D01*
X169074000Y-121804000D01*
X169054000Y-121804000D01*
X169054000Y-122616000D01*
X169231000Y-122793000D01*
X169640830Y-122793000D01*
X169814390Y-122721109D01*
X169848021Y-122890181D01*
X170069040Y-123220960D01*
X170399819Y-123441979D01*
X170790000Y-123519591D01*
X171460000Y-123519591D01*
X171850181Y-123441979D01*
X172000000Y-123341873D01*
X172149819Y-123441979D01*
X172540000Y-123519591D01*
X173210000Y-123519591D01*
X173600181Y-123441979D01*
X173930960Y-123220960D01*
X174151979Y-122890181D01*
X174229591Y-122500000D01*
X174229591Y-121621538D01*
X174538093Y-121493752D01*
X174810000Y-121221845D01*
X175081907Y-121493752D01*
X175729516Y-121762000D01*
X176430484Y-121762000D01*
X177078093Y-121493752D01*
X177573752Y-120998093D01*
X177584536Y-120972056D01*
X177724311Y-120972056D01*
X177783287Y-121243507D01*
X178322848Y-121469048D01*
X178907648Y-121470938D01*
X179448656Y-121248892D01*
X179456713Y-121243507D01*
X179515689Y-120972056D01*
X178620000Y-120076368D01*
X177724311Y-120972056D01*
X177584536Y-120972056D01*
X177618792Y-120889355D01*
X177647944Y-120895689D01*
X178543632Y-120000000D01*
X178696368Y-120000000D01*
X179592056Y-120895689D01*
X179863507Y-120836713D01*
X180089048Y-120297152D01*
X180090938Y-119712352D01*
X179868892Y-119171344D01*
X179863507Y-119163287D01*
X179592056Y-119104311D01*
X178696368Y-120000000D01*
X178543632Y-120000000D01*
X177647944Y-119104311D01*
X177618792Y-119110645D01*
X177584537Y-119027944D01*
X177724311Y-119027944D01*
X178620000Y-119923632D01*
X179515689Y-119027944D01*
X179456713Y-118756493D01*
X178917152Y-118530952D01*
X178332352Y-118529062D01*
X177791344Y-118751108D01*
X177783287Y-118756493D01*
X177724311Y-119027944D01*
X177584537Y-119027944D01*
X177573752Y-119001907D01*
X177078093Y-118506248D01*
X176430484Y-118238000D01*
X175729516Y-118238000D01*
X175081907Y-118506248D01*
X174810000Y-118778155D01*
X174794000Y-118762155D01*
X174794000Y-118263502D01*
X174818566Y-118140000D01*
X174794000Y-118016498D01*
X174794000Y-118016493D01*
X174721242Y-117650714D01*
X174600547Y-117470081D01*
X174514044Y-117340620D01*
X174514042Y-117340618D01*
X174444083Y-117235917D01*
X174339382Y-117165958D01*
X165374043Y-108200620D01*
X165304083Y-108095917D01*
X164889286Y-107818758D01*
X164523507Y-107746000D01*
X164523502Y-107746000D01*
X164400000Y-107721434D01*
X164276498Y-107746000D01*
X156519424Y-107746000D01*
X155576143Y-106802719D01*
X186700000Y-106802719D01*
X186700000Y-107797281D01*
X187080602Y-108716136D01*
X187783864Y-109419398D01*
X188702719Y-109800000D01*
X189697281Y-109800000D01*
X190616136Y-109419398D01*
X191319398Y-108716136D01*
X191700000Y-107797281D01*
X191700000Y-106802719D01*
X191319398Y-105883864D01*
X190616136Y-105180602D01*
X189697281Y-104800000D01*
X188702719Y-104800000D01*
X187783864Y-105180602D01*
X187080602Y-105883864D01*
X186700000Y-106802719D01*
X155576143Y-106802719D01*
X149373423Y-100600000D01*
X184610550Y-100600000D01*
X185832897Y-101006557D01*
X185832897Y-101006557D01*
G37*
X185832897Y-101006557D02*
X187428820Y-101693783D01*
X188960227Y-102514825D01*
X190415885Y-103463662D01*
X191785191Y-104533378D01*
X193058109Y-105716138D01*
X194225352Y-107003308D01*
X195278383Y-108385476D01*
X196209504Y-109852536D01*
X197011913Y-111393775D01*
X197679741Y-112997922D01*
X198208108Y-114653249D01*
X198504748Y-115958637D01*
X198554641Y-129180409D01*
X197100000Y-129180409D01*
X196709819Y-129258021D01*
X196379040Y-129479040D01*
X196158021Y-129809819D01*
X196080409Y-130200000D01*
X196080409Y-131200000D01*
X196158021Y-131590181D01*
X196379040Y-131920960D01*
X196709819Y-132141979D01*
X197100000Y-132219591D01*
X198566110Y-132219591D01*
X198566716Y-132380409D01*
X197100000Y-132380409D01*
X196709819Y-132458021D01*
X196656571Y-132493600D01*
X196425718Y-132493600D01*
X196287200Y-132466047D01*
X195738449Y-132575200D01*
X195669257Y-132621433D01*
X195273242Y-132886042D01*
X195194778Y-133003472D01*
X194719591Y-133478660D01*
X194719591Y-133400000D01*
X194641979Y-133009819D01*
X194420960Y-132679040D01*
X194090181Y-132458021D01*
X193700000Y-132380409D01*
X192200000Y-132380409D01*
X191809819Y-132458021D01*
X191528488Y-132646000D01*
X191419424Y-132646000D01*
X189704424Y-130931000D01*
X191492000Y-130931000D01*
X191492000Y-131340830D01*
X191599787Y-131601050D01*
X191798950Y-131800213D01*
X192059170Y-131908000D01*
X192719000Y-131908000D01*
X192896000Y-131731000D01*
X192896000Y-130754000D01*
X193004000Y-130754000D01*
X193004000Y-131731000D01*
X193181000Y-131908000D01*
X193840830Y-131908000D01*
X194101050Y-131800213D01*
X194300213Y-131601050D01*
X194408000Y-131340830D01*
X194408000Y-130931000D01*
X194231000Y-130754000D01*
X193004000Y-130754000D01*
X192896000Y-130754000D01*
X191669000Y-130754000D01*
X191492000Y-130931000D01*
X189704424Y-130931000D01*
X189619591Y-130846168D01*
X189619591Y-130200000D01*
X189591579Y-130059170D01*
X191492000Y-130059170D01*
X191492000Y-130469000D01*
X191669000Y-130646000D01*
X192896000Y-130646000D01*
X192896000Y-129669000D01*
X193004000Y-129669000D01*
X193004000Y-130646000D01*
X194231000Y-130646000D01*
X194408000Y-130469000D01*
X194408000Y-130059170D01*
X194300213Y-129798950D01*
X194101050Y-129599787D01*
X193840830Y-129492000D01*
X193181000Y-129492000D01*
X193004000Y-129669000D01*
X192896000Y-129669000D01*
X192719000Y-129492000D01*
X192059170Y-129492000D01*
X191798950Y-129599787D01*
X191599787Y-129798950D01*
X191492000Y-130059170D01*
X189591579Y-130059170D01*
X189541979Y-129809819D01*
X189320960Y-129479040D01*
X188990181Y-129258021D01*
X188600000Y-129180409D01*
X187100000Y-129180409D01*
X186709819Y-129258021D01*
X186379040Y-129479040D01*
X186158021Y-129809819D01*
X186080409Y-130200000D01*
X186080409Y-131200000D01*
X186158021Y-131590181D01*
X186379040Y-131920960D01*
X186709819Y-132141979D01*
X187100000Y-132219591D01*
X187446168Y-132219591D01*
X187606986Y-132380409D01*
X187100000Y-132380409D01*
X186709819Y-132458021D01*
X186656571Y-132493600D01*
X186425716Y-132493600D01*
X186287199Y-132466047D01*
X186148682Y-132493600D01*
X185738450Y-132575200D01*
X185273242Y-132886042D01*
X185194775Y-133003476D01*
X184719591Y-133478660D01*
X184719591Y-133400000D01*
X184641979Y-133009819D01*
X184420960Y-132679040D01*
X184090181Y-132458021D01*
X183700000Y-132380409D01*
X182200000Y-132380409D01*
X181809819Y-132458021D01*
X181702891Y-132529468D01*
X180104423Y-130931000D01*
X181492000Y-130931000D01*
X181492000Y-131340830D01*
X181599787Y-131601050D01*
X181798950Y-131800213D01*
X182059170Y-131908000D01*
X182719000Y-131908000D01*
X182896000Y-131731000D01*
X182896000Y-130754000D01*
X183004000Y-130754000D01*
X183004000Y-131731000D01*
X183181000Y-131908000D01*
X183840830Y-131908000D01*
X184101050Y-131800213D01*
X184300213Y-131601050D01*
X184408000Y-131340830D01*
X184408000Y-130931000D01*
X184231000Y-130754000D01*
X183004000Y-130754000D01*
X182896000Y-130754000D01*
X181669000Y-130754000D01*
X181492000Y-130931000D01*
X180104423Y-130931000D01*
X179619591Y-130446168D01*
X179619591Y-130200000D01*
X179591579Y-130059170D01*
X181492000Y-130059170D01*
X181492000Y-130469000D01*
X181669000Y-130646000D01*
X182896000Y-130646000D01*
X182896000Y-129669000D01*
X183004000Y-129669000D01*
X183004000Y-130646000D01*
X184231000Y-130646000D01*
X184408000Y-130469000D01*
X184408000Y-130059170D01*
X184300213Y-129798950D01*
X184101050Y-129599787D01*
X183840830Y-129492000D01*
X183181000Y-129492000D01*
X183004000Y-129669000D01*
X182896000Y-129669000D01*
X182719000Y-129492000D01*
X182059170Y-129492000D01*
X181798950Y-129599787D01*
X181599787Y-129798950D01*
X181492000Y-130059170D01*
X179591579Y-130059170D01*
X179541979Y-129809819D01*
X179320960Y-129479040D01*
X178990181Y-129258021D01*
X178600000Y-129180409D01*
X177100000Y-129180409D01*
X176709819Y-129258021D01*
X176379040Y-129479040D01*
X176158021Y-129809819D01*
X176080409Y-130200000D01*
X176080409Y-131200000D01*
X176158021Y-131590181D01*
X176379040Y-131920960D01*
X176709819Y-132141979D01*
X177100000Y-132219591D01*
X177846168Y-132219591D01*
X178006986Y-132380409D01*
X177100000Y-132380409D01*
X176709819Y-132458021D01*
X176656571Y-132493600D01*
X176425716Y-132493600D01*
X176287199Y-132466047D01*
X176148682Y-132493600D01*
X175738450Y-132575200D01*
X175273242Y-132886042D01*
X175194778Y-133003472D01*
X174719591Y-133478660D01*
X174719591Y-133400000D01*
X174641979Y-133009819D01*
X174420960Y-132679040D01*
X174090181Y-132458021D01*
X173700000Y-132380409D01*
X172353833Y-132380409D01*
X170904424Y-130931000D01*
X171492000Y-130931000D01*
X171492000Y-131340830D01*
X171599787Y-131601050D01*
X171798950Y-131800213D01*
X172059170Y-131908000D01*
X172719000Y-131908000D01*
X172896000Y-131731000D01*
X172896000Y-130754000D01*
X173004000Y-130754000D01*
X173004000Y-131731000D01*
X173181000Y-131908000D01*
X173840830Y-131908000D01*
X174101050Y-131800213D01*
X174300213Y-131601050D01*
X174408000Y-131340830D01*
X174408000Y-130931000D01*
X174231000Y-130754000D01*
X173004000Y-130754000D01*
X172896000Y-130754000D01*
X171669000Y-130754000D01*
X171492000Y-130931000D01*
X170904424Y-130931000D01*
X170032594Y-130059170D01*
X171492000Y-130059170D01*
X171492000Y-130469000D01*
X171669000Y-130646000D01*
X172896000Y-130646000D01*
X172896000Y-129669000D01*
X173004000Y-129669000D01*
X173004000Y-130646000D01*
X174231000Y-130646000D01*
X174408000Y-130469000D01*
X174408000Y-130059170D01*
X174300213Y-129798950D01*
X174101050Y-129599787D01*
X173840830Y-129492000D01*
X173181000Y-129492000D01*
X173004000Y-129669000D01*
X172896000Y-129669000D01*
X172719000Y-129492000D01*
X172059170Y-129492000D01*
X171798950Y-129599787D01*
X171599787Y-129798950D01*
X171492000Y-130059170D01*
X170032594Y-130059170D01*
X169874044Y-129900621D01*
X169804083Y-129795917D01*
X169389286Y-129518758D01*
X169341093Y-129509172D01*
X169320960Y-129479040D01*
X168990181Y-129258021D01*
X168600000Y-129180409D01*
X167100000Y-129180409D01*
X166709819Y-129258021D01*
X166379040Y-129479040D01*
X166158021Y-129809819D01*
X166080409Y-130200000D01*
X166080409Y-131200000D01*
X166158021Y-131590181D01*
X166379040Y-131920960D01*
X166709819Y-132141979D01*
X167100000Y-132219591D01*
X168600000Y-132219591D01*
X168638508Y-132211931D01*
X168858381Y-132431804D01*
X168600000Y-132380409D01*
X167100000Y-132380409D01*
X166709819Y-132458021D01*
X166656571Y-132493600D01*
X166438516Y-132493600D01*
X166299999Y-132466047D01*
X166161482Y-132493600D01*
X165751250Y-132575200D01*
X165286042Y-132886042D01*
X165207575Y-133003476D01*
X164719591Y-133491460D01*
X164719591Y-133400000D01*
X164641979Y-133009819D01*
X164420960Y-132679040D01*
X164090181Y-132458021D01*
X163700000Y-132380409D01*
X162200000Y-132380409D01*
X162161492Y-132388069D01*
X160704423Y-130931000D01*
X161492000Y-130931000D01*
X161492000Y-131340830D01*
X161599787Y-131601050D01*
X161798950Y-131800213D01*
X162059170Y-131908000D01*
X162719000Y-131908000D01*
X162896000Y-131731000D01*
X162896000Y-130754000D01*
X163004000Y-130754000D01*
X163004000Y-131731000D01*
X163181000Y-131908000D01*
X163840830Y-131908000D01*
X164101050Y-131800213D01*
X164300213Y-131601050D01*
X164408000Y-131340830D01*
X164408000Y-130931000D01*
X164231000Y-130754000D01*
X163004000Y-130754000D01*
X162896000Y-130754000D01*
X161669000Y-130754000D01*
X161492000Y-130931000D01*
X160704423Y-130931000D01*
X159832593Y-130059170D01*
X161492000Y-130059170D01*
X161492000Y-130469000D01*
X161669000Y-130646000D01*
X162896000Y-130646000D01*
X162896000Y-129669000D01*
X163004000Y-129669000D01*
X163004000Y-130646000D01*
X164231000Y-130646000D01*
X164408000Y-130469000D01*
X164408000Y-130059170D01*
X164300213Y-129798950D01*
X164101050Y-129599787D01*
X163840830Y-129492000D01*
X163181000Y-129492000D01*
X163004000Y-129669000D01*
X162896000Y-129669000D01*
X162719000Y-129492000D01*
X162059170Y-129492000D01*
X161798950Y-129599787D01*
X161599787Y-129798950D01*
X161492000Y-130059170D01*
X159832593Y-130059170D01*
X159674044Y-129900621D01*
X159604083Y-129795917D01*
X159475107Y-129709738D01*
X159320960Y-129479040D01*
X158990181Y-129258021D01*
X158600000Y-129180409D01*
X157100000Y-129180409D01*
X156709819Y-129258021D01*
X156379040Y-129479040D01*
X156158021Y-129809819D01*
X156080409Y-130200000D01*
X156080409Y-131200000D01*
X156158021Y-131590181D01*
X156379040Y-131920960D01*
X156709819Y-132141979D01*
X157100000Y-132219591D01*
X158446168Y-132219591D01*
X158608720Y-132382144D01*
X158600000Y-132380409D01*
X157100000Y-132380409D01*
X156709819Y-132458021D01*
X156656571Y-132493600D01*
X156238518Y-132493600D01*
X156100000Y-132466047D01*
X155551249Y-132575200D01*
X155482057Y-132621433D01*
X155086042Y-132886042D01*
X155007578Y-133003472D01*
X154701583Y-133309468D01*
X154641979Y-133009819D01*
X154420960Y-132679040D01*
X154090181Y-132458021D01*
X153700000Y-132380409D01*
X152353833Y-132380409D01*
X150904424Y-130931000D01*
X151492000Y-130931000D01*
X151492000Y-131340830D01*
X151599787Y-131601050D01*
X151798950Y-131800213D01*
X152059170Y-131908000D01*
X152719000Y-131908000D01*
X152896000Y-131731000D01*
X152896000Y-130754000D01*
X153004000Y-130754000D01*
X153004000Y-131731000D01*
X153181000Y-131908000D01*
X153840830Y-131908000D01*
X154101050Y-131800213D01*
X154300213Y-131601050D01*
X154408000Y-131340830D01*
X154408000Y-130931000D01*
X154231000Y-130754000D01*
X153004000Y-130754000D01*
X152896000Y-130754000D01*
X151669000Y-130754000D01*
X151492000Y-130931000D01*
X150904424Y-130931000D01*
X150032594Y-130059170D01*
X151492000Y-130059170D01*
X151492000Y-130469000D01*
X151669000Y-130646000D01*
X152896000Y-130646000D01*
X152896000Y-129669000D01*
X153004000Y-129669000D01*
X153004000Y-130646000D01*
X154231000Y-130646000D01*
X154408000Y-130469000D01*
X154408000Y-130059170D01*
X154300213Y-129798950D01*
X154101050Y-129599787D01*
X153840830Y-129492000D01*
X153181000Y-129492000D01*
X153004000Y-129669000D01*
X152896000Y-129669000D01*
X152719000Y-129492000D01*
X152059170Y-129492000D01*
X151798950Y-129599787D01*
X151599787Y-129798950D01*
X151492000Y-130059170D01*
X150032594Y-130059170D01*
X149874044Y-129900621D01*
X149804083Y-129795917D01*
X149389286Y-129518758D01*
X149341093Y-129509172D01*
X149320960Y-129479040D01*
X148990181Y-129258021D01*
X148600000Y-129180409D01*
X147100000Y-129180409D01*
X146709819Y-129258021D01*
X146379040Y-129479040D01*
X146158021Y-129809819D01*
X146080409Y-130200000D01*
X146080409Y-131200000D01*
X146158021Y-131590181D01*
X146379040Y-131920960D01*
X146709819Y-132141979D01*
X147100000Y-132219591D01*
X148600000Y-132219591D01*
X148638508Y-132211931D01*
X148858381Y-132431804D01*
X148600000Y-132380409D01*
X147100000Y-132380409D01*
X146709819Y-132458021D01*
X146656571Y-132493600D01*
X146425718Y-132493600D01*
X146287200Y-132466047D01*
X145738449Y-132575200D01*
X145669257Y-132621433D01*
X145273242Y-132886042D01*
X145194778Y-133003472D01*
X144719591Y-133478660D01*
X144719591Y-133400000D01*
X144641979Y-133009819D01*
X144420960Y-132679040D01*
X144090181Y-132458021D01*
X143700000Y-132380409D01*
X142200000Y-132380409D01*
X142161492Y-132388069D01*
X140704423Y-130931000D01*
X141492000Y-130931000D01*
X141492000Y-131340830D01*
X141599787Y-131601050D01*
X141798950Y-131800213D01*
X142059170Y-131908000D01*
X142719000Y-131908000D01*
X142896000Y-131731000D01*
X142896000Y-130754000D01*
X143004000Y-130754000D01*
X143004000Y-131731000D01*
X143181000Y-131908000D01*
X143840830Y-131908000D01*
X144101050Y-131800213D01*
X144300213Y-131601050D01*
X144408000Y-131340830D01*
X144408000Y-130931000D01*
X144231000Y-130754000D01*
X143004000Y-130754000D01*
X142896000Y-130754000D01*
X141669000Y-130754000D01*
X141492000Y-130931000D01*
X140704423Y-130931000D01*
X139832593Y-130059170D01*
X141492000Y-130059170D01*
X141492000Y-130469000D01*
X141669000Y-130646000D01*
X142896000Y-130646000D01*
X142896000Y-129669000D01*
X143004000Y-129669000D01*
X143004000Y-130646000D01*
X144231000Y-130646000D01*
X144408000Y-130469000D01*
X144408000Y-130059170D01*
X144300213Y-129798950D01*
X144101050Y-129599787D01*
X143840830Y-129492000D01*
X143181000Y-129492000D01*
X143004000Y-129669000D01*
X142896000Y-129669000D01*
X142719000Y-129492000D01*
X142059170Y-129492000D01*
X141798950Y-129599787D01*
X141599787Y-129798950D01*
X141492000Y-130059170D01*
X139832593Y-130059170D01*
X139674044Y-129900621D01*
X139604083Y-129795917D01*
X139475107Y-129709738D01*
X139320960Y-129479040D01*
X138990181Y-129258021D01*
X138600000Y-129180409D01*
X137100000Y-129180409D01*
X136709819Y-129258021D01*
X136379040Y-129479040D01*
X136158021Y-129809819D01*
X136080409Y-130200000D01*
X136080409Y-131200000D01*
X136158021Y-131590181D01*
X136379040Y-131920960D01*
X136709819Y-132141979D01*
X137100000Y-132219591D01*
X138446168Y-132219591D01*
X138608720Y-132382144D01*
X138600000Y-132380409D01*
X137100000Y-132380409D01*
X136709819Y-132458021D01*
X136656571Y-132493600D01*
X136038512Y-132493600D01*
X135899999Y-132466048D01*
X135761486Y-132493600D01*
X135761482Y-132493600D01*
X135351250Y-132575200D01*
X134886042Y-132886042D01*
X134807578Y-133003472D01*
X134668401Y-133142650D01*
X134641979Y-133009819D01*
X134420960Y-132679040D01*
X134090181Y-132458021D01*
X133700000Y-132380409D01*
X132200000Y-132380409D01*
X132161492Y-132388069D01*
X130704423Y-130931000D01*
X131492000Y-130931000D01*
X131492000Y-131340830D01*
X131599787Y-131601050D01*
X131798950Y-131800213D01*
X132059170Y-131908000D01*
X132719000Y-131908000D01*
X132896000Y-131731000D01*
X132896000Y-130754000D01*
X133004000Y-130754000D01*
X133004000Y-131731000D01*
X133181000Y-131908000D01*
X133840830Y-131908000D01*
X134101050Y-131800213D01*
X134300213Y-131601050D01*
X134408000Y-131340830D01*
X134408000Y-130931000D01*
X134231000Y-130754000D01*
X133004000Y-130754000D01*
X132896000Y-130754000D01*
X131669000Y-130754000D01*
X131492000Y-130931000D01*
X130704423Y-130931000D01*
X129832593Y-130059170D01*
X131492000Y-130059170D01*
X131492000Y-130469000D01*
X131669000Y-130646000D01*
X132896000Y-130646000D01*
X132896000Y-129669000D01*
X133004000Y-129669000D01*
X133004000Y-130646000D01*
X134231000Y-130646000D01*
X134408000Y-130469000D01*
X134408000Y-130059170D01*
X134300213Y-129798950D01*
X134101050Y-129599787D01*
X133840830Y-129492000D01*
X133181000Y-129492000D01*
X133004000Y-129669000D01*
X132896000Y-129669000D01*
X132719000Y-129492000D01*
X132059170Y-129492000D01*
X131798950Y-129599787D01*
X131599787Y-129798950D01*
X131492000Y-130059170D01*
X129832593Y-130059170D01*
X129674044Y-129900621D01*
X129604083Y-129795917D01*
X129475107Y-129709738D01*
X129320960Y-129479040D01*
X128990181Y-129258021D01*
X128600000Y-129180409D01*
X127100000Y-129180409D01*
X126709819Y-129258021D01*
X126379040Y-129479040D01*
X126158021Y-129809819D01*
X126080409Y-130200000D01*
X126080409Y-131200000D01*
X126158021Y-131590181D01*
X126379040Y-131920960D01*
X126709819Y-132141979D01*
X127100000Y-132219591D01*
X128446168Y-132219591D01*
X128608720Y-132382144D01*
X128600000Y-132380409D01*
X127100000Y-132380409D01*
X126709819Y-132458021D01*
X126656571Y-132493600D01*
X125838516Y-132493600D01*
X125699999Y-132466047D01*
X125561482Y-132493600D01*
X125151250Y-132575200D01*
X124686042Y-132886042D01*
X124622658Y-132980903D01*
X124420960Y-132679040D01*
X124090181Y-132458021D01*
X123700000Y-132380409D01*
X122200000Y-132380409D01*
X122161492Y-132388069D01*
X120704423Y-130931000D01*
X121492000Y-130931000D01*
X121492000Y-131340830D01*
X121599787Y-131601050D01*
X121798950Y-131800213D01*
X122059170Y-131908000D01*
X122719000Y-131908000D01*
X122896000Y-131731000D01*
X122896000Y-130754000D01*
X123004000Y-130754000D01*
X123004000Y-131731000D01*
X123181000Y-131908000D01*
X123840830Y-131908000D01*
X124101050Y-131800213D01*
X124300213Y-131601050D01*
X124408000Y-131340830D01*
X124408000Y-130931000D01*
X124231000Y-130754000D01*
X123004000Y-130754000D01*
X122896000Y-130754000D01*
X121669000Y-130754000D01*
X121492000Y-130931000D01*
X120704423Y-130931000D01*
X119832593Y-130059170D01*
X121492000Y-130059170D01*
X121492000Y-130469000D01*
X121669000Y-130646000D01*
X122896000Y-130646000D01*
X122896000Y-129669000D01*
X123004000Y-129669000D01*
X123004000Y-130646000D01*
X124231000Y-130646000D01*
X124408000Y-130469000D01*
X124408000Y-130059170D01*
X124300213Y-129798950D01*
X124101050Y-129599787D01*
X123840830Y-129492000D01*
X123181000Y-129492000D01*
X123004000Y-129669000D01*
X122896000Y-129669000D01*
X122719000Y-129492000D01*
X122059170Y-129492000D01*
X121798950Y-129599787D01*
X121599787Y-129798950D01*
X121492000Y-130059170D01*
X119832593Y-130059170D01*
X119674044Y-129900621D01*
X119604083Y-129795917D01*
X119475107Y-129709738D01*
X119320960Y-129479040D01*
X118990181Y-129258021D01*
X118600000Y-129180409D01*
X117100000Y-129180409D01*
X116709819Y-129258021D01*
X116379040Y-129479040D01*
X116158021Y-129809819D01*
X116080409Y-130200000D01*
X116080409Y-131200000D01*
X116158021Y-131590181D01*
X116379040Y-131920960D01*
X116709819Y-132141979D01*
X117100000Y-132219591D01*
X118446168Y-132219591D01*
X118608720Y-132382144D01*
X118600000Y-132380409D01*
X117100000Y-132380409D01*
X116709819Y-132458021D01*
X116656571Y-132493600D01*
X116038512Y-132493600D01*
X115899999Y-132466048D01*
X115761486Y-132493600D01*
X115761482Y-132493600D01*
X115351250Y-132575200D01*
X114886042Y-132886042D01*
X114807578Y-133003472D01*
X114668401Y-133142650D01*
X114641979Y-133009819D01*
X114420960Y-132679040D01*
X114090181Y-132458021D01*
X113700000Y-132380409D01*
X112200000Y-132380409D01*
X112161492Y-132388069D01*
X110704423Y-130931000D01*
X111492000Y-130931000D01*
X111492000Y-131340830D01*
X111599787Y-131601050D01*
X111798950Y-131800213D01*
X112059170Y-131908000D01*
X112719000Y-131908000D01*
X112896000Y-131731000D01*
X112896000Y-130754000D01*
X113004000Y-130754000D01*
X113004000Y-131731000D01*
X113181000Y-131908000D01*
X113840830Y-131908000D01*
X114101050Y-131800213D01*
X114300213Y-131601050D01*
X114408000Y-131340830D01*
X114408000Y-130931000D01*
X114231000Y-130754000D01*
X113004000Y-130754000D01*
X112896000Y-130754000D01*
X111669000Y-130754000D01*
X111492000Y-130931000D01*
X110704423Y-130931000D01*
X109832593Y-130059170D01*
X111492000Y-130059170D01*
X111492000Y-130469000D01*
X111669000Y-130646000D01*
X112896000Y-130646000D01*
X112896000Y-129669000D01*
X113004000Y-129669000D01*
X113004000Y-130646000D01*
X114231000Y-130646000D01*
X114408000Y-130469000D01*
X114408000Y-130059170D01*
X114300213Y-129798950D01*
X114101050Y-129599787D01*
X113840830Y-129492000D01*
X113181000Y-129492000D01*
X113004000Y-129669000D01*
X112896000Y-129669000D01*
X112719000Y-129492000D01*
X112059170Y-129492000D01*
X111798950Y-129599787D01*
X111599787Y-129798950D01*
X111492000Y-130059170D01*
X109832593Y-130059170D01*
X109674044Y-129900621D01*
X109604083Y-129795917D01*
X109475107Y-129709738D01*
X109320960Y-129479040D01*
X108990181Y-129258021D01*
X108600000Y-129180409D01*
X107100000Y-129180409D01*
X106709819Y-129258021D01*
X106379040Y-129479040D01*
X106158021Y-129809819D01*
X106080409Y-130200000D01*
X106080409Y-131200000D01*
X106158021Y-131590181D01*
X106379040Y-131920960D01*
X106709819Y-132141979D01*
X107100000Y-132219591D01*
X108446168Y-132219591D01*
X108608720Y-132382144D01*
X108600000Y-132380409D01*
X107100000Y-132380409D01*
X106813539Y-132437390D01*
X106079626Y-131703478D01*
X106001158Y-131586042D01*
X105535950Y-131275200D01*
X105125718Y-131193600D01*
X105125717Y-131193600D01*
X104987200Y-131166047D01*
X104848683Y-131193600D01*
X104408000Y-131193600D01*
X104408000Y-130931000D01*
X104231000Y-130754000D01*
X103004000Y-130754000D01*
X103004000Y-130774000D01*
X102896000Y-130774000D01*
X102896000Y-130754000D01*
X102876000Y-130754000D01*
X102876000Y-130646000D01*
X102896000Y-130646000D01*
X102896000Y-130626000D01*
X103004000Y-130626000D01*
X103004000Y-130646000D01*
X104231000Y-130646000D01*
X104408000Y-130469000D01*
X104408000Y-130059170D01*
X104300213Y-129798950D01*
X104101050Y-129599787D01*
X103931505Y-129529559D01*
X104038392Y-129369591D01*
X104050000Y-129369591D01*
X104074999Y-129364618D01*
X104099999Y-129369591D01*
X104100001Y-129369591D01*
X104681523Y-129253919D01*
X105174514Y-128924513D01*
X105503920Y-128431522D01*
X105565125Y-128123823D01*
X107196396Y-126492554D01*
X107842067Y-126760000D01*
X108597933Y-126760000D01*
X109296263Y-126470742D01*
X109779550Y-125987455D01*
X109840535Y-126217406D01*
X110429982Y-126465944D01*
X111069671Y-126469991D01*
X111662216Y-126228932D01*
X111679465Y-126217406D01*
X111740450Y-125987455D01*
X112223737Y-126470742D01*
X112922067Y-126760000D01*
X113677933Y-126760000D01*
X114376263Y-126470742D01*
X114570000Y-126277005D01*
X114763737Y-126470742D01*
X115462067Y-126760000D01*
X115966577Y-126760000D01*
X117405958Y-128199382D01*
X117475917Y-128304083D01*
X117580618Y-128374042D01*
X117580620Y-128374044D01*
X117890712Y-128581241D01*
X117890713Y-128581241D01*
X117890714Y-128581242D01*
X118256493Y-128654000D01*
X118256497Y-128654000D01*
X118379999Y-128678566D01*
X118503501Y-128654000D01*
X149587484Y-128654000D01*
X149710986Y-128678566D01*
X149834488Y-128654000D01*
X149834493Y-128654000D01*
X150200272Y-128581242D01*
X150615069Y-128304083D01*
X150685030Y-128199379D01*
X154781690Y-124102719D01*
X161900000Y-124102719D01*
X161900000Y-125097281D01*
X162280602Y-126016136D01*
X162983864Y-126719398D01*
X163902719Y-127100000D01*
X164897281Y-127100000D01*
X165816136Y-126719398D01*
X166519398Y-126016136D01*
X166900000Y-125097281D01*
X166900000Y-124102719D01*
X166519398Y-123183864D01*
X165816136Y-122480602D01*
X164897281Y-122100000D01*
X163902719Y-122100000D01*
X162983864Y-122480602D01*
X162280602Y-123183864D01*
X161900000Y-124102719D01*
X154781690Y-124102719D01*
X155959379Y-122925030D01*
X156064083Y-122855069D01*
X156177577Y-122685213D01*
X156341242Y-122440273D01*
X156400523Y-122142245D01*
X156414000Y-122074493D01*
X156414000Y-122074489D01*
X156432595Y-121981000D01*
X167792000Y-121981000D01*
X167792000Y-122225830D01*
X167899787Y-122486050D01*
X168098950Y-122685213D01*
X168359170Y-122793000D01*
X168769000Y-122793000D01*
X168946000Y-122616000D01*
X168946000Y-121804000D01*
X167969000Y-121804000D01*
X167792000Y-121981000D01*
X156432595Y-121981000D01*
X156438566Y-121950986D01*
X156414000Y-121827483D01*
X156414000Y-117933005D01*
X156430000Y-117917005D01*
X156623737Y-118110742D01*
X157322067Y-118400000D01*
X158077933Y-118400000D01*
X158776263Y-118110742D01*
X158970000Y-117917005D01*
X159163737Y-118110742D01*
X159862067Y-118400000D01*
X160617933Y-118400000D01*
X161316263Y-118110742D01*
X161510000Y-117917005D01*
X161703737Y-118110742D01*
X162402067Y-118400000D01*
X163157933Y-118400000D01*
X163856263Y-118110742D01*
X164390742Y-117576263D01*
X164680000Y-116877933D01*
X164680000Y-116122067D01*
X164390742Y-115423737D01*
X163856263Y-114889258D01*
X163157933Y-114600000D01*
X162402067Y-114600000D01*
X161703737Y-114889258D01*
X161510000Y-115082995D01*
X161316263Y-114889258D01*
X161251176Y-114862298D01*
X161181242Y-114510714D01*
X160980789Y-114210715D01*
X160974044Y-114200620D01*
X160974042Y-114200618D01*
X160904083Y-114095917D01*
X160799382Y-114025958D01*
X157027424Y-110254000D01*
X163880577Y-110254000D01*
X171865591Y-118239014D01*
X171762000Y-118218409D01*
X170238000Y-118218409D01*
X169847819Y-118296021D01*
X169517040Y-118517040D01*
X169431267Y-118645409D01*
X168500000Y-118645409D01*
X168109819Y-118723021D01*
X167779040Y-118944040D01*
X167558021Y-119274819D01*
X167480409Y-119665000D01*
X167480409Y-120335000D01*
X167558021Y-120725181D01*
X167779040Y-121055960D01*
X167859983Y-121110044D01*
X167792000Y-121274170D01*
X167792000Y-121519000D01*
X167969000Y-121696000D01*
X168946000Y-121696000D01*
X168946000Y-121676000D01*
X169054000Y-121676000D01*
X169054000Y-121696000D01*
X169074000Y-121696000D01*
X169074000Y-121804000D01*
X169054000Y-121804000D01*
X169054000Y-122616000D01*
X169231000Y-122793000D01*
X169640830Y-122793000D01*
X169814390Y-122721109D01*
X169848021Y-122890181D01*
X170069040Y-123220960D01*
X170399819Y-123441979D01*
X170790000Y-123519591D01*
X171460000Y-123519591D01*
X171850181Y-123441979D01*
X172000000Y-123341873D01*
X172149819Y-123441979D01*
X172540000Y-123519591D01*
X173210000Y-123519591D01*
X173600181Y-123441979D01*
X173930960Y-123220960D01*
X174151979Y-122890181D01*
X174229591Y-122500000D01*
X174229591Y-121621538D01*
X174538093Y-121493752D01*
X174810000Y-121221845D01*
X175081907Y-121493752D01*
X175729516Y-121762000D01*
X176430484Y-121762000D01*
X177078093Y-121493752D01*
X177573752Y-120998093D01*
X177584536Y-120972056D01*
X177724311Y-120972056D01*
X177783287Y-121243507D01*
X178322848Y-121469048D01*
X178907648Y-121470938D01*
X179448656Y-121248892D01*
X179456713Y-121243507D01*
X179515689Y-120972056D01*
X178620000Y-120076368D01*
X177724311Y-120972056D01*
X177584536Y-120972056D01*
X177618792Y-120889355D01*
X177647944Y-120895689D01*
X178543632Y-120000000D01*
X178696368Y-120000000D01*
X179592056Y-120895689D01*
X179863507Y-120836713D01*
X180089048Y-120297152D01*
X180090938Y-119712352D01*
X179868892Y-119171344D01*
X179863507Y-119163287D01*
X179592056Y-119104311D01*
X178696368Y-120000000D01*
X178543632Y-120000000D01*
X177647944Y-119104311D01*
X177618792Y-119110645D01*
X177584537Y-119027944D01*
X177724311Y-119027944D01*
X178620000Y-119923632D01*
X179515689Y-119027944D01*
X179456713Y-118756493D01*
X178917152Y-118530952D01*
X178332352Y-118529062D01*
X177791344Y-118751108D01*
X177783287Y-118756493D01*
X177724311Y-119027944D01*
X177584537Y-119027944D01*
X177573752Y-119001907D01*
X177078093Y-118506248D01*
X176430484Y-118238000D01*
X175729516Y-118238000D01*
X175081907Y-118506248D01*
X174810000Y-118778155D01*
X174794000Y-118762155D01*
X174794000Y-118263502D01*
X174818566Y-118140000D01*
X174794000Y-118016498D01*
X174794000Y-118016493D01*
X174721242Y-117650714D01*
X174600547Y-117470081D01*
X174514044Y-117340620D01*
X174514042Y-117340618D01*
X174444083Y-117235917D01*
X174339382Y-117165958D01*
X165374043Y-108200620D01*
X165304083Y-108095917D01*
X164889286Y-107818758D01*
X164523507Y-107746000D01*
X164523502Y-107746000D01*
X164400000Y-107721434D01*
X164276498Y-107746000D01*
X156519424Y-107746000D01*
X155576143Y-106802719D01*
X186700000Y-106802719D01*
X186700000Y-107797281D01*
X187080602Y-108716136D01*
X187783864Y-109419398D01*
X188702719Y-109800000D01*
X189697281Y-109800000D01*
X190616136Y-109419398D01*
X191319398Y-108716136D01*
X191700000Y-107797281D01*
X191700000Y-106802719D01*
X191319398Y-105883864D01*
X190616136Y-105180602D01*
X189697281Y-104800000D01*
X188702719Y-104800000D01*
X187783864Y-105180602D01*
X187080602Y-105883864D01*
X186700000Y-106802719D01*
X155576143Y-106802719D01*
X149373423Y-100600000D01*
X184610550Y-100600000D01*
X185832897Y-101006557D01*
G36*
X138979040Y-112105960D02*
X139059983Y-112160044D01*
X138992000Y-112324170D01*
X138992000Y-112569000D01*
X139169000Y-112746000D01*
X140146000Y-112746000D01*
X140146000Y-112726000D01*
X140254000Y-112726000D01*
X140254000Y-112746000D01*
X140274000Y-112746000D01*
X140274000Y-112854000D01*
X140254000Y-112854000D01*
X140254000Y-113666000D01*
X140431000Y-113843000D01*
X140570201Y-113843000D01*
X140570201Y-117546488D01*
X140570200Y-117546493D01*
X140570200Y-118346493D01*
X140544638Y-118475000D01*
X140570200Y-118603507D01*
X140570200Y-118603508D01*
X140645906Y-118984107D01*
X140934293Y-119415708D01*
X141043237Y-119488502D01*
X147459177Y-125904442D01*
X147559233Y-126146000D01*
X127401005Y-126146000D01*
X127610742Y-125936263D01*
X127900000Y-125237933D01*
X127900000Y-124482067D01*
X127610742Y-123783737D01*
X127227005Y-123400000D01*
X138600000Y-123400000D01*
X138676537Y-123384776D01*
X138741421Y-123341421D01*
X138784776Y-123276537D01*
X138800000Y-123200000D01*
X138800000Y-113031000D01*
X138992000Y-113031000D01*
X138992000Y-113275830D01*
X139099787Y-113536050D01*
X139298950Y-113735213D01*
X139559170Y-113843000D01*
X139969000Y-113843000D01*
X140146000Y-113666000D01*
X140146000Y-112854000D01*
X139169000Y-112854000D01*
X138992000Y-113031000D01*
X138800000Y-113031000D01*
X138800000Y-111838007D01*
X138979040Y-112105960D01*
X138979040Y-112105960D01*
G37*
X138979040Y-112105960D02*
X139059983Y-112160044D01*
X138992000Y-112324170D01*
X138992000Y-112569000D01*
X139169000Y-112746000D01*
X140146000Y-112746000D01*
X140146000Y-112726000D01*
X140254000Y-112726000D01*
X140254000Y-112746000D01*
X140274000Y-112746000D01*
X140274000Y-112854000D01*
X140254000Y-112854000D01*
X140254000Y-113666000D01*
X140431000Y-113843000D01*
X140570201Y-113843000D01*
X140570201Y-117546488D01*
X140570200Y-117546493D01*
X140570200Y-118346493D01*
X140544638Y-118475000D01*
X140570200Y-118603507D01*
X140570200Y-118603508D01*
X140645906Y-118984107D01*
X140934293Y-119415708D01*
X141043237Y-119488502D01*
X147459177Y-125904442D01*
X147559233Y-126146000D01*
X127401005Y-126146000D01*
X127610742Y-125936263D01*
X127900000Y-125237933D01*
X127900000Y-124482067D01*
X127610742Y-123783737D01*
X127227005Y-123400000D01*
X138600000Y-123400000D01*
X138676537Y-123384776D01*
X138741421Y-123341421D01*
X138784776Y-123276537D01*
X138800000Y-123200000D01*
X138800000Y-113031000D01*
X138992000Y-113031000D01*
X138992000Y-113275830D01*
X139099787Y-113536050D01*
X139298950Y-113735213D01*
X139559170Y-113843000D01*
X139969000Y-113843000D01*
X140146000Y-113666000D01*
X140146000Y-112854000D01*
X139169000Y-112854000D01*
X138992000Y-113031000D01*
X138800000Y-113031000D01*
X138800000Y-111838007D01*
X138979040Y-112105960D01*
G36*
X109686285Y-103923002D02*
X109785956Y-104072171D01*
X109785958Y-104072173D01*
X109855918Y-104176875D01*
X109960619Y-104246834D01*
X110513164Y-104799379D01*
X110583125Y-104904083D01*
X110726380Y-104999803D01*
X111325957Y-105599381D01*
X111395917Y-105704083D01*
X111500618Y-105774042D01*
X111500620Y-105774044D01*
X111664978Y-105883864D01*
X111810714Y-105981242D01*
X112176493Y-106054000D01*
X112176498Y-106054000D01*
X112300000Y-106078566D01*
X112423502Y-106054000D01*
X125400000Y-106054000D01*
X125400000Y-123051983D01*
X124923737Y-123249258D01*
X124730000Y-123442995D01*
X124536263Y-123249258D01*
X123837933Y-122960000D01*
X123082067Y-122960000D01*
X122383737Y-123249258D01*
X122190000Y-123442995D01*
X121996263Y-123249258D01*
X121297933Y-122960000D01*
X120542067Y-122960000D01*
X119843737Y-123249258D01*
X119650000Y-123442995D01*
X119456263Y-123249258D01*
X118757933Y-122960000D01*
X118002067Y-122960000D01*
X117303737Y-123249258D01*
X117110000Y-123442995D01*
X116916263Y-123249258D01*
X116217933Y-122960000D01*
X115462067Y-122960000D01*
X114763737Y-123249258D01*
X114570000Y-123442995D01*
X114376263Y-123249258D01*
X113677933Y-122960000D01*
X112922067Y-122960000D01*
X112223737Y-123249258D01*
X111740450Y-123732545D01*
X111679465Y-123502594D01*
X111090018Y-123254056D01*
X110450329Y-123250009D01*
X109857784Y-123491068D01*
X109840535Y-123502594D01*
X109779550Y-123732545D01*
X109296263Y-123249258D01*
X108597933Y-122960000D01*
X107842067Y-122960000D01*
X107143737Y-123249258D01*
X106945886Y-123447109D01*
X106839999Y-123426047D01*
X106701482Y-123453600D01*
X106291250Y-123535200D01*
X105826042Y-123846042D01*
X105747577Y-123963473D01*
X103880642Y-125830409D01*
X103550000Y-125830409D01*
X103425000Y-125855273D01*
X103300000Y-125830409D01*
X102906400Y-125830409D01*
X102906400Y-124482548D01*
X105696529Y-121692421D01*
X105813957Y-121613958D01*
X105892420Y-121496530D01*
X105892422Y-121496528D01*
X106124800Y-121148751D01*
X106233953Y-120600000D01*
X106206400Y-120461482D01*
X106206400Y-107682548D01*
X109116529Y-104772421D01*
X109233957Y-104693958D01*
X109544800Y-104228750D01*
X109624122Y-103829970D01*
X109686285Y-103923002D01*
X109686285Y-103923002D01*
G37*
X109686285Y-103923002D02*
X109785956Y-104072171D01*
X109785958Y-104072173D01*
X109855918Y-104176875D01*
X109960619Y-104246834D01*
X110513164Y-104799379D01*
X110583125Y-104904083D01*
X110726380Y-104999803D01*
X111325957Y-105599381D01*
X111395917Y-105704083D01*
X111500618Y-105774042D01*
X111500620Y-105774044D01*
X111664978Y-105883864D01*
X111810714Y-105981242D01*
X112176493Y-106054000D01*
X112176498Y-106054000D01*
X112300000Y-106078566D01*
X112423502Y-106054000D01*
X125400000Y-106054000D01*
X125400000Y-123051983D01*
X124923737Y-123249258D01*
X124730000Y-123442995D01*
X124536263Y-123249258D01*
X123837933Y-122960000D01*
X123082067Y-122960000D01*
X122383737Y-123249258D01*
X122190000Y-123442995D01*
X121996263Y-123249258D01*
X121297933Y-122960000D01*
X120542067Y-122960000D01*
X119843737Y-123249258D01*
X119650000Y-123442995D01*
X119456263Y-123249258D01*
X118757933Y-122960000D01*
X118002067Y-122960000D01*
X117303737Y-123249258D01*
X117110000Y-123442995D01*
X116916263Y-123249258D01*
X116217933Y-122960000D01*
X115462067Y-122960000D01*
X114763737Y-123249258D01*
X114570000Y-123442995D01*
X114376263Y-123249258D01*
X113677933Y-122960000D01*
X112922067Y-122960000D01*
X112223737Y-123249258D01*
X111740450Y-123732545D01*
X111679465Y-123502594D01*
X111090018Y-123254056D01*
X110450329Y-123250009D01*
X109857784Y-123491068D01*
X109840535Y-123502594D01*
X109779550Y-123732545D01*
X109296263Y-123249258D01*
X108597933Y-122960000D01*
X107842067Y-122960000D01*
X107143737Y-123249258D01*
X106945886Y-123447109D01*
X106839999Y-123426047D01*
X106701482Y-123453600D01*
X106291250Y-123535200D01*
X105826042Y-123846042D01*
X105747577Y-123963473D01*
X103880642Y-125830409D01*
X103550000Y-125830409D01*
X103425000Y-125855273D01*
X103300000Y-125830409D01*
X102906400Y-125830409D01*
X102906400Y-124482548D01*
X105696529Y-121692421D01*
X105813957Y-121613958D01*
X105892420Y-121496530D01*
X105892422Y-121496528D01*
X106124800Y-121148751D01*
X106233953Y-120600000D01*
X106206400Y-120461482D01*
X106206400Y-107682548D01*
X109116529Y-104772421D01*
X109233957Y-104693958D01*
X109544800Y-104228750D01*
X109624122Y-103829970D01*
X109686285Y-103923002D01*
G36*
X148826000Y-117933005D02*
X148826001Y-120956494D01*
X148801434Y-121080000D01*
X148826001Y-121203507D01*
X148862244Y-121385714D01*
X148898759Y-121569286D01*
X149105956Y-121879379D01*
X149105959Y-121879382D01*
X149175918Y-121984083D01*
X149222107Y-122014945D01*
X149386178Y-122411050D01*
X149788950Y-122813822D01*
X150315197Y-123031800D01*
X150884803Y-123031800D01*
X151411050Y-122813822D01*
X151813822Y-122411050D01*
X152031800Y-121884803D01*
X152031800Y-121315197D01*
X151813822Y-120788950D01*
X151411050Y-120386178D01*
X151334000Y-120354263D01*
X151334000Y-117933005D01*
X151350000Y-117917005D01*
X151543737Y-118110742D01*
X152242067Y-118400000D01*
X152997933Y-118400000D01*
X153696263Y-118110742D01*
X153890000Y-117917005D01*
X153906001Y-117933006D01*
X153906000Y-121431563D01*
X150229037Y-125108526D01*
X150013822Y-124588950D01*
X149611050Y-124186178D01*
X149304442Y-124059177D01*
X143179800Y-117934535D01*
X143179800Y-117822776D01*
X143379040Y-118120960D01*
X143709819Y-118341979D01*
X144100000Y-118419591D01*
X145900000Y-118419591D01*
X146290181Y-118341979D01*
X146620960Y-118120960D01*
X146758259Y-117915477D01*
X147209982Y-118105944D01*
X147849671Y-118109991D01*
X148442216Y-117868932D01*
X148459465Y-117857406D01*
X148520450Y-117627455D01*
X148826000Y-117933005D01*
X148826000Y-117933005D01*
G37*
X148826000Y-117933005D02*
X148826001Y-120956494D01*
X148801434Y-121080000D01*
X148826001Y-121203507D01*
X148862244Y-121385714D01*
X148898759Y-121569286D01*
X149105956Y-121879379D01*
X149105959Y-121879382D01*
X149175918Y-121984083D01*
X149222107Y-122014945D01*
X149386178Y-122411050D01*
X149788950Y-122813822D01*
X150315197Y-123031800D01*
X150884803Y-123031800D01*
X151411050Y-122813822D01*
X151813822Y-122411050D01*
X152031800Y-121884803D01*
X152031800Y-121315197D01*
X151813822Y-120788950D01*
X151411050Y-120386178D01*
X151334000Y-120354263D01*
X151334000Y-117933005D01*
X151350000Y-117917005D01*
X151543737Y-118110742D01*
X152242067Y-118400000D01*
X152997933Y-118400000D01*
X153696263Y-118110742D01*
X153890000Y-117917005D01*
X153906001Y-117933006D01*
X153906000Y-121431563D01*
X150229037Y-125108526D01*
X150013822Y-124588950D01*
X149611050Y-124186178D01*
X149304442Y-124059177D01*
X143179800Y-117934535D01*
X143179800Y-117822776D01*
X143379040Y-118120960D01*
X143709819Y-118341979D01*
X144100000Y-118419591D01*
X145900000Y-118419591D01*
X146290181Y-118341979D01*
X146620960Y-118120960D01*
X146758259Y-117915477D01*
X147209982Y-118105944D01*
X147849671Y-118109991D01*
X148442216Y-117868932D01*
X148459465Y-117857406D01*
X148520450Y-117627455D01*
X148826000Y-117933005D01*
G36*
X110850510Y-124845858D02*
X110836368Y-124860000D01*
X110850510Y-124874142D01*
X110774142Y-124950510D01*
X110760000Y-124936368D01*
X110745858Y-124950510D01*
X110669490Y-124874142D01*
X110683632Y-124860000D01*
X110669490Y-124845858D01*
X110745858Y-124769490D01*
X110760000Y-124783632D01*
X110774142Y-124769490D01*
X110850510Y-124845858D01*
X110850510Y-124845858D01*
G37*
X110850510Y-124845858D02*
X110836368Y-124860000D01*
X110850510Y-124874142D01*
X110774142Y-124950510D01*
X110760000Y-124936368D01*
X110745858Y-124950510D01*
X110669490Y-124874142D01*
X110683632Y-124860000D01*
X110669490Y-124845858D01*
X110745858Y-124769490D01*
X110760000Y-124783632D01*
X110774142Y-124769490D01*
X110850510Y-124845858D01*
G36*
X147630510Y-116485858D02*
X147616368Y-116500000D01*
X147630510Y-116514142D01*
X147554142Y-116590510D01*
X147540000Y-116576368D01*
X147525858Y-116590510D01*
X147449490Y-116514142D01*
X147463632Y-116500000D01*
X147449490Y-116485858D01*
X147525858Y-116409490D01*
X147540000Y-116423632D01*
X147554142Y-116409490D01*
X147630510Y-116485858D01*
X147630510Y-116485858D01*
G37*
X147630510Y-116485858D02*
X147616368Y-116500000D01*
X147630510Y-116514142D01*
X147554142Y-116590510D01*
X147540000Y-116576368D01*
X147525858Y-116590510D01*
X147449490Y-116514142D01*
X147463632Y-116500000D01*
X147449490Y-116485858D01*
X147525858Y-116409490D01*
X147540000Y-116423632D01*
X147554142Y-116409490D01*
X147630510Y-116485858D01*
G04 #@! TD*
M02*
