G04 #@! TF.GenerationSoftware,KiCad,Pcbnew,5.0.0-rc2-be01b52~65~ubuntu16.04.1*
G04 #@! TF.CreationDate,2018-06-25T12:20:31+02:00*
G04 #@! TF.ProjectId,Firefly,46697265666C792E6B696361645F7063,rev?*
G04 #@! TF.SameCoordinates,Original*
G04 #@! TF.FileFunction,Legend,Top*
G04 #@! TF.FilePolarity,Positive*
%FSLAX46Y46*%
G04 Gerber Fmt 4.6, Leading zero omitted, Abs format (unit mm)*
G04 Created by KiCad (PCBNEW 5.0.0-rc2-be01b52~65~ubuntu16.04.1) date Mon Jun 25 12:20:31 2018*
%MOMM*%
%LPD*%
G01*
G04 APERTURE LIST*
%ADD10C,0.200000*%
%ADD11C,0.158750*%
%ADD12C,0.120000*%
%ADD13C,0.150000*%
%ADD14C,0.350000*%
%ADD15C,0.450000*%
%ADD16R,1.500000X1.000000*%
%ADD17C,3.203200*%
%ADD18R,1.000000X0.670000*%
%ADD19R,0.670000X1.000000*%
%ADD20C,2.003200*%
%ADD21R,1.800000X1.800000*%
%ADD22R,1.524000X1.524000*%
%ADD23C,1.727200*%
%ADD24C,0.100000*%
%ADD25C,1.000000*%
%ADD26R,0.500000X1.500000*%
%ADD27R,1.000000X1.500000*%
G04 APERTURE END LIST*
D10*
X115600000Y-139542857D02*
X115714285Y-139542857D01*
X115828571Y-139600000D01*
X115885714Y-139657142D01*
X115942857Y-139771428D01*
X116000000Y-140000000D01*
X116000000Y-140285714D01*
X115942857Y-140514285D01*
X115885714Y-140628571D01*
X115828571Y-140685714D01*
X115714285Y-140742857D01*
X115600000Y-140742857D01*
X115485714Y-140685714D01*
X115428571Y-140628571D01*
X115371428Y-140514285D01*
X115314285Y-140285714D01*
X115314285Y-140000000D01*
X115371428Y-139771428D01*
X115428571Y-139657142D01*
X115485714Y-139600000D01*
X115600000Y-139542857D01*
X117028571Y-139942857D02*
X117028571Y-140742857D01*
X116742857Y-139485714D02*
X116457142Y-140342857D01*
X117200000Y-140342857D01*
X118514285Y-139485714D02*
X117485714Y-141028571D01*
X119542857Y-140742857D02*
X118857142Y-140742857D01*
X119200000Y-140742857D02*
X119200000Y-139542857D01*
X119085714Y-139714285D01*
X118971428Y-139828571D01*
X118857142Y-139885714D01*
X120228571Y-140057142D02*
X120114285Y-140000000D01*
X120057142Y-139942857D01*
X120000000Y-139828571D01*
X120000000Y-139771428D01*
X120057142Y-139657142D01*
X120114285Y-139600000D01*
X120228571Y-139542857D01*
X120457142Y-139542857D01*
X120571428Y-139600000D01*
X120628571Y-139657142D01*
X120685714Y-139771428D01*
X120685714Y-139828571D01*
X120628571Y-139942857D01*
X120571428Y-140000000D01*
X120457142Y-140057142D01*
X120228571Y-140057142D01*
X120114285Y-140114285D01*
X120057142Y-140171428D01*
X120000000Y-140285714D01*
X120000000Y-140514285D01*
X120057142Y-140628571D01*
X120114285Y-140685714D01*
X120228571Y-140742857D01*
X120457142Y-140742857D01*
X120571428Y-140685714D01*
X120628571Y-140628571D01*
X120685714Y-140514285D01*
X120685714Y-140285714D01*
X120628571Y-140171428D01*
X120571428Y-140114285D01*
X120457142Y-140057142D01*
X102228571Y-140742857D02*
X101828571Y-140171428D01*
X101542857Y-140742857D02*
X101542857Y-139542857D01*
X102000000Y-139542857D01*
X102114285Y-139600000D01*
X102171428Y-139657142D01*
X102228571Y-139771428D01*
X102228571Y-139942857D01*
X102171428Y-140057142D01*
X102114285Y-140114285D01*
X102000000Y-140171428D01*
X101542857Y-140171428D01*
X103200000Y-140685714D02*
X103085714Y-140742857D01*
X102857142Y-140742857D01*
X102742857Y-140685714D01*
X102685714Y-140571428D01*
X102685714Y-140114285D01*
X102742857Y-140000000D01*
X102857142Y-139942857D01*
X103085714Y-139942857D01*
X103200000Y-140000000D01*
X103257142Y-140114285D01*
X103257142Y-140228571D01*
X102685714Y-140342857D01*
X103657142Y-139942857D02*
X103942857Y-140742857D01*
X104228571Y-139942857D01*
X104685714Y-140628571D02*
X104742857Y-140685714D01*
X104685714Y-140742857D01*
X104628571Y-140685714D01*
X104685714Y-140628571D01*
X104685714Y-140742857D01*
X106800000Y-140742857D02*
X106114285Y-140742857D01*
X106457142Y-140742857D02*
X106457142Y-139542857D01*
X106342857Y-139714285D01*
X106228571Y-139828571D01*
X106114285Y-139885714D01*
X107314285Y-140628571D02*
X107371428Y-140685714D01*
X107314285Y-140742857D01*
X107257142Y-140685714D01*
X107314285Y-140628571D01*
X107314285Y-140742857D01*
X108114285Y-139542857D02*
X108228571Y-139542857D01*
X108342857Y-139600000D01*
X108400000Y-139657142D01*
X108457142Y-139771428D01*
X108514285Y-140000000D01*
X108514285Y-140285714D01*
X108457142Y-140514285D01*
X108400000Y-140628571D01*
X108342857Y-140685714D01*
X108228571Y-140742857D01*
X108114285Y-140742857D01*
X108000000Y-140685714D01*
X107942857Y-140628571D01*
X107885714Y-140514285D01*
X107828571Y-140285714D01*
X107828571Y-140000000D01*
X107885714Y-139771428D01*
X107942857Y-139657142D01*
X108000000Y-139600000D01*
X108114285Y-139542857D01*
D11*
X100961904Y-125980952D02*
X100961904Y-125485714D01*
X101266666Y-125752380D01*
X101266666Y-125638095D01*
X101304761Y-125561904D01*
X101342857Y-125523809D01*
X101419047Y-125485714D01*
X101609523Y-125485714D01*
X101685714Y-125523809D01*
X101723809Y-125561904D01*
X101761904Y-125638095D01*
X101761904Y-125866666D01*
X101723809Y-125942857D01*
X101685714Y-125980952D01*
X101685714Y-125142857D02*
X101723809Y-125104761D01*
X101761904Y-125142857D01*
X101723809Y-125180952D01*
X101685714Y-125142857D01*
X101761904Y-125142857D01*
X100961904Y-124838095D02*
X100961904Y-124342857D01*
X101266666Y-124609523D01*
X101266666Y-124495238D01*
X101304761Y-124419047D01*
X101342857Y-124380952D01*
X101419047Y-124342857D01*
X101609523Y-124342857D01*
X101685714Y-124380952D01*
X101723809Y-124419047D01*
X101761904Y-124495238D01*
X101761904Y-124723809D01*
X101723809Y-124800000D01*
X101685714Y-124838095D01*
X100961904Y-124114285D02*
X101761904Y-123847619D01*
X100961904Y-123580952D01*
X104241279Y-125152380D02*
X104241279Y-125533333D01*
X104622232Y-125571428D01*
X104584136Y-125533333D01*
X104546041Y-125457142D01*
X104546041Y-125266666D01*
X104584136Y-125190476D01*
X104622232Y-125152380D01*
X104698422Y-125114285D01*
X104888898Y-125114285D01*
X104965089Y-125152380D01*
X105003184Y-125190476D01*
X105041279Y-125266666D01*
X105041279Y-125457142D01*
X105003184Y-125533333D01*
X104965089Y-125571428D01*
X104241279Y-124885714D02*
X105041279Y-124619047D01*
X104241279Y-124352380D01*
D12*
G04 #@! TO.C,D3*
X129050000Y-135050000D02*
X121750000Y-135050000D01*
X129050000Y-129550000D02*
X121750000Y-129550000D01*
X121750000Y-129550000D02*
X121750000Y-130700000D01*
G04 #@! TO.C,C1*
X169510000Y-120655000D02*
X169510000Y-121095000D01*
X168490000Y-120655000D02*
X168490000Y-121095000D01*
G04 #@! TO.C,C2*
X107420000Y-136810000D02*
X106980000Y-136810000D01*
X107420000Y-135790000D02*
X106980000Y-135790000D01*
G04 #@! TO.C,C3*
X140710000Y-111705000D02*
X140710000Y-112145000D01*
X139690000Y-111705000D02*
X139690000Y-112145000D01*
G04 #@! TO.C,C4*
X117820000Y-135790000D02*
X117380000Y-135790000D01*
X117820000Y-136810000D02*
X117380000Y-136810000D01*
G04 #@! TO.C,C5*
X127820000Y-136710000D02*
X127380000Y-136710000D01*
X127820000Y-135690000D02*
X127380000Y-135690000D01*
G04 #@! TO.C,C6*
X137820000Y-136810000D02*
X137380000Y-136810000D01*
X137820000Y-135790000D02*
X137380000Y-135790000D01*
G04 #@! TO.C,C7*
X147820000Y-135790000D02*
X147380000Y-135790000D01*
X147820000Y-136810000D02*
X147380000Y-136810000D01*
G04 #@! TO.C,C8*
X157820000Y-135790000D02*
X157380000Y-135790000D01*
X157820000Y-136810000D02*
X157380000Y-136810000D01*
G04 #@! TO.C,C9*
X167820000Y-136810000D02*
X167380000Y-136810000D01*
X167820000Y-135790000D02*
X167380000Y-135790000D01*
G04 #@! TO.C,C10*
X177820000Y-135790000D02*
X177380000Y-135790000D01*
X177820000Y-136810000D02*
X177380000Y-136810000D01*
G04 #@! TO.C,C11*
X187745000Y-135790000D02*
X187305000Y-135790000D01*
X187745000Y-136810000D02*
X187305000Y-136810000D01*
G04 #@! TO.C,C12*
X197820000Y-135790000D02*
X197380000Y-135790000D01*
X197820000Y-136810000D02*
X197380000Y-136810000D01*
G04 #@! TO.C,D1*
X109050000Y-135050000D02*
X101750000Y-135050000D01*
X109050000Y-129550000D02*
X101750000Y-129550000D01*
X101750000Y-129550000D02*
X101750000Y-130700000D01*
G04 #@! TO.C,D2*
X111750000Y-129550000D02*
X111750000Y-130700000D01*
X119050000Y-129550000D02*
X111750000Y-129550000D01*
X119050000Y-135050000D02*
X111750000Y-135050000D01*
G04 #@! TO.C,D4*
X131750000Y-129550000D02*
X131750000Y-130700000D01*
X139050000Y-129550000D02*
X131750000Y-129550000D01*
X139050000Y-135050000D02*
X131750000Y-135050000D01*
G04 #@! TO.C,D5*
X141750000Y-129550000D02*
X141750000Y-130700000D01*
X149050000Y-129550000D02*
X141750000Y-129550000D01*
X149050000Y-135050000D02*
X141750000Y-135050000D01*
G04 #@! TO.C,D6*
X159050000Y-135050000D02*
X151750000Y-135050000D01*
X159050000Y-129550000D02*
X151750000Y-129550000D01*
X151750000Y-129550000D02*
X151750000Y-130700000D01*
G04 #@! TO.C,D7*
X169050000Y-135050000D02*
X161750000Y-135050000D01*
X169050000Y-129550000D02*
X161750000Y-129550000D01*
X161750000Y-129550000D02*
X161750000Y-130700000D01*
G04 #@! TO.C,D8*
X171750000Y-129550000D02*
X171750000Y-130700000D01*
X179050000Y-129550000D02*
X171750000Y-129550000D01*
X179050000Y-135050000D02*
X171750000Y-135050000D01*
G04 #@! TO.C,D9*
X189050000Y-135050000D02*
X181750000Y-135050000D01*
X189050000Y-129550000D02*
X181750000Y-129550000D01*
X181750000Y-129550000D02*
X181750000Y-130700000D01*
G04 #@! TO.C,D10*
X191750000Y-129550000D02*
X191750000Y-130700000D01*
X199050000Y-129550000D02*
X191750000Y-129550000D01*
X199050000Y-135050000D02*
X191750000Y-135050000D01*
D13*
G04 #@! TO.C,MD1*
X151690000Y-152490000D02*
X138190000Y-152490000D01*
X151690000Y-138990000D02*
X151690000Y-152490000D01*
X138190000Y-138990000D02*
X138190000Y-152490000D01*
X151690000Y-138990000D02*
X138190000Y-138990000D01*
G04 #@! TO.C,MD2*
X143310000Y-102720000D02*
X164310000Y-102720000D01*
X164320000Y-102730000D02*
X164320000Y-117930000D01*
X143320000Y-117920000D02*
X164320000Y-117920000D01*
X143310000Y-102710000D02*
X143310000Y-117910000D01*
D12*
G04 #@! TO.C,R1*
X171780000Y-122510000D02*
X172220000Y-122510000D01*
X171780000Y-121490000D02*
X172220000Y-121490000D01*
G04 #@! TO.C,R2*
X141220000Y-109310000D02*
X140780000Y-109310000D01*
X141220000Y-108290000D02*
X140780000Y-108290000D01*
D13*
G04 #@! TO.C,U1*
X174750000Y-118000000D02*
X168750000Y-118000000D01*
X168750000Y-118000000D02*
X168750000Y-102500000D01*
X168750000Y-102500000D02*
X180500000Y-102500000D01*
X180500000Y-102500000D02*
X180500000Y-118000000D01*
X180500000Y-118000000D02*
X174750000Y-118000000D01*
X172000000Y-103250000D02*
X173250000Y-103250000D01*
X173250000Y-103250000D02*
X173250000Y-105000000D01*
X173250000Y-105000000D02*
X172000000Y-105000000D01*
X172000000Y-105000000D02*
X172000000Y-103250000D01*
X175250000Y-103250000D02*
X175250000Y-105000000D01*
X175250000Y-105000000D02*
X174000000Y-105000000D01*
X174000000Y-105000000D02*
X174000000Y-103250000D01*
X174000000Y-103250000D02*
X175250000Y-103250000D01*
X176000000Y-103250000D02*
X177250000Y-103250000D01*
X177250000Y-103250000D02*
X177250000Y-105000000D01*
X177250000Y-105000000D02*
X176000000Y-105000000D01*
X176000000Y-105000000D02*
X176000000Y-103250000D01*
X169500000Y-105750000D02*
X171250000Y-105750000D01*
X169500000Y-109000000D02*
X169500000Y-107750000D01*
X169500000Y-107750000D02*
X171250000Y-107750000D01*
X171250000Y-107750000D02*
X171250000Y-109000000D01*
X171250000Y-105750000D02*
X171250000Y-107000000D01*
X171250000Y-109000000D02*
X169500000Y-109000000D01*
X169500000Y-107000000D02*
X169500000Y-105750000D01*
X171250000Y-107000000D02*
X169500000Y-107000000D01*
X179750000Y-107750000D02*
X179750000Y-109000000D01*
X178000000Y-107000000D02*
X178000000Y-105750000D01*
X179750000Y-107000000D02*
X178000000Y-107000000D01*
X178000000Y-109000000D02*
X178000000Y-107750000D01*
X178000000Y-105750000D02*
X179750000Y-105750000D01*
X179750000Y-105750000D02*
X179750000Y-107000000D01*
X179750000Y-109000000D02*
X178000000Y-109000000D01*
X178000000Y-107750000D02*
X179750000Y-107750000D01*
X173250000Y-107000000D02*
X172000000Y-107000000D01*
X172000000Y-105750000D02*
X173250000Y-105750000D01*
X172000000Y-105750000D02*
X172000000Y-107000000D01*
X173250000Y-107000000D02*
X173250000Y-105750000D01*
X175250000Y-107000000D02*
X175250000Y-105750000D01*
X174000000Y-105750000D02*
X174000000Y-107000000D01*
X175250000Y-107000000D02*
X174000000Y-107000000D01*
X174000000Y-105750000D02*
X175250000Y-105750000D01*
X176000000Y-105750000D02*
X176000000Y-107000000D01*
X177250000Y-107000000D02*
X176000000Y-107000000D01*
X176000000Y-105750000D02*
X177250000Y-105750000D01*
X177250000Y-107000000D02*
X177250000Y-105750000D01*
X173250000Y-109000000D02*
X172000000Y-109000000D01*
X172000000Y-107750000D02*
X172000000Y-109000000D01*
X172000000Y-107750000D02*
X173250000Y-107750000D01*
X173250000Y-109000000D02*
X173250000Y-107750000D01*
X175250000Y-109000000D02*
X174000000Y-109000000D01*
X174000000Y-107750000D02*
X174000000Y-109000000D01*
X175250000Y-109000000D02*
X175250000Y-107750000D01*
X174000000Y-107750000D02*
X175250000Y-107750000D01*
X177250000Y-109000000D02*
X177250000Y-107750000D01*
X176000000Y-107750000D02*
X177250000Y-107750000D01*
X177250000Y-109000000D02*
X176000000Y-109000000D01*
X176000000Y-107750000D02*
X176000000Y-109000000D01*
X178000000Y-113000000D02*
X178000000Y-111750000D01*
X179750000Y-111750000D02*
X179750000Y-113000000D01*
X179750000Y-113000000D02*
X178000000Y-113000000D01*
X175250000Y-111000000D02*
X175250000Y-109750000D01*
X178000000Y-111750000D02*
X179750000Y-111750000D01*
X173250000Y-111000000D02*
X173250000Y-109750000D01*
X173250000Y-111000000D02*
X172000000Y-111000000D01*
X172000000Y-109750000D02*
X172000000Y-111000000D01*
X176000000Y-109750000D02*
X176000000Y-111000000D01*
X172000000Y-109750000D02*
X173250000Y-109750000D01*
X178000000Y-111000000D02*
X178000000Y-109750000D01*
X179750000Y-111000000D02*
X178000000Y-111000000D01*
X179750000Y-109750000D02*
X179750000Y-111000000D01*
X169500000Y-111750000D02*
X171250000Y-111750000D01*
X177250000Y-111000000D02*
X176000000Y-111000000D01*
X176000000Y-109750000D02*
X177250000Y-109750000D01*
X175250000Y-111000000D02*
X174000000Y-111000000D01*
X171250000Y-109750000D02*
X171250000Y-111000000D01*
X171250000Y-111750000D02*
X171250000Y-113000000D01*
X173250000Y-113000000D02*
X173250000Y-111750000D01*
X175250000Y-113000000D02*
X174000000Y-113000000D01*
X174000000Y-111750000D02*
X174000000Y-113000000D01*
X171250000Y-111000000D02*
X169500000Y-111000000D01*
X174000000Y-109750000D02*
X174000000Y-111000000D01*
X172000000Y-111750000D02*
X172000000Y-113000000D01*
X172000000Y-111750000D02*
X173250000Y-111750000D01*
X175250000Y-113000000D02*
X175250000Y-111750000D01*
X174000000Y-111750000D02*
X175250000Y-111750000D01*
X177250000Y-113000000D02*
X177250000Y-111750000D01*
X176000000Y-111750000D02*
X177250000Y-111750000D01*
X177250000Y-113000000D02*
X176000000Y-113000000D01*
X176000000Y-111750000D02*
X176000000Y-113000000D01*
X169500000Y-111000000D02*
X169500000Y-109750000D01*
X171250000Y-113000000D02*
X169500000Y-113000000D01*
X169500000Y-109750000D02*
X171250000Y-109750000D01*
X178000000Y-109750000D02*
X179750000Y-109750000D01*
X177250000Y-111000000D02*
X177250000Y-109750000D01*
X173250000Y-113000000D02*
X172000000Y-113000000D01*
X169500000Y-113000000D02*
X169500000Y-111750000D01*
X174000000Y-109750000D02*
X175250000Y-109750000D01*
X176000000Y-113750000D02*
X177250000Y-113750000D01*
X175250000Y-115000000D02*
X174000000Y-115000000D01*
X171250000Y-113750000D02*
X171250000Y-115000000D01*
X171250000Y-115000000D02*
X169500000Y-115000000D01*
X174000000Y-113750000D02*
X174000000Y-115000000D01*
X175250000Y-115000000D02*
X175250000Y-113750000D01*
X173250000Y-115000000D02*
X173250000Y-113750000D01*
X173250000Y-115000000D02*
X172000000Y-115000000D01*
X172000000Y-113750000D02*
X172000000Y-115000000D01*
X177250000Y-115000000D02*
X176000000Y-115000000D01*
X169500000Y-115000000D02*
X169500000Y-113750000D01*
X178000000Y-113750000D02*
X179750000Y-113750000D01*
X177250000Y-115000000D02*
X177250000Y-113750000D01*
X174000000Y-113750000D02*
X175250000Y-113750000D01*
X176000000Y-113750000D02*
X176000000Y-115000000D01*
X169500000Y-113750000D02*
X171250000Y-113750000D01*
X172000000Y-113750000D02*
X173250000Y-113750000D01*
X178000000Y-115000000D02*
X178000000Y-113750000D01*
X179750000Y-115000000D02*
X178000000Y-115000000D01*
X179750000Y-113750000D02*
X179750000Y-115000000D01*
G04 #@! TO.C,U2*
X106300000Y-102900000D02*
X107200000Y-100600000D01*
X129600000Y-100600000D02*
X107300000Y-100600000D01*
X134200000Y-105300000D02*
X134200000Y-123500000D01*
X100000000Y-102900000D02*
X106300000Y-102900000D01*
X130000000Y-126300000D02*
X100000000Y-126300000D01*
X100000000Y-102900000D02*
X100000000Y-126300000D01*
X134179224Y-123488948D02*
G75*
G02X129500000Y-126300000I-4679224J2488948D01*
G01*
X129400000Y-100600000D02*
G75*
G02X134200000Y-105400000I0J-4800000D01*
G01*
D12*
G04 #@! TO.C,JP1*
X101600000Y-128800000D02*
X101900000Y-129100000D01*
X101300000Y-129100000D02*
X101900000Y-129100000D01*
X101600000Y-128800000D02*
X101300000Y-129100000D01*
X100750000Y-127900000D02*
X100750000Y-127300000D01*
X104200000Y-128600000D02*
X101400000Y-128600000D01*
X104850000Y-127300000D02*
X104850000Y-127900000D01*
X101400000Y-126600000D02*
X104200000Y-126600000D01*
X104150000Y-126600000D02*
G75*
G02X104850000Y-127300000I0J-700000D01*
G01*
X104850000Y-127900000D02*
G75*
G02X104150000Y-128600000I-700000J0D01*
G01*
X101450000Y-128600000D02*
G75*
G02X100750000Y-127900000I0J700000D01*
G01*
X100750000Y-127300000D02*
G75*
G02X101450000Y-126600000I700000J0D01*
G01*
G04 #@! TO.C,D3*
D13*
X124661904Y-129252380D02*
X124661904Y-128252380D01*
X124900000Y-128252380D01*
X125042857Y-128300000D01*
X125138095Y-128395238D01*
X125185714Y-128490476D01*
X125233333Y-128680952D01*
X125233333Y-128823809D01*
X125185714Y-129014285D01*
X125138095Y-129109523D01*
X125042857Y-129204761D01*
X124900000Y-129252380D01*
X124661904Y-129252380D01*
X125566666Y-128252380D02*
X126185714Y-128252380D01*
X125852380Y-128633333D01*
X125995238Y-128633333D01*
X126090476Y-128680952D01*
X126138095Y-128728571D01*
X126185714Y-128823809D01*
X126185714Y-129061904D01*
X126138095Y-129157142D01*
X126090476Y-129204761D01*
X125995238Y-129252380D01*
X125709523Y-129252380D01*
X125614285Y-129204761D01*
X125566666Y-129157142D01*
X129835714Y-134352380D02*
X129264285Y-134352380D01*
X129550000Y-134352380D02*
X129550000Y-133352380D01*
X129454761Y-133495238D01*
X129359523Y-133590476D01*
X129264285Y-133638095D01*
G04 #@! TO.C,REF\002A\002A*
X110666666Y-135452380D02*
X110333333Y-134976190D01*
X110095238Y-135452380D02*
X110095238Y-134452380D01*
X110476190Y-134452380D01*
X110571428Y-134500000D01*
X110619047Y-134547619D01*
X110666666Y-134642857D01*
X110666666Y-134785714D01*
X110619047Y-134880952D01*
X110571428Y-134928571D01*
X110476190Y-134976190D01*
X110095238Y-134976190D01*
X111095238Y-134928571D02*
X111428571Y-134928571D01*
X111571428Y-135452380D02*
X111095238Y-135452380D01*
X111095238Y-134452380D01*
X111571428Y-134452380D01*
X112333333Y-134928571D02*
X112000000Y-134928571D01*
X112000000Y-135452380D02*
X112000000Y-134452380D01*
X112476190Y-134452380D01*
X113000000Y-134452380D02*
X113000000Y-134690476D01*
X112761904Y-134595238D02*
X113000000Y-134690476D01*
X113238095Y-134595238D01*
X112857142Y-134880952D02*
X113000000Y-134690476D01*
X113142857Y-134880952D01*
X113761904Y-134452380D02*
X113761904Y-134690476D01*
X113523809Y-134595238D02*
X113761904Y-134690476D01*
X114000000Y-134595238D01*
X113619047Y-134880952D02*
X113761904Y-134690476D01*
X113904761Y-134880952D01*
G04 #@! TO.C,C1*
X167957142Y-120966666D02*
X168004761Y-121014285D01*
X168052380Y-121157142D01*
X168052380Y-121252380D01*
X168004761Y-121395238D01*
X167909523Y-121490476D01*
X167814285Y-121538095D01*
X167623809Y-121585714D01*
X167480952Y-121585714D01*
X167290476Y-121538095D01*
X167195238Y-121490476D01*
X167100000Y-121395238D01*
X167052380Y-121252380D01*
X167052380Y-121157142D01*
X167100000Y-121014285D01*
X167147619Y-120966666D01*
X168052380Y-120014285D02*
X168052380Y-120585714D01*
X168052380Y-120300000D02*
X167052380Y-120300000D01*
X167195238Y-120395238D01*
X167290476Y-120490476D01*
X167338095Y-120585714D01*
G04 #@! TO.C,C2*
X107033333Y-138157142D02*
X106985714Y-138204761D01*
X106842857Y-138252380D01*
X106747619Y-138252380D01*
X106604761Y-138204761D01*
X106509523Y-138109523D01*
X106461904Y-138014285D01*
X106414285Y-137823809D01*
X106414285Y-137680952D01*
X106461904Y-137490476D01*
X106509523Y-137395238D01*
X106604761Y-137300000D01*
X106747619Y-137252380D01*
X106842857Y-137252380D01*
X106985714Y-137300000D01*
X107033333Y-137347619D01*
X107414285Y-137347619D02*
X107461904Y-137300000D01*
X107557142Y-137252380D01*
X107795238Y-137252380D01*
X107890476Y-137300000D01*
X107938095Y-137347619D01*
X107985714Y-137442857D01*
X107985714Y-137538095D01*
X107938095Y-137680952D01*
X107366666Y-138252380D01*
X107985714Y-138252380D01*
G04 #@! TO.C,C3*
X142357142Y-112091666D02*
X142404761Y-112139285D01*
X142452380Y-112282142D01*
X142452380Y-112377380D01*
X142404761Y-112520238D01*
X142309523Y-112615476D01*
X142214285Y-112663095D01*
X142023809Y-112710714D01*
X141880952Y-112710714D01*
X141690476Y-112663095D01*
X141595238Y-112615476D01*
X141500000Y-112520238D01*
X141452380Y-112377380D01*
X141452380Y-112282142D01*
X141500000Y-112139285D01*
X141547619Y-112091666D01*
X141452380Y-111758333D02*
X141452380Y-111139285D01*
X141833333Y-111472619D01*
X141833333Y-111329761D01*
X141880952Y-111234523D01*
X141928571Y-111186904D01*
X142023809Y-111139285D01*
X142261904Y-111139285D01*
X142357142Y-111186904D01*
X142404761Y-111234523D01*
X142452380Y-111329761D01*
X142452380Y-111615476D01*
X142404761Y-111710714D01*
X142357142Y-111758333D01*
G04 #@! TO.C,C4*
X117433333Y-138157142D02*
X117385714Y-138204761D01*
X117242857Y-138252380D01*
X117147619Y-138252380D01*
X117004761Y-138204761D01*
X116909523Y-138109523D01*
X116861904Y-138014285D01*
X116814285Y-137823809D01*
X116814285Y-137680952D01*
X116861904Y-137490476D01*
X116909523Y-137395238D01*
X117004761Y-137300000D01*
X117147619Y-137252380D01*
X117242857Y-137252380D01*
X117385714Y-137300000D01*
X117433333Y-137347619D01*
X118290476Y-137585714D02*
X118290476Y-138252380D01*
X118052380Y-137204761D02*
X117814285Y-137919047D01*
X118433333Y-137919047D01*
G04 #@! TO.C,C5*
X127433333Y-137957142D02*
X127385714Y-138004761D01*
X127242857Y-138052380D01*
X127147619Y-138052380D01*
X127004761Y-138004761D01*
X126909523Y-137909523D01*
X126861904Y-137814285D01*
X126814285Y-137623809D01*
X126814285Y-137480952D01*
X126861904Y-137290476D01*
X126909523Y-137195238D01*
X127004761Y-137100000D01*
X127147619Y-137052380D01*
X127242857Y-137052380D01*
X127385714Y-137100000D01*
X127433333Y-137147619D01*
X128338095Y-137052380D02*
X127861904Y-137052380D01*
X127814285Y-137528571D01*
X127861904Y-137480952D01*
X127957142Y-137433333D01*
X128195238Y-137433333D01*
X128290476Y-137480952D01*
X128338095Y-137528571D01*
X128385714Y-137623809D01*
X128385714Y-137861904D01*
X128338095Y-137957142D01*
X128290476Y-138004761D01*
X128195238Y-138052380D01*
X127957142Y-138052380D01*
X127861904Y-138004761D01*
X127814285Y-137957142D01*
G04 #@! TO.C,C6*
X137433333Y-138157142D02*
X137385714Y-138204761D01*
X137242857Y-138252380D01*
X137147619Y-138252380D01*
X137004761Y-138204761D01*
X136909523Y-138109523D01*
X136861904Y-138014285D01*
X136814285Y-137823809D01*
X136814285Y-137680952D01*
X136861904Y-137490476D01*
X136909523Y-137395238D01*
X137004761Y-137300000D01*
X137147619Y-137252380D01*
X137242857Y-137252380D01*
X137385714Y-137300000D01*
X137433333Y-137347619D01*
X138290476Y-137252380D02*
X138100000Y-137252380D01*
X138004761Y-137300000D01*
X137957142Y-137347619D01*
X137861904Y-137490476D01*
X137814285Y-137680952D01*
X137814285Y-138061904D01*
X137861904Y-138157142D01*
X137909523Y-138204761D01*
X138004761Y-138252380D01*
X138195238Y-138252380D01*
X138290476Y-138204761D01*
X138338095Y-138157142D01*
X138385714Y-138061904D01*
X138385714Y-137823809D01*
X138338095Y-137728571D01*
X138290476Y-137680952D01*
X138195238Y-137633333D01*
X138004761Y-137633333D01*
X137909523Y-137680952D01*
X137861904Y-137728571D01*
X137814285Y-137823809D01*
G04 #@! TO.C,C7*
X150033333Y-136757142D02*
X149985714Y-136804761D01*
X149842857Y-136852380D01*
X149747619Y-136852380D01*
X149604761Y-136804761D01*
X149509523Y-136709523D01*
X149461904Y-136614285D01*
X149414285Y-136423809D01*
X149414285Y-136280952D01*
X149461904Y-136090476D01*
X149509523Y-135995238D01*
X149604761Y-135900000D01*
X149747619Y-135852380D01*
X149842857Y-135852380D01*
X149985714Y-135900000D01*
X150033333Y-135947619D01*
X150366666Y-135852380D02*
X151033333Y-135852380D01*
X150604761Y-136852380D01*
G04 #@! TO.C,C8*
X157433333Y-138157142D02*
X157385714Y-138204761D01*
X157242857Y-138252380D01*
X157147619Y-138252380D01*
X157004761Y-138204761D01*
X156909523Y-138109523D01*
X156861904Y-138014285D01*
X156814285Y-137823809D01*
X156814285Y-137680952D01*
X156861904Y-137490476D01*
X156909523Y-137395238D01*
X157004761Y-137300000D01*
X157147619Y-137252380D01*
X157242857Y-137252380D01*
X157385714Y-137300000D01*
X157433333Y-137347619D01*
X158004761Y-137680952D02*
X157909523Y-137633333D01*
X157861904Y-137585714D01*
X157814285Y-137490476D01*
X157814285Y-137442857D01*
X157861904Y-137347619D01*
X157909523Y-137300000D01*
X158004761Y-137252380D01*
X158195238Y-137252380D01*
X158290476Y-137300000D01*
X158338095Y-137347619D01*
X158385714Y-137442857D01*
X158385714Y-137490476D01*
X158338095Y-137585714D01*
X158290476Y-137633333D01*
X158195238Y-137680952D01*
X158004761Y-137680952D01*
X157909523Y-137728571D01*
X157861904Y-137776190D01*
X157814285Y-137871428D01*
X157814285Y-138061904D01*
X157861904Y-138157142D01*
X157909523Y-138204761D01*
X158004761Y-138252380D01*
X158195238Y-138252380D01*
X158290476Y-138204761D01*
X158338095Y-138157142D01*
X158385714Y-138061904D01*
X158385714Y-137871428D01*
X158338095Y-137776190D01*
X158290476Y-137728571D01*
X158195238Y-137680952D01*
G04 #@! TO.C,C9*
X167433333Y-138307142D02*
X167385714Y-138354761D01*
X167242857Y-138402380D01*
X167147619Y-138402380D01*
X167004761Y-138354761D01*
X166909523Y-138259523D01*
X166861904Y-138164285D01*
X166814285Y-137973809D01*
X166814285Y-137830952D01*
X166861904Y-137640476D01*
X166909523Y-137545238D01*
X167004761Y-137450000D01*
X167147619Y-137402380D01*
X167242857Y-137402380D01*
X167385714Y-137450000D01*
X167433333Y-137497619D01*
X167909523Y-138402380D02*
X168100000Y-138402380D01*
X168195238Y-138354761D01*
X168242857Y-138307142D01*
X168338095Y-138164285D01*
X168385714Y-137973809D01*
X168385714Y-137592857D01*
X168338095Y-137497619D01*
X168290476Y-137450000D01*
X168195238Y-137402380D01*
X168004761Y-137402380D01*
X167909523Y-137450000D01*
X167861904Y-137497619D01*
X167814285Y-137592857D01*
X167814285Y-137830952D01*
X167861904Y-137926190D01*
X167909523Y-137973809D01*
X168004761Y-138021428D01*
X168195238Y-138021428D01*
X168290476Y-137973809D01*
X168338095Y-137926190D01*
X168385714Y-137830952D01*
G04 #@! TO.C,C10*
X178157142Y-137957142D02*
X178109523Y-138004761D01*
X177966666Y-138052380D01*
X177871428Y-138052380D01*
X177728571Y-138004761D01*
X177633333Y-137909523D01*
X177585714Y-137814285D01*
X177538095Y-137623809D01*
X177538095Y-137480952D01*
X177585714Y-137290476D01*
X177633333Y-137195238D01*
X177728571Y-137100000D01*
X177871428Y-137052380D01*
X177966666Y-137052380D01*
X178109523Y-137100000D01*
X178157142Y-137147619D01*
X179109523Y-138052380D02*
X178538095Y-138052380D01*
X178823809Y-138052380D02*
X178823809Y-137052380D01*
X178728571Y-137195238D01*
X178633333Y-137290476D01*
X178538095Y-137338095D01*
X179728571Y-137052380D02*
X179823809Y-137052380D01*
X179919047Y-137100000D01*
X179966666Y-137147619D01*
X180014285Y-137242857D01*
X180061904Y-137433333D01*
X180061904Y-137671428D01*
X180014285Y-137861904D01*
X179966666Y-137957142D01*
X179919047Y-138004761D01*
X179823809Y-138052380D01*
X179728571Y-138052380D01*
X179633333Y-138004761D01*
X179585714Y-137957142D01*
X179538095Y-137861904D01*
X179490476Y-137671428D01*
X179490476Y-137433333D01*
X179538095Y-137242857D01*
X179585714Y-137147619D01*
X179633333Y-137100000D01*
X179728571Y-137052380D01*
G04 #@! TO.C,C11*
X188157142Y-138157142D02*
X188109523Y-138204761D01*
X187966666Y-138252380D01*
X187871428Y-138252380D01*
X187728571Y-138204761D01*
X187633333Y-138109523D01*
X187585714Y-138014285D01*
X187538095Y-137823809D01*
X187538095Y-137680952D01*
X187585714Y-137490476D01*
X187633333Y-137395238D01*
X187728571Y-137300000D01*
X187871428Y-137252380D01*
X187966666Y-137252380D01*
X188109523Y-137300000D01*
X188157142Y-137347619D01*
X189109523Y-138252380D02*
X188538095Y-138252380D01*
X188823809Y-138252380D02*
X188823809Y-137252380D01*
X188728571Y-137395238D01*
X188633333Y-137490476D01*
X188538095Y-137538095D01*
X190061904Y-138252380D02*
X189490476Y-138252380D01*
X189776190Y-138252380D02*
X189776190Y-137252380D01*
X189680952Y-137395238D01*
X189585714Y-137490476D01*
X189490476Y-137538095D01*
G04 #@! TO.C,C12*
X197957142Y-138157142D02*
X197909523Y-138204761D01*
X197766666Y-138252380D01*
X197671428Y-138252380D01*
X197528571Y-138204761D01*
X197433333Y-138109523D01*
X197385714Y-138014285D01*
X197338095Y-137823809D01*
X197338095Y-137680952D01*
X197385714Y-137490476D01*
X197433333Y-137395238D01*
X197528571Y-137300000D01*
X197671428Y-137252380D01*
X197766666Y-137252380D01*
X197909523Y-137300000D01*
X197957142Y-137347619D01*
X198909523Y-138252380D02*
X198338095Y-138252380D01*
X198623809Y-138252380D02*
X198623809Y-137252380D01*
X198528571Y-137395238D01*
X198433333Y-137490476D01*
X198338095Y-137538095D01*
X199290476Y-137347619D02*
X199338095Y-137300000D01*
X199433333Y-137252380D01*
X199671428Y-137252380D01*
X199766666Y-137300000D01*
X199814285Y-137347619D01*
X199861904Y-137442857D01*
X199861904Y-137538095D01*
X199814285Y-137680952D01*
X199242857Y-138252380D01*
X199861904Y-138252380D01*
G04 #@! TO.C,D1*
X104661904Y-129252380D02*
X104661904Y-128252380D01*
X104900000Y-128252380D01*
X105042857Y-128300000D01*
X105138095Y-128395238D01*
X105185714Y-128490476D01*
X105233333Y-128680952D01*
X105233333Y-128823809D01*
X105185714Y-129014285D01*
X105138095Y-129109523D01*
X105042857Y-129204761D01*
X104900000Y-129252380D01*
X104661904Y-129252380D01*
X106185714Y-129252380D02*
X105614285Y-129252380D01*
X105900000Y-129252380D02*
X105900000Y-128252380D01*
X105804761Y-128395238D01*
X105709523Y-128490476D01*
X105614285Y-128538095D01*
X109835714Y-134352380D02*
X109264285Y-134352380D01*
X109550000Y-134352380D02*
X109550000Y-133352380D01*
X109454761Y-133495238D01*
X109359523Y-133590476D01*
X109264285Y-133638095D01*
G04 #@! TO.C,D2*
X114661904Y-129252380D02*
X114661904Y-128252380D01*
X114900000Y-128252380D01*
X115042857Y-128300000D01*
X115138095Y-128395238D01*
X115185714Y-128490476D01*
X115233333Y-128680952D01*
X115233333Y-128823809D01*
X115185714Y-129014285D01*
X115138095Y-129109523D01*
X115042857Y-129204761D01*
X114900000Y-129252380D01*
X114661904Y-129252380D01*
X115614285Y-128347619D02*
X115661904Y-128300000D01*
X115757142Y-128252380D01*
X115995238Y-128252380D01*
X116090476Y-128300000D01*
X116138095Y-128347619D01*
X116185714Y-128442857D01*
X116185714Y-128538095D01*
X116138095Y-128680952D01*
X115566666Y-129252380D01*
X116185714Y-129252380D01*
X119835714Y-134352380D02*
X119264285Y-134352380D01*
X119550000Y-134352380D02*
X119550000Y-133352380D01*
X119454761Y-133495238D01*
X119359523Y-133590476D01*
X119264285Y-133638095D01*
G04 #@! TO.C,D4*
X134661904Y-129252380D02*
X134661904Y-128252380D01*
X134900000Y-128252380D01*
X135042857Y-128300000D01*
X135138095Y-128395238D01*
X135185714Y-128490476D01*
X135233333Y-128680952D01*
X135233333Y-128823809D01*
X135185714Y-129014285D01*
X135138095Y-129109523D01*
X135042857Y-129204761D01*
X134900000Y-129252380D01*
X134661904Y-129252380D01*
X136090476Y-128585714D02*
X136090476Y-129252380D01*
X135852380Y-128204761D02*
X135614285Y-128919047D01*
X136233333Y-128919047D01*
X139835714Y-134352380D02*
X139264285Y-134352380D01*
X139550000Y-134352380D02*
X139550000Y-133352380D01*
X139454761Y-133495238D01*
X139359523Y-133590476D01*
X139264285Y-133638095D01*
G04 #@! TO.C,D5*
X144661904Y-129252380D02*
X144661904Y-128252380D01*
X144900000Y-128252380D01*
X145042857Y-128300000D01*
X145138095Y-128395238D01*
X145185714Y-128490476D01*
X145233333Y-128680952D01*
X145233333Y-128823809D01*
X145185714Y-129014285D01*
X145138095Y-129109523D01*
X145042857Y-129204761D01*
X144900000Y-129252380D01*
X144661904Y-129252380D01*
X146138095Y-128252380D02*
X145661904Y-128252380D01*
X145614285Y-128728571D01*
X145661904Y-128680952D01*
X145757142Y-128633333D01*
X145995238Y-128633333D01*
X146090476Y-128680952D01*
X146138095Y-128728571D01*
X146185714Y-128823809D01*
X146185714Y-129061904D01*
X146138095Y-129157142D01*
X146090476Y-129204761D01*
X145995238Y-129252380D01*
X145757142Y-129252380D01*
X145661904Y-129204761D01*
X145614285Y-129157142D01*
X149835714Y-134352380D02*
X149264285Y-134352380D01*
X149550000Y-134352380D02*
X149550000Y-133352380D01*
X149454761Y-133495238D01*
X149359523Y-133590476D01*
X149264285Y-133638095D01*
G04 #@! TO.C,D6*
X154661904Y-129252380D02*
X154661904Y-128252380D01*
X154900000Y-128252380D01*
X155042857Y-128300000D01*
X155138095Y-128395238D01*
X155185714Y-128490476D01*
X155233333Y-128680952D01*
X155233333Y-128823809D01*
X155185714Y-129014285D01*
X155138095Y-129109523D01*
X155042857Y-129204761D01*
X154900000Y-129252380D01*
X154661904Y-129252380D01*
X156090476Y-128252380D02*
X155900000Y-128252380D01*
X155804761Y-128300000D01*
X155757142Y-128347619D01*
X155661904Y-128490476D01*
X155614285Y-128680952D01*
X155614285Y-129061904D01*
X155661904Y-129157142D01*
X155709523Y-129204761D01*
X155804761Y-129252380D01*
X155995238Y-129252380D01*
X156090476Y-129204761D01*
X156138095Y-129157142D01*
X156185714Y-129061904D01*
X156185714Y-128823809D01*
X156138095Y-128728571D01*
X156090476Y-128680952D01*
X155995238Y-128633333D01*
X155804761Y-128633333D01*
X155709523Y-128680952D01*
X155661904Y-128728571D01*
X155614285Y-128823809D01*
X159835714Y-134352380D02*
X159264285Y-134352380D01*
X159550000Y-134352380D02*
X159550000Y-133352380D01*
X159454761Y-133495238D01*
X159359523Y-133590476D01*
X159264285Y-133638095D01*
G04 #@! TO.C,D7*
X164661904Y-129252380D02*
X164661904Y-128252380D01*
X164900000Y-128252380D01*
X165042857Y-128300000D01*
X165138095Y-128395238D01*
X165185714Y-128490476D01*
X165233333Y-128680952D01*
X165233333Y-128823809D01*
X165185714Y-129014285D01*
X165138095Y-129109523D01*
X165042857Y-129204761D01*
X164900000Y-129252380D01*
X164661904Y-129252380D01*
X165566666Y-128252380D02*
X166233333Y-128252380D01*
X165804761Y-129252380D01*
X169835714Y-134352380D02*
X169264285Y-134352380D01*
X169550000Y-134352380D02*
X169550000Y-133352380D01*
X169454761Y-133495238D01*
X169359523Y-133590476D01*
X169264285Y-133638095D01*
G04 #@! TO.C,D8*
X174661904Y-129252380D02*
X174661904Y-128252380D01*
X174900000Y-128252380D01*
X175042857Y-128300000D01*
X175138095Y-128395238D01*
X175185714Y-128490476D01*
X175233333Y-128680952D01*
X175233333Y-128823809D01*
X175185714Y-129014285D01*
X175138095Y-129109523D01*
X175042857Y-129204761D01*
X174900000Y-129252380D01*
X174661904Y-129252380D01*
X175804761Y-128680952D02*
X175709523Y-128633333D01*
X175661904Y-128585714D01*
X175614285Y-128490476D01*
X175614285Y-128442857D01*
X175661904Y-128347619D01*
X175709523Y-128300000D01*
X175804761Y-128252380D01*
X175995238Y-128252380D01*
X176090476Y-128300000D01*
X176138095Y-128347619D01*
X176185714Y-128442857D01*
X176185714Y-128490476D01*
X176138095Y-128585714D01*
X176090476Y-128633333D01*
X175995238Y-128680952D01*
X175804761Y-128680952D01*
X175709523Y-128728571D01*
X175661904Y-128776190D01*
X175614285Y-128871428D01*
X175614285Y-129061904D01*
X175661904Y-129157142D01*
X175709523Y-129204761D01*
X175804761Y-129252380D01*
X175995238Y-129252380D01*
X176090476Y-129204761D01*
X176138095Y-129157142D01*
X176185714Y-129061904D01*
X176185714Y-128871428D01*
X176138095Y-128776190D01*
X176090476Y-128728571D01*
X175995238Y-128680952D01*
X179835714Y-134352380D02*
X179264285Y-134352380D01*
X179550000Y-134352380D02*
X179550000Y-133352380D01*
X179454761Y-133495238D01*
X179359523Y-133590476D01*
X179264285Y-133638095D01*
G04 #@! TO.C,D9*
X184661904Y-129252380D02*
X184661904Y-128252380D01*
X184900000Y-128252380D01*
X185042857Y-128300000D01*
X185138095Y-128395238D01*
X185185714Y-128490476D01*
X185233333Y-128680952D01*
X185233333Y-128823809D01*
X185185714Y-129014285D01*
X185138095Y-129109523D01*
X185042857Y-129204761D01*
X184900000Y-129252380D01*
X184661904Y-129252380D01*
X185709523Y-129252380D02*
X185900000Y-129252380D01*
X185995238Y-129204761D01*
X186042857Y-129157142D01*
X186138095Y-129014285D01*
X186185714Y-128823809D01*
X186185714Y-128442857D01*
X186138095Y-128347619D01*
X186090476Y-128300000D01*
X185995238Y-128252380D01*
X185804761Y-128252380D01*
X185709523Y-128300000D01*
X185661904Y-128347619D01*
X185614285Y-128442857D01*
X185614285Y-128680952D01*
X185661904Y-128776190D01*
X185709523Y-128823809D01*
X185804761Y-128871428D01*
X185995238Y-128871428D01*
X186090476Y-128823809D01*
X186138095Y-128776190D01*
X186185714Y-128680952D01*
X189835714Y-134352380D02*
X189264285Y-134352380D01*
X189550000Y-134352380D02*
X189550000Y-133352380D01*
X189454761Y-133495238D01*
X189359523Y-133590476D01*
X189264285Y-133638095D01*
G04 #@! TO.C,D10*
X194385714Y-129252380D02*
X194385714Y-128252380D01*
X194623809Y-128252380D01*
X194766666Y-128300000D01*
X194861904Y-128395238D01*
X194909523Y-128490476D01*
X194957142Y-128680952D01*
X194957142Y-128823809D01*
X194909523Y-129014285D01*
X194861904Y-129109523D01*
X194766666Y-129204761D01*
X194623809Y-129252380D01*
X194385714Y-129252380D01*
X195909523Y-129252380D02*
X195338095Y-129252380D01*
X195623809Y-129252380D02*
X195623809Y-128252380D01*
X195528571Y-128395238D01*
X195433333Y-128490476D01*
X195338095Y-128538095D01*
X196528571Y-128252380D02*
X196623809Y-128252380D01*
X196719047Y-128300000D01*
X196766666Y-128347619D01*
X196814285Y-128442857D01*
X196861904Y-128633333D01*
X196861904Y-128871428D01*
X196814285Y-129061904D01*
X196766666Y-129157142D01*
X196719047Y-129204761D01*
X196623809Y-129252380D01*
X196528571Y-129252380D01*
X196433333Y-129204761D01*
X196385714Y-129157142D01*
X196338095Y-129061904D01*
X196290476Y-128871428D01*
X196290476Y-128633333D01*
X196338095Y-128442857D01*
X196385714Y-128347619D01*
X196433333Y-128300000D01*
X196528571Y-128252380D01*
X199835714Y-134352380D02*
X199264285Y-134352380D01*
X199550000Y-134352380D02*
X199550000Y-133352380D01*
X199454761Y-133495238D01*
X199359523Y-133590476D01*
X199264285Y-133638095D01*
G04 #@! TO.C,MD1*
X153052380Y-141909523D02*
X152052380Y-141909523D01*
X152766666Y-141576190D01*
X152052380Y-141242857D01*
X153052380Y-141242857D01*
X153052380Y-140766666D02*
X152052380Y-140766666D01*
X152052380Y-140528571D01*
X152100000Y-140385714D01*
X152195238Y-140290476D01*
X152290476Y-140242857D01*
X152480952Y-140195238D01*
X152623809Y-140195238D01*
X152814285Y-140242857D01*
X152909523Y-140290476D01*
X153004761Y-140385714D01*
X153052380Y-140528571D01*
X153052380Y-140766666D01*
X153052380Y-139242857D02*
X153052380Y-139814285D01*
X153052380Y-139528571D02*
X152052380Y-139528571D01*
X152195238Y-139623809D01*
X152290476Y-139719047D01*
X152338095Y-139814285D01*
X139400000Y-138366666D02*
X139876190Y-138366666D01*
X139304761Y-138652380D02*
X139638095Y-137652380D01*
X139971428Y-138652380D01*
X140304761Y-138652380D02*
X140304761Y-137652380D01*
X140685714Y-137652380D01*
X140780952Y-137700000D01*
X140828571Y-137747619D01*
X140876190Y-137842857D01*
X140876190Y-137985714D01*
X140828571Y-138080952D01*
X140780952Y-138128571D01*
X140685714Y-138176190D01*
X140304761Y-138176190D01*
X141304761Y-138652380D02*
X141304761Y-137652380D01*
X141542857Y-137652380D01*
X141685714Y-137700000D01*
X141780952Y-137795238D01*
X141828571Y-137890476D01*
X141876190Y-138080952D01*
X141876190Y-138223809D01*
X141828571Y-138414285D01*
X141780952Y-138509523D01*
X141685714Y-138604761D01*
X141542857Y-138652380D01*
X141304761Y-138652380D01*
X142257142Y-138604761D02*
X142400000Y-138652380D01*
X142638095Y-138652380D01*
X142733333Y-138604761D01*
X142780952Y-138557142D01*
X142828571Y-138461904D01*
X142828571Y-138366666D01*
X142780952Y-138271428D01*
X142733333Y-138223809D01*
X142638095Y-138176190D01*
X142447619Y-138128571D01*
X142352380Y-138080952D01*
X142304761Y-138033333D01*
X142257142Y-137938095D01*
X142257142Y-137842857D01*
X142304761Y-137747619D01*
X142352380Y-137700000D01*
X142447619Y-137652380D01*
X142685714Y-137652380D01*
X142828571Y-137700000D01*
X143019047Y-138747619D02*
X143780952Y-138747619D01*
X144066666Y-138652380D02*
X144257142Y-138652380D01*
X144352380Y-138604761D01*
X144400000Y-138557142D01*
X144495238Y-138414285D01*
X144542857Y-138223809D01*
X144542857Y-137842857D01*
X144495238Y-137747619D01*
X144447619Y-137700000D01*
X144352380Y-137652380D01*
X144161904Y-137652380D01*
X144066666Y-137700000D01*
X144019047Y-137747619D01*
X143971428Y-137842857D01*
X143971428Y-138080952D01*
X144019047Y-138176190D01*
X144066666Y-138223809D01*
X144161904Y-138271428D01*
X144352380Y-138271428D01*
X144447619Y-138223809D01*
X144495238Y-138176190D01*
X144542857Y-138080952D01*
X145019047Y-138652380D02*
X145209523Y-138652380D01*
X145304761Y-138604761D01*
X145352380Y-138557142D01*
X145447619Y-138414285D01*
X145495238Y-138223809D01*
X145495238Y-137842857D01*
X145447619Y-137747619D01*
X145400000Y-137700000D01*
X145304761Y-137652380D01*
X145114285Y-137652380D01*
X145019047Y-137700000D01*
X144971428Y-137747619D01*
X144923809Y-137842857D01*
X144923809Y-138080952D01*
X144971428Y-138176190D01*
X145019047Y-138223809D01*
X145114285Y-138271428D01*
X145304761Y-138271428D01*
X145400000Y-138223809D01*
X145447619Y-138176190D01*
X145495238Y-138080952D01*
X146352380Y-137652380D02*
X146161904Y-137652380D01*
X146066666Y-137700000D01*
X146019047Y-137747619D01*
X145923809Y-137890476D01*
X145876190Y-138080952D01*
X145876190Y-138461904D01*
X145923809Y-138557142D01*
X145971428Y-138604761D01*
X146066666Y-138652380D01*
X146257142Y-138652380D01*
X146352380Y-138604761D01*
X146400000Y-138557142D01*
X146447619Y-138461904D01*
X146447619Y-138223809D01*
X146400000Y-138128571D01*
X146352380Y-138080952D01*
X146257142Y-138033333D01*
X146066666Y-138033333D01*
X145971428Y-138080952D01*
X145923809Y-138128571D01*
X145876190Y-138223809D01*
X147066666Y-137652380D02*
X147161904Y-137652380D01*
X147257142Y-137700000D01*
X147304761Y-137747619D01*
X147352380Y-137842857D01*
X147400000Y-138033333D01*
X147400000Y-138271428D01*
X147352380Y-138461904D01*
X147304761Y-138557142D01*
X147257142Y-138604761D01*
X147161904Y-138652380D01*
X147066666Y-138652380D01*
X146971428Y-138604761D01*
X146923809Y-138557142D01*
X146876190Y-138461904D01*
X146828571Y-138271428D01*
X146828571Y-138033333D01*
X146876190Y-137842857D01*
X146923809Y-137747619D01*
X146971428Y-137700000D01*
X147066666Y-137652380D01*
G04 #@! TO.C,MD2*
X142752380Y-116969523D02*
X141752380Y-116969523D01*
X142466666Y-116636190D01*
X141752380Y-116302857D01*
X142752380Y-116302857D01*
X142752380Y-115826666D02*
X141752380Y-115826666D01*
X141752380Y-115588571D01*
X141800000Y-115445714D01*
X141895238Y-115350476D01*
X141990476Y-115302857D01*
X142180952Y-115255238D01*
X142323809Y-115255238D01*
X142514285Y-115302857D01*
X142609523Y-115350476D01*
X142704761Y-115445714D01*
X142752380Y-115588571D01*
X142752380Y-115826666D01*
X141847619Y-114874285D02*
X141800000Y-114826666D01*
X141752380Y-114731428D01*
X141752380Y-114493333D01*
X141800000Y-114398095D01*
X141847619Y-114350476D01*
X141942857Y-114302857D01*
X142038095Y-114302857D01*
X142180952Y-114350476D01*
X142752380Y-114921904D01*
X142752380Y-114302857D01*
X165667142Y-113796190D02*
X165714761Y-113843809D01*
X165762380Y-113986666D01*
X165762380Y-114081904D01*
X165714761Y-114224761D01*
X165619523Y-114320000D01*
X165524285Y-114367619D01*
X165333809Y-114415238D01*
X165190952Y-114415238D01*
X165000476Y-114367619D01*
X164905238Y-114320000D01*
X164810000Y-114224761D01*
X164762380Y-114081904D01*
X164762380Y-113986666D01*
X164810000Y-113843809D01*
X164857619Y-113796190D01*
X164762380Y-113081904D02*
X165476666Y-113081904D01*
X165619523Y-113129523D01*
X165714761Y-113224761D01*
X165762380Y-113367619D01*
X165762380Y-113462857D01*
X165762380Y-112605714D02*
X164762380Y-112605714D01*
X165476666Y-112272380D01*
X164762380Y-111939047D01*
X165762380Y-111939047D01*
X165667142Y-110891428D02*
X165714761Y-110939047D01*
X165762380Y-111081904D01*
X165762380Y-111177142D01*
X165714761Y-111320000D01*
X165619523Y-111415238D01*
X165524285Y-111462857D01*
X165333809Y-111510476D01*
X165190952Y-111510476D01*
X165000476Y-111462857D01*
X164905238Y-111415238D01*
X164810000Y-111320000D01*
X164762380Y-111177142D01*
X164762380Y-111081904D01*
X164810000Y-110939047D01*
X164857619Y-110891428D01*
X164762380Y-110462857D02*
X165571904Y-110462857D01*
X165667142Y-110415238D01*
X165714761Y-110367619D01*
X165762380Y-110272380D01*
X165762380Y-110081904D01*
X165714761Y-109986666D01*
X165667142Y-109939047D01*
X165571904Y-109891428D01*
X164762380Y-109891428D01*
X165857619Y-109653333D02*
X165857619Y-108891428D01*
X165190952Y-108510476D02*
X165143333Y-108605714D01*
X165095714Y-108653333D01*
X165000476Y-108700952D01*
X164952857Y-108700952D01*
X164857619Y-108653333D01*
X164810000Y-108605714D01*
X164762380Y-108510476D01*
X164762380Y-108320000D01*
X164810000Y-108224761D01*
X164857619Y-108177142D01*
X164952857Y-108129523D01*
X165000476Y-108129523D01*
X165095714Y-108177142D01*
X165143333Y-108224761D01*
X165190952Y-108320000D01*
X165190952Y-108510476D01*
X165238571Y-108605714D01*
X165286190Y-108653333D01*
X165381428Y-108700952D01*
X165571904Y-108700952D01*
X165667142Y-108653333D01*
X165714761Y-108605714D01*
X165762380Y-108510476D01*
X165762380Y-108320000D01*
X165714761Y-108224761D01*
X165667142Y-108177142D01*
X165571904Y-108129523D01*
X165381428Y-108129523D01*
X165286190Y-108177142D01*
X165238571Y-108224761D01*
X165190952Y-108320000D01*
X165762380Y-107177142D02*
X165762380Y-107748571D01*
X165762380Y-107462857D02*
X164762380Y-107462857D01*
X164905238Y-107558095D01*
X165000476Y-107653333D01*
X165048095Y-107748571D01*
X165762380Y-106224761D02*
X165762380Y-106796190D01*
X165762380Y-106510476D02*
X164762380Y-106510476D01*
X164905238Y-106605714D01*
X165000476Y-106700952D01*
X165048095Y-106796190D01*
G04 #@! TO.C,R1*
X172033333Y-123852380D02*
X171700000Y-123376190D01*
X171461904Y-123852380D02*
X171461904Y-122852380D01*
X171842857Y-122852380D01*
X171938095Y-122900000D01*
X171985714Y-122947619D01*
X172033333Y-123042857D01*
X172033333Y-123185714D01*
X171985714Y-123280952D01*
X171938095Y-123328571D01*
X171842857Y-123376190D01*
X171461904Y-123376190D01*
X172985714Y-123852380D02*
X172414285Y-123852380D01*
X172700000Y-123852380D02*
X172700000Y-122852380D01*
X172604761Y-122995238D01*
X172509523Y-123090476D01*
X172414285Y-123138095D01*
G04 #@! TO.C,R2*
X140833333Y-107852380D02*
X140500000Y-107376190D01*
X140261904Y-107852380D02*
X140261904Y-106852380D01*
X140642857Y-106852380D01*
X140738095Y-106900000D01*
X140785714Y-106947619D01*
X140833333Y-107042857D01*
X140833333Y-107185714D01*
X140785714Y-107280952D01*
X140738095Y-107328571D01*
X140642857Y-107376190D01*
X140261904Y-107376190D01*
X141214285Y-106947619D02*
X141261904Y-106900000D01*
X141357142Y-106852380D01*
X141595238Y-106852380D01*
X141690476Y-106900000D01*
X141738095Y-106947619D01*
X141785714Y-107042857D01*
X141785714Y-107138095D01*
X141738095Y-107280952D01*
X141166666Y-107852380D01*
X141785714Y-107852380D01*
G04 #@! TO.C,U1*
X170488095Y-100952380D02*
X170488095Y-101761904D01*
X170535714Y-101857142D01*
X170583333Y-101904761D01*
X170678571Y-101952380D01*
X170869047Y-101952380D01*
X170964285Y-101904761D01*
X171011904Y-101857142D01*
X171059523Y-101761904D01*
X171059523Y-100952380D01*
X172059523Y-101952380D02*
X171488095Y-101952380D01*
X171773809Y-101952380D02*
X171773809Y-100952380D01*
X171678571Y-101095238D01*
X171583333Y-101190476D01*
X171488095Y-101238095D01*
G04 #@! TO.C,U2*
X134552380Y-123461904D02*
X135361904Y-123461904D01*
X135457142Y-123414285D01*
X135504761Y-123366666D01*
X135552380Y-123271428D01*
X135552380Y-123080952D01*
X135504761Y-122985714D01*
X135457142Y-122938095D01*
X135361904Y-122890476D01*
X134552380Y-122890476D01*
X134647619Y-122461904D02*
X134600000Y-122414285D01*
X134552380Y-122319047D01*
X134552380Y-122080952D01*
X134600000Y-121985714D01*
X134647619Y-121938095D01*
X134742857Y-121890476D01*
X134838095Y-121890476D01*
X134980952Y-121938095D01*
X135552380Y-122509523D01*
X135552380Y-121890476D01*
X134652380Y-120933333D02*
X135652380Y-120695238D01*
X134938095Y-120504761D01*
X135652380Y-120314285D01*
X134652380Y-120076190D01*
X135604761Y-119314285D02*
X135652380Y-119409523D01*
X135652380Y-119600000D01*
X135604761Y-119695238D01*
X135509523Y-119742857D01*
X135128571Y-119742857D01*
X135033333Y-119695238D01*
X134985714Y-119600000D01*
X134985714Y-119409523D01*
X135033333Y-119314285D01*
X135128571Y-119266666D01*
X135223809Y-119266666D01*
X135319047Y-119742857D01*
X135652380Y-118838095D02*
X134985714Y-118838095D01*
X135080952Y-118838095D02*
X135033333Y-118790476D01*
X134985714Y-118695238D01*
X134985714Y-118552380D01*
X135033333Y-118457142D01*
X135128571Y-118409523D01*
X135652380Y-118409523D01*
X135128571Y-118409523D02*
X135033333Y-118361904D01*
X134985714Y-118266666D01*
X134985714Y-118123809D01*
X135033333Y-118028571D01*
X135128571Y-117980952D01*
X135652380Y-117980952D01*
X135652380Y-117361904D02*
X135604761Y-117457142D01*
X135557142Y-117504761D01*
X135461904Y-117552380D01*
X135176190Y-117552380D01*
X135080952Y-117504761D01*
X135033333Y-117457142D01*
X134985714Y-117361904D01*
X134985714Y-117219047D01*
X135033333Y-117123809D01*
X135080952Y-117076190D01*
X135176190Y-117028571D01*
X135461904Y-117028571D01*
X135557142Y-117076190D01*
X135604761Y-117123809D01*
X135652380Y-117219047D01*
X135652380Y-117361904D01*
X135604761Y-116647619D02*
X135652380Y-116552380D01*
X135652380Y-116361904D01*
X135604761Y-116266666D01*
X135509523Y-116219047D01*
X135461904Y-116219047D01*
X135366666Y-116266666D01*
X135319047Y-116361904D01*
X135319047Y-116504761D01*
X135271428Y-116600000D01*
X135176190Y-116647619D01*
X135128571Y-116647619D01*
X135033333Y-116600000D01*
X134985714Y-116504761D01*
X134985714Y-116361904D01*
X135033333Y-116266666D01*
X135747619Y-116028571D02*
X135747619Y-115266666D01*
X135652380Y-115028571D02*
X134652380Y-115028571D01*
X134652380Y-114790476D01*
X134700000Y-114647619D01*
X134795238Y-114552380D01*
X134890476Y-114504761D01*
X135080952Y-114457142D01*
X135223809Y-114457142D01*
X135414285Y-114504761D01*
X135509523Y-114552380D01*
X135604761Y-114647619D01*
X135652380Y-114790476D01*
X135652380Y-115028571D01*
X135652380Y-113504761D02*
X135652380Y-114076190D01*
X135652380Y-113790476D02*
X134652380Y-113790476D01*
X134795238Y-113885714D01*
X134890476Y-113980952D01*
X134938095Y-114076190D01*
X135747619Y-113314285D02*
X135747619Y-112552380D01*
X135652380Y-112314285D02*
X134652380Y-112314285D01*
X135366666Y-111980952D01*
X134652380Y-111647619D01*
X135652380Y-111647619D01*
X135652380Y-111171428D02*
X134985714Y-111171428D01*
X134652380Y-111171428D02*
X134700000Y-111219047D01*
X134747619Y-111171428D01*
X134700000Y-111123809D01*
X134652380Y-111171428D01*
X134747619Y-111171428D01*
X134985714Y-110695238D02*
X135652380Y-110695238D01*
X135080952Y-110695238D02*
X135033333Y-110647619D01*
X134985714Y-110552380D01*
X134985714Y-110409523D01*
X135033333Y-110314285D01*
X135128571Y-110266666D01*
X135652380Y-110266666D01*
X135652380Y-109790476D02*
X134985714Y-109790476D01*
X134652380Y-109790476D02*
X134700000Y-109838095D01*
X134747619Y-109790476D01*
X134700000Y-109742857D01*
X134652380Y-109790476D01*
X134747619Y-109790476D01*
X135747619Y-109552380D02*
X135747619Y-108790476D01*
X135128571Y-108552380D02*
X135128571Y-108219047D01*
X135652380Y-108076190D02*
X135652380Y-108552380D01*
X134652380Y-108552380D01*
X134652380Y-108076190D01*
X135604761Y-107695238D02*
X135652380Y-107552380D01*
X135652380Y-107314285D01*
X135604761Y-107219047D01*
X135557142Y-107171428D01*
X135461904Y-107123809D01*
X135366666Y-107123809D01*
X135271428Y-107171428D01*
X135223809Y-107219047D01*
X135176190Y-107314285D01*
X135128571Y-107504761D01*
X135080952Y-107600000D01*
X135033333Y-107647619D01*
X134938095Y-107695238D01*
X134842857Y-107695238D01*
X134747619Y-107647619D01*
X134700000Y-107600000D01*
X134652380Y-107504761D01*
X134652380Y-107266666D01*
X134700000Y-107123809D01*
X135652380Y-106695238D02*
X134652380Y-106695238D01*
X134652380Y-106314285D01*
X134700000Y-106219047D01*
X134747619Y-106171428D01*
X134842857Y-106123809D01*
X134985714Y-106123809D01*
X135080952Y-106171428D01*
X135128571Y-106219047D01*
X135176190Y-106314285D01*
X135176190Y-106695238D01*
X135080952Y-105552380D02*
X135033333Y-105647619D01*
X134985714Y-105695238D01*
X134890476Y-105742857D01*
X134842857Y-105742857D01*
X134747619Y-105695238D01*
X134700000Y-105647619D01*
X134652380Y-105552380D01*
X134652380Y-105361904D01*
X134700000Y-105266666D01*
X134747619Y-105219047D01*
X134842857Y-105171428D01*
X134890476Y-105171428D01*
X134985714Y-105219047D01*
X135033333Y-105266666D01*
X135080952Y-105361904D01*
X135080952Y-105552380D01*
X135128571Y-105647619D01*
X135176190Y-105695238D01*
X135271428Y-105742857D01*
X135461904Y-105742857D01*
X135557142Y-105695238D01*
X135604761Y-105647619D01*
X135652380Y-105552380D01*
X135652380Y-105361904D01*
X135604761Y-105266666D01*
X135557142Y-105219047D01*
X135461904Y-105171428D01*
X135271428Y-105171428D01*
X135176190Y-105219047D01*
X135128571Y-105266666D01*
X135080952Y-105361904D01*
X134747619Y-104790476D02*
X134700000Y-104742857D01*
X134652380Y-104647619D01*
X134652380Y-104409523D01*
X134700000Y-104314285D01*
X134747619Y-104266666D01*
X134842857Y-104219047D01*
X134938095Y-104219047D01*
X135080952Y-104266666D01*
X135652380Y-104838095D01*
X135652380Y-104219047D01*
X134652380Y-103361904D02*
X134652380Y-103552380D01*
X134700000Y-103647619D01*
X134747619Y-103695238D01*
X134890476Y-103790476D01*
X135080952Y-103838095D01*
X135461904Y-103838095D01*
X135557142Y-103790476D01*
X135604761Y-103742857D01*
X135652380Y-103647619D01*
X135652380Y-103457142D01*
X135604761Y-103361904D01*
X135557142Y-103314285D01*
X135461904Y-103266666D01*
X135223809Y-103266666D01*
X135128571Y-103314285D01*
X135080952Y-103361904D01*
X135033333Y-103457142D01*
X135033333Y-103647619D01*
X135080952Y-103742857D01*
X135128571Y-103790476D01*
X135223809Y-103838095D01*
X134652380Y-102409523D02*
X134652380Y-102600000D01*
X134700000Y-102695238D01*
X134747619Y-102742857D01*
X134890476Y-102838095D01*
X135080952Y-102885714D01*
X135461904Y-102885714D01*
X135557142Y-102838095D01*
X135604761Y-102790476D01*
X135652380Y-102695238D01*
X135652380Y-102504761D01*
X135604761Y-102409523D01*
X135557142Y-102361904D01*
X135461904Y-102314285D01*
X135223809Y-102314285D01*
X135128571Y-102361904D01*
X135080952Y-102409523D01*
X135033333Y-102504761D01*
X135033333Y-102695238D01*
X135080952Y-102790476D01*
X135128571Y-102838095D01*
X135223809Y-102885714D01*
G04 #@! TO.C,JP1*
X105966666Y-126652380D02*
X105966666Y-127366666D01*
X105919047Y-127509523D01*
X105823809Y-127604761D01*
X105680952Y-127652380D01*
X105585714Y-127652380D01*
X106442857Y-127652380D02*
X106442857Y-126652380D01*
X106823809Y-126652380D01*
X106919047Y-126700000D01*
X106966666Y-126747619D01*
X107014285Y-126842857D01*
X107014285Y-126985714D01*
X106966666Y-127080952D01*
X106919047Y-127128571D01*
X106823809Y-127176190D01*
X106442857Y-127176190D01*
X107966666Y-127652380D02*
X107395238Y-127652380D01*
X107680952Y-127652380D02*
X107680952Y-126652380D01*
X107585714Y-126795238D01*
X107490476Y-126890476D01*
X107395238Y-126938095D01*
G04 #@! TD*
%LPC*%
D14*
X182250000Y-127378571D02*
X182250000Y-125878571D01*
X182250000Y-126450000D02*
X182392857Y-126378571D01*
X182678571Y-126378571D01*
X182821428Y-126450000D01*
X182892857Y-126521428D01*
X182964285Y-126664285D01*
X182964285Y-127092857D01*
X182892857Y-127235714D01*
X182821428Y-127307142D01*
X182678571Y-127378571D01*
X182392857Y-127378571D01*
X182250000Y-127307142D01*
X183464285Y-126378571D02*
X183821428Y-127378571D01*
X184178571Y-126378571D02*
X183821428Y-127378571D01*
X183678571Y-127735714D01*
X183607142Y-127807142D01*
X183464285Y-127878571D01*
X185678571Y-125878571D02*
X186535714Y-125878571D01*
X186107142Y-127378571D02*
X186107142Y-125878571D01*
X187678571Y-126378571D02*
X187678571Y-127378571D01*
X187035714Y-126378571D02*
X187035714Y-127164285D01*
X187107142Y-127307142D01*
X187250000Y-127378571D01*
X187464285Y-127378571D01*
X187607142Y-127307142D01*
X187678571Y-127235714D01*
X188178571Y-126378571D02*
X188750000Y-126378571D01*
X188392857Y-125878571D02*
X188392857Y-127164285D01*
X188464285Y-127307142D01*
X188607142Y-127378571D01*
X188750000Y-127378571D01*
X189464285Y-127378571D02*
X189321428Y-127307142D01*
X189250000Y-127235714D01*
X189178571Y-127092857D01*
X189178571Y-126664285D01*
X189250000Y-126521428D01*
X189321428Y-126450000D01*
X189464285Y-126378571D01*
X189678571Y-126378571D01*
X189821428Y-126450000D01*
X189892857Y-126521428D01*
X189964285Y-126664285D01*
X189964285Y-127092857D01*
X189892857Y-127235714D01*
X189821428Y-127307142D01*
X189678571Y-127378571D01*
X189464285Y-127378571D01*
X190607142Y-126592857D02*
X191107142Y-126592857D01*
X191321428Y-127378571D02*
X190607142Y-127378571D01*
X190607142Y-125878571D01*
X191321428Y-125878571D01*
X192178571Y-127378571D02*
X192035714Y-127307142D01*
X191964285Y-127164285D01*
X191964285Y-125878571D01*
X193321428Y-127307142D02*
X193178571Y-127378571D01*
X192892857Y-127378571D01*
X192750000Y-127307142D01*
X192678571Y-127164285D01*
X192678571Y-126592857D01*
X192750000Y-126450000D01*
X192892857Y-126378571D01*
X193178571Y-126378571D01*
X193321428Y-126450000D01*
X193392857Y-126592857D01*
X193392857Y-126735714D01*
X192678571Y-126878571D01*
X194678571Y-127307142D02*
X194535714Y-127378571D01*
X194250000Y-127378571D01*
X194107142Y-127307142D01*
X194035714Y-127235714D01*
X193964285Y-127092857D01*
X193964285Y-126664285D01*
X194035714Y-126521428D01*
X194107142Y-126450000D01*
X194250000Y-126378571D01*
X194535714Y-126378571D01*
X194678571Y-126450000D01*
X195107142Y-126378571D02*
X195678571Y-126378571D01*
X195321428Y-125878571D02*
X195321428Y-127164285D01*
X195392857Y-127307142D01*
X195535714Y-127378571D01*
X195678571Y-127378571D01*
X196178571Y-127378571D02*
X196178571Y-126378571D01*
X196178571Y-126664285D02*
X196250000Y-126521428D01*
X196321428Y-126450000D01*
X196464285Y-126378571D01*
X196607142Y-126378571D01*
X197321428Y-127378571D02*
X197178571Y-127307142D01*
X197107142Y-127235714D01*
X197035714Y-127092857D01*
X197035714Y-126664285D01*
X197107142Y-126521428D01*
X197178571Y-126450000D01*
X197321428Y-126378571D01*
X197535714Y-126378571D01*
X197678571Y-126450000D01*
X197750000Y-126521428D01*
X197821428Y-126664285D01*
X197821428Y-127092857D01*
X197750000Y-127235714D01*
X197678571Y-127307142D01*
X197535714Y-127378571D01*
X197321428Y-127378571D01*
D15*
X182695238Y-123321428D02*
X181861904Y-123321428D01*
X181861904Y-124630952D02*
X181861904Y-122130952D01*
X183052380Y-122130952D01*
X184004761Y-124630952D02*
X184004761Y-122964285D01*
X184004761Y-122130952D02*
X183885714Y-122250000D01*
X184004761Y-122369047D01*
X184123809Y-122250000D01*
X184004761Y-122130952D01*
X184004761Y-122369047D01*
X185195238Y-124630952D02*
X185195238Y-122964285D01*
X185195238Y-123440476D02*
X185314285Y-123202380D01*
X185433333Y-123083333D01*
X185671428Y-122964285D01*
X185909523Y-122964285D01*
X187695238Y-124511904D02*
X187457142Y-124630952D01*
X186980952Y-124630952D01*
X186742857Y-124511904D01*
X186623809Y-124273809D01*
X186623809Y-123321428D01*
X186742857Y-123083333D01*
X186980952Y-122964285D01*
X187457142Y-122964285D01*
X187695238Y-123083333D01*
X187814285Y-123321428D01*
X187814285Y-123559523D01*
X186623809Y-123797619D01*
X188528571Y-122964285D02*
X189480952Y-122964285D01*
X188885714Y-124630952D02*
X188885714Y-122488095D01*
X189004761Y-122250000D01*
X189242857Y-122130952D01*
X189480952Y-122130952D01*
X190671428Y-124630952D02*
X190433333Y-124511904D01*
X190314285Y-124273809D01*
X190314285Y-122130952D01*
X191385714Y-122964285D02*
X191980952Y-124630952D01*
X192576190Y-122964285D02*
X191980952Y-124630952D01*
X191742857Y-125226190D01*
X191623809Y-125345238D01*
X191385714Y-125464285D01*
D16*
G04 #@! TO.C,D3*
X122950000Y-130700000D03*
X122950000Y-133900000D03*
X127850000Y-130700000D03*
X127850000Y-133900000D03*
G04 #@! TD*
D17*
G04 #@! TO.C,REF\002A\002A*
X164400000Y-124600000D03*
G04 #@! TD*
G04 #@! TO.C,REF\002A\002A*
X112000000Y-139000000D03*
G04 #@! TD*
G04 #@! TO.C,REF\002A\002A*
X189200000Y-107300000D03*
G04 #@! TD*
D18*
G04 #@! TO.C,C1*
X169000000Y-120000000D03*
X169000000Y-121750000D03*
G04 #@! TD*
D19*
G04 #@! TO.C,C2*
X108075000Y-136300000D03*
X106325000Y-136300000D03*
G04 #@! TD*
D18*
G04 #@! TO.C,C3*
X140200000Y-111050000D03*
X140200000Y-112800000D03*
G04 #@! TD*
D19*
G04 #@! TO.C,C4*
X116725000Y-136300000D03*
X118475000Y-136300000D03*
G04 #@! TD*
G04 #@! TO.C,C5*
X128475000Y-136200000D03*
X126725000Y-136200000D03*
G04 #@! TD*
G04 #@! TO.C,C6*
X138475000Y-136300000D03*
X136725000Y-136300000D03*
G04 #@! TD*
G04 #@! TO.C,C7*
X146725000Y-136300000D03*
X148475000Y-136300000D03*
G04 #@! TD*
G04 #@! TO.C,C8*
X156725000Y-136300000D03*
X158475000Y-136300000D03*
G04 #@! TD*
G04 #@! TO.C,C9*
X168475000Y-136300000D03*
X166725000Y-136300000D03*
G04 #@! TD*
G04 #@! TO.C,C10*
X176725000Y-136300000D03*
X178475000Y-136300000D03*
G04 #@! TD*
G04 #@! TO.C,C11*
X186650000Y-136300000D03*
X188400000Y-136300000D03*
G04 #@! TD*
G04 #@! TO.C,C12*
X196725000Y-136300000D03*
X198475000Y-136300000D03*
G04 #@! TD*
D16*
G04 #@! TO.C,D1*
X102950000Y-130700000D03*
X102950000Y-133900000D03*
X107850000Y-130700000D03*
X107850000Y-133900000D03*
G04 #@! TD*
G04 #@! TO.C,D2*
X117850000Y-133900000D03*
X117850000Y-130700000D03*
X112950000Y-133900000D03*
X112950000Y-130700000D03*
G04 #@! TD*
G04 #@! TO.C,D4*
X137850000Y-133900000D03*
X137850000Y-130700000D03*
X132950000Y-133900000D03*
X132950000Y-130700000D03*
G04 #@! TD*
G04 #@! TO.C,D5*
X147850000Y-133900000D03*
X147850000Y-130700000D03*
X142950000Y-133900000D03*
X142950000Y-130700000D03*
G04 #@! TD*
G04 #@! TO.C,D6*
X152950000Y-130700000D03*
X152950000Y-133900000D03*
X157850000Y-130700000D03*
X157850000Y-133900000D03*
G04 #@! TD*
G04 #@! TO.C,D7*
X162950000Y-130700000D03*
X162950000Y-133900000D03*
X167850000Y-130700000D03*
X167850000Y-133900000D03*
G04 #@! TD*
G04 #@! TO.C,D8*
X177850000Y-133900000D03*
X177850000Y-130700000D03*
X172950000Y-133900000D03*
X172950000Y-130700000D03*
G04 #@! TD*
G04 #@! TO.C,D9*
X182950000Y-130700000D03*
X182950000Y-133900000D03*
X187850000Y-130700000D03*
X187850000Y-133900000D03*
G04 #@! TD*
G04 #@! TO.C,D10*
X197850000Y-133900000D03*
X197850000Y-130700000D03*
X192950000Y-133900000D03*
X192950000Y-130700000D03*
G04 #@! TD*
D20*
G04 #@! TO.C,MD1*
X139840000Y-140400000D03*
X142380000Y-140400000D03*
X144920000Y-140400000D03*
X147460000Y-140400000D03*
D21*
X150000000Y-140400000D03*
G04 #@! TD*
D20*
G04 #@! TO.C,MD2*
X162780000Y-116500000D03*
X160240000Y-116500000D03*
X157700000Y-116500000D03*
X155160000Y-116500000D03*
X152620000Y-116500000D03*
X150080000Y-116500000D03*
X147540000Y-116500000D03*
D21*
X145000000Y-116500000D03*
G04 #@! TD*
D19*
G04 #@! TO.C,R1*
X172875000Y-122000000D03*
X171125000Y-122000000D03*
G04 #@! TD*
G04 #@! TO.C,R2*
X141875000Y-108800000D03*
X140125000Y-108800000D03*
G04 #@! TD*
D22*
G04 #@! TO.C,U1*
X171000000Y-120000000D03*
D23*
X173540000Y-120000000D03*
X176080000Y-120000000D03*
X178620000Y-120000000D03*
G04 #@! TD*
D21*
G04 #@! TO.C,U2*
X126000000Y-102000000D03*
D20*
X123460000Y-102000000D03*
X120920000Y-102000000D03*
X118380000Y-102000000D03*
X115840000Y-102000000D03*
X113300000Y-102000000D03*
X110760000Y-102000000D03*
X108220000Y-102000000D03*
X126000000Y-124860000D03*
X123460000Y-124860000D03*
X120920000Y-124860000D03*
X118380000Y-124860000D03*
X115840000Y-124860000D03*
X113300000Y-124860000D03*
X110760000Y-124860000D03*
X108220000Y-124860000D03*
G04 #@! TD*
D17*
G04 #@! TO.C,REF\002A\002A*
X192000000Y-139000000D03*
G04 #@! TD*
D24*
G04 #@! TO.C,JP1*
G36*
X101549010Y-126852408D02*
X101597546Y-126859607D01*
X101645143Y-126871530D01*
X101691343Y-126888060D01*
X101735699Y-126909039D01*
X101777786Y-126934265D01*
X101817198Y-126963495D01*
X101853554Y-126996447D01*
X101886506Y-127032803D01*
X101915736Y-127072215D01*
X101940962Y-127114302D01*
X101961941Y-127158658D01*
X101978471Y-127204858D01*
X101990394Y-127252455D01*
X101997593Y-127300991D01*
X102000001Y-127350000D01*
X102000001Y-127850000D01*
X101997593Y-127899009D01*
X101990394Y-127947545D01*
X101978471Y-127995142D01*
X101961941Y-128041342D01*
X101940962Y-128085698D01*
X101915736Y-128127785D01*
X101886506Y-128167197D01*
X101853554Y-128203553D01*
X101817198Y-128236505D01*
X101777786Y-128265735D01*
X101735699Y-128290961D01*
X101691343Y-128311940D01*
X101645143Y-128328470D01*
X101597546Y-128340393D01*
X101549010Y-128347592D01*
X101500001Y-128350000D01*
X101499999Y-128350000D01*
X101450990Y-128347592D01*
X101402454Y-128340393D01*
X101354857Y-128328470D01*
X101308657Y-128311940D01*
X101264301Y-128290961D01*
X101222214Y-128265735D01*
X101182802Y-128236505D01*
X101146446Y-128203553D01*
X101113494Y-128167197D01*
X101084264Y-128127785D01*
X101059038Y-128085698D01*
X101038059Y-128041342D01*
X101021529Y-127995142D01*
X101009606Y-127947545D01*
X101002407Y-127899009D01*
X100999999Y-127850000D01*
X100999999Y-127350000D01*
X101002407Y-127300991D01*
X101009606Y-127252455D01*
X101021529Y-127204858D01*
X101038059Y-127158658D01*
X101059038Y-127114302D01*
X101084264Y-127072215D01*
X101113494Y-127032803D01*
X101146446Y-126996447D01*
X101182802Y-126963495D01*
X101222214Y-126934265D01*
X101264301Y-126909039D01*
X101308657Y-126888060D01*
X101354857Y-126871530D01*
X101402454Y-126859607D01*
X101450990Y-126852408D01*
X101499999Y-126850000D01*
X101500001Y-126850000D01*
X101549010Y-126852408D01*
X101549010Y-126852408D01*
G37*
D25*
X101500000Y-127600000D03*
D26*
X101800000Y-127600000D03*
D27*
X102800000Y-127600000D03*
D24*
G36*
X104149010Y-126852408D02*
X104197546Y-126859607D01*
X104245143Y-126871530D01*
X104291343Y-126888060D01*
X104335699Y-126909039D01*
X104377786Y-126934265D01*
X104417198Y-126963495D01*
X104453554Y-126996447D01*
X104486506Y-127032803D01*
X104515736Y-127072215D01*
X104540962Y-127114302D01*
X104561941Y-127158658D01*
X104578471Y-127204858D01*
X104590394Y-127252455D01*
X104597593Y-127300991D01*
X104600001Y-127350000D01*
X104600001Y-127850000D01*
X104597593Y-127899009D01*
X104590394Y-127947545D01*
X104578471Y-127995142D01*
X104561941Y-128041342D01*
X104540962Y-128085698D01*
X104515736Y-128127785D01*
X104486506Y-128167197D01*
X104453554Y-128203553D01*
X104417198Y-128236505D01*
X104377786Y-128265735D01*
X104335699Y-128290961D01*
X104291343Y-128311940D01*
X104245143Y-128328470D01*
X104197546Y-128340393D01*
X104149010Y-128347592D01*
X104100001Y-128350000D01*
X104099999Y-128350000D01*
X104050990Y-128347592D01*
X104002454Y-128340393D01*
X103954857Y-128328470D01*
X103908657Y-128311940D01*
X103864301Y-128290961D01*
X103822214Y-128265735D01*
X103782802Y-128236505D01*
X103746446Y-128203553D01*
X103713494Y-128167197D01*
X103684264Y-128127785D01*
X103659038Y-128085698D01*
X103638059Y-128041342D01*
X103621529Y-127995142D01*
X103609606Y-127947545D01*
X103602407Y-127899009D01*
X103599999Y-127850000D01*
X103599999Y-127350000D01*
X103602407Y-127300991D01*
X103609606Y-127252455D01*
X103621529Y-127204858D01*
X103638059Y-127158658D01*
X103659038Y-127114302D01*
X103684264Y-127072215D01*
X103713494Y-127032803D01*
X103746446Y-126996447D01*
X103782802Y-126963495D01*
X103822214Y-126934265D01*
X103864301Y-126909039D01*
X103908657Y-126888060D01*
X103954857Y-126871530D01*
X104002454Y-126859607D01*
X104050990Y-126852408D01*
X104099999Y-126850000D01*
X104100001Y-126850000D01*
X104149010Y-126852408D01*
X104149010Y-126852408D01*
G37*
D25*
X104100000Y-127600000D03*
D26*
X103800000Y-127600000D03*
G04 #@! TD*
M02*
