G04 #@! TF.GenerationSoftware,KiCad,Pcbnew,5.0.0-rc2-be01b52~65~ubuntu16.04.1*
G04 #@! TF.CreationDate,2018-06-25T12:20:31+02:00*
G04 #@! TF.ProjectId,Firefly,46697265666C792E6B696361645F7063,rev?*
G04 #@! TF.SameCoordinates,Original*
G04 #@! TF.FileFunction,Copper,L2,Bot,Signal*
G04 #@! TF.FilePolarity,Positive*
%FSLAX46Y46*%
G04 Gerber Fmt 4.6, Leading zero omitted, Abs format (unit mm)*
G04 Created by KiCad (PCBNEW 5.0.0-rc2-be01b52~65~ubuntu16.04.1) date Mon Jun 25 12:20:31 2018*
%MOMM*%
%LPD*%
G01*
G04 APERTURE LIST*
G04 #@! TA.AperFunction,ComponentPad*
%ADD10C,1.800000*%
G04 #@! TD*
G04 #@! TA.AperFunction,ComponentPad*
%ADD11R,1.800000X1.800000*%
G04 #@! TD*
G04 #@! TA.AperFunction,ComponentPad*
%ADD12R,1.524000X1.524000*%
G04 #@! TD*
G04 #@! TA.AperFunction,ComponentPad*
%ADD13C,1.524000*%
G04 #@! TD*
G04 #@! TA.AperFunction,ViaPad*
%ADD14C,0.863600*%
G04 #@! TD*
G04 #@! TA.AperFunction,Conductor*
%ADD15C,0.812800*%
G04 #@! TD*
G04 #@! TA.AperFunction,Conductor*
%ADD16C,0.609600*%
G04 #@! TD*
G04 #@! TA.AperFunction,Conductor*
%ADD17C,0.508000*%
G04 #@! TD*
G04 #@! TA.AperFunction,Conductor*
%ADD18C,0.400000*%
G04 #@! TD*
G04 APERTURE END LIST*
D10*
G04 #@! TO.P,MD1,5*
G04 #@! TO.N,Net-(MD1-Pad5)*
X139840000Y-140400000D03*
G04 #@! TO.P,MD1,4*
G04 #@! TO.N,/SDA*
X142380000Y-140400000D03*
G04 #@! TO.P,MD1,3*
G04 #@! TO.N,/SCL*
X144920000Y-140400000D03*
G04 #@! TO.P,MD1,2*
G04 #@! TO.N,GND*
X147460000Y-140400000D03*
D11*
G04 #@! TO.P,MD1,1*
G04 #@! TO.N,+3V3*
X150000000Y-140400000D03*
G04 #@! TD*
D10*
G04 #@! TO.P,MD2,8*
G04 #@! TO.N,Net-(MD2-Pad8)*
X162780000Y-116500000D03*
G04 #@! TO.P,MD2,7*
G04 #@! TO.N,Net-(MD2-Pad7)*
X160240000Y-116500000D03*
G04 #@! TO.P,MD2,6*
G04 #@! TO.N,Net-(MD2-Pad6)*
X157700000Y-116500000D03*
G04 #@! TO.P,MD2,5*
G04 #@! TO.N,Net-(MD2-Pad5)*
X155160000Y-116500000D03*
G04 #@! TO.P,MD2,4*
G04 #@! TO.N,/SDA*
X152620000Y-116500000D03*
G04 #@! TO.P,MD2,3*
G04 #@! TO.N,/SCL*
X150080000Y-116500000D03*
G04 #@! TO.P,MD2,2*
G04 #@! TO.N,GND*
X147540000Y-116500000D03*
D11*
G04 #@! TO.P,MD2,1*
G04 #@! TO.N,+3V3*
X145000000Y-116500000D03*
G04 #@! TD*
D12*
G04 #@! TO.P,U1,1*
G04 #@! TO.N,+3V3*
X171000000Y-120000000D03*
D13*
G04 #@! TO.P,U1,2*
G04 #@! TO.N,/D6*
X173540000Y-120000000D03*
G04 #@! TO.P,U1,3*
G04 #@! TO.N,N/C*
X176080000Y-120000000D03*
G04 #@! TO.P,U1,4*
G04 #@! TO.N,GND*
X178620000Y-120000000D03*
G04 #@! TD*
D11*
G04 #@! TO.P,U2,1*
G04 #@! TO.N,Net-(U2-Pad1)*
X126000000Y-102000000D03*
D10*
G04 #@! TO.P,U2,2*
G04 #@! TO.N,Net-(U2-Pad2)*
X123460000Y-102000000D03*
G04 #@! TO.P,U2,3*
G04 #@! TO.N,Net-(C3-Pad1)*
X120920000Y-102000000D03*
G04 #@! TO.P,U2,4*
G04 #@! TO.N,Net-(U2-Pad4)*
X118380000Y-102000000D03*
G04 #@! TO.P,U2,5*
G04 #@! TO.N,/D6*
X115840000Y-102000000D03*
G04 #@! TO.P,U2,6*
G04 #@! TO.N,Net-(MD2-Pad7)*
X113300000Y-102000000D03*
G04 #@! TO.P,U2,7*
G04 #@! TO.N,Net-(MD2-Pad6)*
X110760000Y-102000000D03*
G04 #@! TO.P,U2,8*
G04 #@! TO.N,+3V3*
X108220000Y-102000000D03*
G04 #@! TO.P,U2,16*
G04 #@! TO.N,Net-(U2-Pad16)*
X126000000Y-124860000D03*
G04 #@! TO.P,U2,15*
G04 #@! TO.N,N/C*
X123460000Y-124860000D03*
G04 #@! TO.P,U2,14*
G04 #@! TO.N,/SCL*
X120920000Y-124860000D03*
G04 #@! TO.P,U2,13*
G04 #@! TO.N,/SDA*
X118380000Y-124860000D03*
G04 #@! TO.P,U2,12*
G04 #@! TO.N,Net-(MD2-Pad5)*
X115840000Y-124860000D03*
G04 #@! TO.P,U2,11*
G04 #@! TO.N,/D4*
X113300000Y-124860000D03*
G04 #@! TO.P,U2,10*
G04 #@! TO.N,GND*
X110760000Y-124860000D03*
G04 #@! TO.P,U2,9*
G04 #@! TO.N,+5V*
X108220000Y-124860000D03*
G04 #@! TD*
D14*
G04 #@! TO.N,+3V3*
X150400000Y-138800000D03*
G04 #@! TO.N,GND*
X152800000Y-120800000D03*
X152800000Y-122400000D03*
X154800000Y-125400000D03*
X142000000Y-121800000D03*
X140400000Y-130400000D03*
X105800000Y-129200000D03*
X107000000Y-127600000D03*
X111200000Y-130600000D03*
X121387200Y-130700000D03*
X131400000Y-130800000D03*
X110800000Y-122600000D03*
X195600000Y-137000000D03*
X196800000Y-137400000D03*
X186800000Y-137400004D03*
X176800000Y-137400000D03*
X166800000Y-137400000D03*
X155780400Y-136300000D03*
X145800000Y-136400000D03*
X145800000Y-130600000D03*
X125600000Y-136200000D03*
X105380400Y-136300000D03*
X113000000Y-129400000D03*
X123000000Y-129400000D03*
X109860001Y-126660001D03*
X140200000Y-114200000D03*
G04 #@! TO.N,Net-(C3-Pad1)*
X146400000Y-105000000D03*
G04 #@! TO.N,/D4*
X103600000Y-135800000D03*
G04 #@! TO.N,Net-(MD1-Pad5)*
X145800000Y-138400000D03*
X148800000Y-125400000D03*
G04 #@! TO.N,/SCL*
X150600000Y-121600000D03*
G04 #@! TD*
D15*
G04 #@! TO.N,+3V3*
X165400000Y-112600000D02*
X165400000Y-118400000D01*
X150400000Y-138189343D02*
X150400000Y-138800000D01*
X165400000Y-118400000D02*
X150400000Y-133400000D01*
X150400000Y-133400000D02*
X150400000Y-138189343D01*
X163400000Y-110600000D02*
X165400000Y-112600000D01*
X145000000Y-116500000D02*
X145000000Y-114200000D01*
X148600000Y-110600000D02*
X149800000Y-110600000D01*
X145000000Y-114200000D02*
X148600000Y-110600000D01*
X163400000Y-110600000D02*
X149800000Y-110600000D01*
X141400000Y-102200000D02*
X149800000Y-110600000D01*
X132200000Y-102200000D02*
X141400000Y-102200000D01*
X130400000Y-104000000D02*
X132200000Y-102200000D01*
X108947208Y-104000000D02*
X130400000Y-104000000D01*
X108220000Y-102000000D02*
X108220000Y-103272792D01*
X108220000Y-103272792D02*
X108947208Y-104000000D01*
X163400000Y-110600000D02*
X171000000Y-118200000D01*
X171000000Y-118200000D02*
X171000000Y-120000000D01*
G04 #@! TO.N,GND*
X146600000Y-118400000D02*
X145991522Y-118400000D01*
X147200000Y-117800000D02*
X146600000Y-118400000D01*
X147200000Y-116840000D02*
X147200000Y-117800000D01*
X147540000Y-116500000D02*
X147200000Y-116840000D01*
X145991522Y-118400000D02*
X142591522Y-121800000D01*
X142591522Y-121800000D02*
X142000000Y-121800000D01*
X154800000Y-125400000D02*
X152800000Y-123400000D01*
X152800000Y-123400000D02*
X152800000Y-123010657D01*
X152800000Y-123010657D02*
X152800000Y-122400000D01*
D16*
X146200000Y-135800000D02*
X146231799Y-135831799D01*
X146231799Y-135831799D02*
X146231799Y-135968201D01*
X146231799Y-135968201D02*
X145800000Y-136400000D01*
X145800000Y-130600000D02*
X145800000Y-136400000D01*
X125600000Y-136200000D02*
X123000000Y-133600000D01*
X123000000Y-133600000D02*
X123000000Y-129400000D01*
X146800000Y-118400000D02*
X147540000Y-117660000D01*
X147540000Y-117660000D02*
X147540000Y-116500000D01*
X140200000Y-116400000D02*
X142200000Y-118400000D01*
X142200000Y-118400000D02*
X146800000Y-118400000D01*
X140200000Y-114200000D02*
X140200000Y-116400000D01*
G04 #@! TO.N,Net-(C3-Pad1)*
X144800000Y-100200000D02*
X146400000Y-101800000D01*
X146400000Y-101800000D02*
X146400000Y-105000000D01*
X121447208Y-100200000D02*
X144800000Y-100200000D01*
X120920000Y-102000000D02*
X120920000Y-100727208D01*
X120920000Y-100727208D02*
X121447208Y-100200000D01*
D17*
G04 #@! TO.N,/D4*
X113300000Y-124860000D02*
X103600000Y-134560000D01*
X103600000Y-135189343D02*
X103600000Y-135800000D01*
X103600000Y-134560000D02*
X103600000Y-135189343D01*
D16*
G04 #@! TO.N,Net-(MD1-Pad5)*
X148800000Y-125400000D02*
X148800000Y-135400000D01*
X148800000Y-135400000D02*
X146231799Y-137968201D01*
X146231799Y-137968201D02*
X145800000Y-138400000D01*
D17*
G04 #@! TO.N,/SDA*
X118380000Y-124860000D02*
X118380000Y-126380000D01*
X118380000Y-126380000D02*
X120000000Y-128000000D01*
X120000000Y-128000000D02*
X142000000Y-128000000D01*
X142000000Y-128000000D02*
X143800000Y-126200000D01*
X142500000Y-127500000D02*
X143800000Y-126200000D01*
X143800000Y-126200000D02*
X148000000Y-122000000D01*
X142380000Y-140400000D02*
X142500000Y-140280000D01*
X142500000Y-140280000D02*
X142500000Y-127500000D01*
X152620000Y-117380000D02*
X152620000Y-116500000D01*
X148000000Y-122000000D02*
X152620000Y-117380000D01*
G04 #@! TO.N,/SCL*
X144200000Y-136400000D02*
X144400000Y-136200000D01*
X144400000Y-136200000D02*
X144400000Y-127800000D01*
X144200000Y-139680000D02*
X144200000Y-136400000D01*
X150168201Y-122031799D02*
X150600000Y-121600000D01*
X144920000Y-140400000D02*
X144200000Y-139680000D01*
X144400000Y-127800000D02*
X150168201Y-122031799D01*
X120920000Y-126132792D02*
X121587208Y-126800000D01*
X121587208Y-126800000D02*
X140800000Y-126800000D01*
X140800000Y-126800000D02*
X150080000Y-117520000D01*
X120920000Y-124860000D02*
X120920000Y-126132792D01*
X150080000Y-117520000D02*
X150080000Y-116500000D01*
G04 #@! TD*
D18*
G04 #@! TO.N,GND*
G36*
X185832897Y-101006557D02*
X187428820Y-101693783D01*
X188960227Y-102514825D01*
X190415885Y-103463662D01*
X191785191Y-104533378D01*
X193058109Y-105716138D01*
X194225352Y-107003308D01*
X195278383Y-108385476D01*
X196209504Y-109852536D01*
X197011913Y-111393775D01*
X197679741Y-112997922D01*
X198208108Y-114653249D01*
X198507400Y-115970308D01*
X198537957Y-120800633D01*
X198537957Y-141000000D01*
X193535534Y-141000000D01*
X194119398Y-140416136D01*
X194500000Y-139497281D01*
X194500000Y-138502719D01*
X194119398Y-137583864D01*
X193416136Y-136880602D01*
X192497281Y-136500000D01*
X191502719Y-136500000D01*
X190583864Y-136880602D01*
X189880602Y-137583864D01*
X189500000Y-138502719D01*
X189500000Y-139497281D01*
X189880602Y-140416136D01*
X190464466Y-141000000D01*
X151919591Y-141000000D01*
X151919591Y-139500000D01*
X151841979Y-139109819D01*
X151829299Y-139090842D01*
X151831800Y-139084803D01*
X151831800Y-138515197D01*
X151806400Y-138453876D01*
X151806400Y-133982548D01*
X162051158Y-123737792D01*
X161900000Y-124102719D01*
X161900000Y-125097281D01*
X162280602Y-126016136D01*
X162983864Y-126719398D01*
X163902719Y-127100000D01*
X164897281Y-127100000D01*
X165816136Y-126719398D01*
X166519398Y-126016136D01*
X166900000Y-125097281D01*
X166900000Y-124102719D01*
X166519398Y-123183864D01*
X165816136Y-122480602D01*
X164897281Y-122100000D01*
X163902719Y-122100000D01*
X163537792Y-122251158D01*
X166296527Y-119492423D01*
X166413958Y-119413958D01*
X166724800Y-118948750D01*
X166806400Y-118538518D01*
X166806400Y-118538514D01*
X166833952Y-118400001D01*
X166806400Y-118261488D01*
X166806400Y-115995349D01*
X169441357Y-118630307D01*
X169296021Y-118847819D01*
X169218409Y-119238000D01*
X169218409Y-120762000D01*
X169296021Y-121152181D01*
X169517040Y-121482960D01*
X169847819Y-121703979D01*
X170238000Y-121781591D01*
X171762000Y-121781591D01*
X172152181Y-121703979D01*
X172482960Y-121482960D01*
X172502248Y-121454093D01*
X172541907Y-121493752D01*
X173189516Y-121762000D01*
X173890484Y-121762000D01*
X174538093Y-121493752D01*
X174810000Y-121221845D01*
X175081907Y-121493752D01*
X175729516Y-121762000D01*
X176430484Y-121762000D01*
X177078093Y-121493752D01*
X177573752Y-120998093D01*
X177584536Y-120972056D01*
X177724311Y-120972056D01*
X177783287Y-121243507D01*
X178322848Y-121469048D01*
X178907648Y-121470938D01*
X179448656Y-121248892D01*
X179456713Y-121243507D01*
X179515689Y-120972056D01*
X178620000Y-120076368D01*
X177724311Y-120972056D01*
X177584536Y-120972056D01*
X177618792Y-120889355D01*
X177647944Y-120895689D01*
X178543632Y-120000000D01*
X178696368Y-120000000D01*
X179592056Y-120895689D01*
X179863507Y-120836713D01*
X180089048Y-120297152D01*
X180090938Y-119712352D01*
X179868892Y-119171344D01*
X179863507Y-119163287D01*
X179592056Y-119104311D01*
X178696368Y-120000000D01*
X178543632Y-120000000D01*
X177647944Y-119104311D01*
X177618792Y-119110645D01*
X177584537Y-119027944D01*
X177724311Y-119027944D01*
X178620000Y-119923632D01*
X179515689Y-119027944D01*
X179456713Y-118756493D01*
X178917152Y-118530952D01*
X178332352Y-118529062D01*
X177791344Y-118751108D01*
X177783287Y-118756493D01*
X177724311Y-119027944D01*
X177584537Y-119027944D01*
X177573752Y-119001907D01*
X177078093Y-118506248D01*
X176430484Y-118238000D01*
X175729516Y-118238000D01*
X175081907Y-118506248D01*
X174810000Y-118778155D01*
X174538093Y-118506248D01*
X173890484Y-118238000D01*
X173189516Y-118238000D01*
X172541907Y-118506248D01*
X172502248Y-118545907D01*
X172482960Y-118517040D01*
X172406400Y-118465884D01*
X172406400Y-118338516D01*
X172433953Y-118199999D01*
X172389737Y-117977712D01*
X172324800Y-117651250D01*
X172013957Y-117186042D01*
X171896529Y-117107579D01*
X166492423Y-111703475D01*
X166413957Y-111586042D01*
X166296529Y-111507579D01*
X164492426Y-109703478D01*
X164413958Y-109586042D01*
X163948750Y-109275200D01*
X163538518Y-109193600D01*
X163538517Y-109193600D01*
X163400000Y-109166047D01*
X163261483Y-109193600D01*
X150382550Y-109193600D01*
X147991669Y-106802719D01*
X186700000Y-106802719D01*
X186700000Y-107797281D01*
X187080602Y-108716136D01*
X187783864Y-109419398D01*
X188702719Y-109800000D01*
X189697281Y-109800000D01*
X190616136Y-109419398D01*
X191319398Y-108716136D01*
X191700000Y-107797281D01*
X191700000Y-106802719D01*
X191319398Y-105883864D01*
X190616136Y-105180602D01*
X189697281Y-104800000D01*
X188702719Y-104800000D01*
X187783864Y-105180602D01*
X187080602Y-105883864D01*
X186700000Y-106802719D01*
X147991669Y-106802719D01*
X147306911Y-106117961D01*
X147613822Y-105811050D01*
X147831800Y-105284803D01*
X147831800Y-104715197D01*
X147704800Y-104408591D01*
X147704800Y-101928507D01*
X147730362Y-101800000D01*
X147700774Y-101651251D01*
X147629094Y-101290893D01*
X147425400Y-100986043D01*
X147413502Y-100968236D01*
X147340708Y-100859292D01*
X147231764Y-100786499D01*
X147045265Y-100600000D01*
X184610550Y-100600000D01*
X185832897Y-101006557D01*
X185832897Y-101006557D01*
G37*
X185832897Y-101006557D02*
X187428820Y-101693783D01*
X188960227Y-102514825D01*
X190415885Y-103463662D01*
X191785191Y-104533378D01*
X193058109Y-105716138D01*
X194225352Y-107003308D01*
X195278383Y-108385476D01*
X196209504Y-109852536D01*
X197011913Y-111393775D01*
X197679741Y-112997922D01*
X198208108Y-114653249D01*
X198507400Y-115970308D01*
X198537957Y-120800633D01*
X198537957Y-141000000D01*
X193535534Y-141000000D01*
X194119398Y-140416136D01*
X194500000Y-139497281D01*
X194500000Y-138502719D01*
X194119398Y-137583864D01*
X193416136Y-136880602D01*
X192497281Y-136500000D01*
X191502719Y-136500000D01*
X190583864Y-136880602D01*
X189880602Y-137583864D01*
X189500000Y-138502719D01*
X189500000Y-139497281D01*
X189880602Y-140416136D01*
X190464466Y-141000000D01*
X151919591Y-141000000D01*
X151919591Y-139500000D01*
X151841979Y-139109819D01*
X151829299Y-139090842D01*
X151831800Y-139084803D01*
X151831800Y-138515197D01*
X151806400Y-138453876D01*
X151806400Y-133982548D01*
X162051158Y-123737792D01*
X161900000Y-124102719D01*
X161900000Y-125097281D01*
X162280602Y-126016136D01*
X162983864Y-126719398D01*
X163902719Y-127100000D01*
X164897281Y-127100000D01*
X165816136Y-126719398D01*
X166519398Y-126016136D01*
X166900000Y-125097281D01*
X166900000Y-124102719D01*
X166519398Y-123183864D01*
X165816136Y-122480602D01*
X164897281Y-122100000D01*
X163902719Y-122100000D01*
X163537792Y-122251158D01*
X166296527Y-119492423D01*
X166413958Y-119413958D01*
X166724800Y-118948750D01*
X166806400Y-118538518D01*
X166806400Y-118538514D01*
X166833952Y-118400001D01*
X166806400Y-118261488D01*
X166806400Y-115995349D01*
X169441357Y-118630307D01*
X169296021Y-118847819D01*
X169218409Y-119238000D01*
X169218409Y-120762000D01*
X169296021Y-121152181D01*
X169517040Y-121482960D01*
X169847819Y-121703979D01*
X170238000Y-121781591D01*
X171762000Y-121781591D01*
X172152181Y-121703979D01*
X172482960Y-121482960D01*
X172502248Y-121454093D01*
X172541907Y-121493752D01*
X173189516Y-121762000D01*
X173890484Y-121762000D01*
X174538093Y-121493752D01*
X174810000Y-121221845D01*
X175081907Y-121493752D01*
X175729516Y-121762000D01*
X176430484Y-121762000D01*
X177078093Y-121493752D01*
X177573752Y-120998093D01*
X177584536Y-120972056D01*
X177724311Y-120972056D01*
X177783287Y-121243507D01*
X178322848Y-121469048D01*
X178907648Y-121470938D01*
X179448656Y-121248892D01*
X179456713Y-121243507D01*
X179515689Y-120972056D01*
X178620000Y-120076368D01*
X177724311Y-120972056D01*
X177584536Y-120972056D01*
X177618792Y-120889355D01*
X177647944Y-120895689D01*
X178543632Y-120000000D01*
X178696368Y-120000000D01*
X179592056Y-120895689D01*
X179863507Y-120836713D01*
X180089048Y-120297152D01*
X180090938Y-119712352D01*
X179868892Y-119171344D01*
X179863507Y-119163287D01*
X179592056Y-119104311D01*
X178696368Y-120000000D01*
X178543632Y-120000000D01*
X177647944Y-119104311D01*
X177618792Y-119110645D01*
X177584537Y-119027944D01*
X177724311Y-119027944D01*
X178620000Y-119923632D01*
X179515689Y-119027944D01*
X179456713Y-118756493D01*
X178917152Y-118530952D01*
X178332352Y-118529062D01*
X177791344Y-118751108D01*
X177783287Y-118756493D01*
X177724311Y-119027944D01*
X177584537Y-119027944D01*
X177573752Y-119001907D01*
X177078093Y-118506248D01*
X176430484Y-118238000D01*
X175729516Y-118238000D01*
X175081907Y-118506248D01*
X174810000Y-118778155D01*
X174538093Y-118506248D01*
X173890484Y-118238000D01*
X173189516Y-118238000D01*
X172541907Y-118506248D01*
X172502248Y-118545907D01*
X172482960Y-118517040D01*
X172406400Y-118465884D01*
X172406400Y-118338516D01*
X172433953Y-118199999D01*
X172389737Y-117977712D01*
X172324800Y-117651250D01*
X172013957Y-117186042D01*
X171896529Y-117107579D01*
X166492423Y-111703475D01*
X166413957Y-111586042D01*
X166296529Y-111507579D01*
X164492426Y-109703478D01*
X164413958Y-109586042D01*
X163948750Y-109275200D01*
X163538518Y-109193600D01*
X163538517Y-109193600D01*
X163400000Y-109166047D01*
X163261483Y-109193600D01*
X150382550Y-109193600D01*
X147991669Y-106802719D01*
X186700000Y-106802719D01*
X186700000Y-107797281D01*
X187080602Y-108716136D01*
X187783864Y-109419398D01*
X188702719Y-109800000D01*
X189697281Y-109800000D01*
X190616136Y-109419398D01*
X191319398Y-108716136D01*
X191700000Y-107797281D01*
X191700000Y-106802719D01*
X191319398Y-105883864D01*
X190616136Y-105180602D01*
X189697281Y-104800000D01*
X188702719Y-104800000D01*
X187783864Y-105180602D01*
X187080602Y-105883864D01*
X186700000Y-106802719D01*
X147991669Y-106802719D01*
X147306911Y-106117961D01*
X147613822Y-105811050D01*
X147831800Y-105284803D01*
X147831800Y-104715197D01*
X147704800Y-104408591D01*
X147704800Y-101928507D01*
X147730362Y-101800000D01*
X147700774Y-101651251D01*
X147629094Y-101290893D01*
X147425400Y-100986043D01*
X147413502Y-100968236D01*
X147340708Y-100859292D01*
X147231764Y-100786499D01*
X147045265Y-100600000D01*
X184610550Y-100600000D01*
X185832897Y-101006557D01*
G36*
X106895200Y-103821542D02*
X107206043Y-104286750D01*
X107323476Y-104365216D01*
X107854783Y-104896524D01*
X107933250Y-105013958D01*
X108398458Y-105324800D01*
X108808690Y-105406400D01*
X108808694Y-105406400D01*
X108947207Y-105433952D01*
X109085720Y-105406400D01*
X125400000Y-105406400D01*
X125400000Y-123051983D01*
X124923737Y-123249258D01*
X124730000Y-123442995D01*
X124536263Y-123249258D01*
X123837933Y-122960000D01*
X123082067Y-122960000D01*
X122383737Y-123249258D01*
X122190000Y-123442995D01*
X121996263Y-123249258D01*
X121297933Y-122960000D01*
X120542067Y-122960000D01*
X119843737Y-123249258D01*
X119650000Y-123442995D01*
X119456263Y-123249258D01*
X118757933Y-122960000D01*
X118002067Y-122960000D01*
X117303737Y-123249258D01*
X117110000Y-123442995D01*
X116916263Y-123249258D01*
X116217933Y-122960000D01*
X115462067Y-122960000D01*
X114763737Y-123249258D01*
X114570000Y-123442995D01*
X114376263Y-123249258D01*
X113677933Y-122960000D01*
X112922067Y-122960000D01*
X112223737Y-123249258D01*
X111740450Y-123732545D01*
X111679465Y-123502594D01*
X111090018Y-123254056D01*
X110450329Y-123250009D01*
X109857784Y-123491068D01*
X109840535Y-123502594D01*
X109779550Y-123732545D01*
X109296263Y-123249258D01*
X108597933Y-122960000D01*
X107842067Y-122960000D01*
X107143737Y-123249258D01*
X106609258Y-123783737D01*
X106320000Y-124482067D01*
X106320000Y-125237933D01*
X106609258Y-125936263D01*
X107143737Y-126470742D01*
X107842067Y-126760000D01*
X108597933Y-126760000D01*
X109296263Y-126470742D01*
X109779550Y-125987455D01*
X109840535Y-126217406D01*
X110071701Y-126314876D01*
X102800621Y-133585956D01*
X102695917Y-133655917D01*
X102418758Y-134070715D01*
X102346000Y-134436494D01*
X102346000Y-134436498D01*
X102321434Y-134560000D01*
X102346000Y-134683502D01*
X102346000Y-135085949D01*
X102168200Y-135515197D01*
X102168200Y-136084803D01*
X102386178Y-136611050D01*
X102788950Y-137013822D01*
X103315197Y-137231800D01*
X103884803Y-137231800D01*
X104411050Y-137013822D01*
X104813822Y-136611050D01*
X105031800Y-136084803D01*
X105031800Y-135515197D01*
X104854000Y-135085949D01*
X104854000Y-135079423D01*
X113173423Y-126760000D01*
X113677933Y-126760000D01*
X114376263Y-126470742D01*
X114570000Y-126277005D01*
X114763737Y-126470742D01*
X115462067Y-126760000D01*
X116217933Y-126760000D01*
X116916263Y-126470742D01*
X117110000Y-126277005D01*
X117119943Y-126286948D01*
X117101434Y-126380000D01*
X117126000Y-126503502D01*
X117126000Y-126503507D01*
X117198759Y-126869286D01*
X117405956Y-127179379D01*
X117405959Y-127179382D01*
X117475918Y-127284083D01*
X117580619Y-127354042D01*
X119025958Y-128799381D01*
X119095917Y-128904083D01*
X119200618Y-128974042D01*
X119200620Y-128974044D01*
X119357049Y-129078566D01*
X119510714Y-129181242D01*
X119876493Y-129254000D01*
X119876498Y-129254000D01*
X120000000Y-129278566D01*
X120123502Y-129254000D01*
X141246001Y-129254000D01*
X141246000Y-138846995D01*
X141110000Y-138982995D01*
X140916263Y-138789258D01*
X140217933Y-138500000D01*
X139462067Y-138500000D01*
X138763737Y-138789258D01*
X138229258Y-139323737D01*
X137940000Y-140022067D01*
X137940000Y-140777933D01*
X138031983Y-141000000D01*
X113535534Y-141000000D01*
X114119398Y-140416136D01*
X114500000Y-139497281D01*
X114500000Y-138502719D01*
X114119398Y-137583864D01*
X113416136Y-136880602D01*
X112497281Y-136500000D01*
X111502719Y-136500000D01*
X110583864Y-136880602D01*
X109880602Y-137583864D01*
X109500000Y-138502719D01*
X109500000Y-139497281D01*
X109880602Y-140416136D01*
X110464466Y-141000000D01*
X101537227Y-141000000D01*
X101401740Y-103975000D01*
X106207966Y-103975000D01*
X106327974Y-103995702D01*
X106523141Y-103951674D01*
X106719444Y-103912627D01*
X106731276Y-103904721D01*
X106745151Y-103901591D01*
X106890692Y-103798876D01*
X106895200Y-103821542D01*
X106895200Y-103821542D01*
G37*
X106895200Y-103821542D02*
X107206043Y-104286750D01*
X107323476Y-104365216D01*
X107854783Y-104896524D01*
X107933250Y-105013958D01*
X108398458Y-105324800D01*
X108808690Y-105406400D01*
X108808694Y-105406400D01*
X108947207Y-105433952D01*
X109085720Y-105406400D01*
X125400000Y-105406400D01*
X125400000Y-123051983D01*
X124923737Y-123249258D01*
X124730000Y-123442995D01*
X124536263Y-123249258D01*
X123837933Y-122960000D01*
X123082067Y-122960000D01*
X122383737Y-123249258D01*
X122190000Y-123442995D01*
X121996263Y-123249258D01*
X121297933Y-122960000D01*
X120542067Y-122960000D01*
X119843737Y-123249258D01*
X119650000Y-123442995D01*
X119456263Y-123249258D01*
X118757933Y-122960000D01*
X118002067Y-122960000D01*
X117303737Y-123249258D01*
X117110000Y-123442995D01*
X116916263Y-123249258D01*
X116217933Y-122960000D01*
X115462067Y-122960000D01*
X114763737Y-123249258D01*
X114570000Y-123442995D01*
X114376263Y-123249258D01*
X113677933Y-122960000D01*
X112922067Y-122960000D01*
X112223737Y-123249258D01*
X111740450Y-123732545D01*
X111679465Y-123502594D01*
X111090018Y-123254056D01*
X110450329Y-123250009D01*
X109857784Y-123491068D01*
X109840535Y-123502594D01*
X109779550Y-123732545D01*
X109296263Y-123249258D01*
X108597933Y-122960000D01*
X107842067Y-122960000D01*
X107143737Y-123249258D01*
X106609258Y-123783737D01*
X106320000Y-124482067D01*
X106320000Y-125237933D01*
X106609258Y-125936263D01*
X107143737Y-126470742D01*
X107842067Y-126760000D01*
X108597933Y-126760000D01*
X109296263Y-126470742D01*
X109779550Y-125987455D01*
X109840535Y-126217406D01*
X110071701Y-126314876D01*
X102800621Y-133585956D01*
X102695917Y-133655917D01*
X102418758Y-134070715D01*
X102346000Y-134436494D01*
X102346000Y-134436498D01*
X102321434Y-134560000D01*
X102346000Y-134683502D01*
X102346000Y-135085949D01*
X102168200Y-135515197D01*
X102168200Y-136084803D01*
X102386178Y-136611050D01*
X102788950Y-137013822D01*
X103315197Y-137231800D01*
X103884803Y-137231800D01*
X104411050Y-137013822D01*
X104813822Y-136611050D01*
X105031800Y-136084803D01*
X105031800Y-135515197D01*
X104854000Y-135085949D01*
X104854000Y-135079423D01*
X113173423Y-126760000D01*
X113677933Y-126760000D01*
X114376263Y-126470742D01*
X114570000Y-126277005D01*
X114763737Y-126470742D01*
X115462067Y-126760000D01*
X116217933Y-126760000D01*
X116916263Y-126470742D01*
X117110000Y-126277005D01*
X117119943Y-126286948D01*
X117101434Y-126380000D01*
X117126000Y-126503502D01*
X117126000Y-126503507D01*
X117198759Y-126869286D01*
X117405956Y-127179379D01*
X117405959Y-127179382D01*
X117475918Y-127284083D01*
X117580619Y-127354042D01*
X119025958Y-128799381D01*
X119095917Y-128904083D01*
X119200618Y-128974042D01*
X119200620Y-128974044D01*
X119357049Y-129078566D01*
X119510714Y-129181242D01*
X119876493Y-129254000D01*
X119876498Y-129254000D01*
X120000000Y-129278566D01*
X120123502Y-129254000D01*
X141246001Y-129254000D01*
X141246000Y-138846995D01*
X141110000Y-138982995D01*
X140916263Y-138789258D01*
X140217933Y-138500000D01*
X139462067Y-138500000D01*
X138763737Y-138789258D01*
X138229258Y-139323737D01*
X137940000Y-140022067D01*
X137940000Y-140777933D01*
X138031983Y-141000000D01*
X113535534Y-141000000D01*
X114119398Y-140416136D01*
X114500000Y-139497281D01*
X114500000Y-138502719D01*
X114119398Y-137583864D01*
X113416136Y-136880602D01*
X112497281Y-136500000D01*
X111502719Y-136500000D01*
X110583864Y-136880602D01*
X109880602Y-137583864D01*
X109500000Y-138502719D01*
X109500000Y-139497281D01*
X109880602Y-140416136D01*
X110464466Y-141000000D01*
X101537227Y-141000000D01*
X101401740Y-103975000D01*
X106207966Y-103975000D01*
X106327974Y-103995702D01*
X106523141Y-103951674D01*
X106719444Y-103912627D01*
X106731276Y-103904721D01*
X106745151Y-103901591D01*
X106890692Y-103798876D01*
X106895200Y-103821542D01*
G36*
X147550510Y-140385858D02*
X147536368Y-140400000D01*
X147550510Y-140414142D01*
X147474142Y-140490510D01*
X147460000Y-140476368D01*
X147445858Y-140490510D01*
X147369490Y-140414142D01*
X147383632Y-140400000D01*
X147369490Y-140385858D01*
X147445858Y-140309490D01*
X147460000Y-140323632D01*
X147474142Y-140309490D01*
X147550510Y-140385858D01*
X147550510Y-140385858D01*
G37*
X147550510Y-140385858D02*
X147536368Y-140400000D01*
X147550510Y-140414142D01*
X147474142Y-140490510D01*
X147460000Y-140476368D01*
X147445858Y-140490510D01*
X147369490Y-140414142D01*
X147383632Y-140400000D01*
X147369490Y-140385858D01*
X147445858Y-140309490D01*
X147460000Y-140323632D01*
X147474142Y-140309490D01*
X147550510Y-140385858D01*
G36*
X147495201Y-134859533D02*
X145454000Y-136900735D01*
X145454000Y-136879717D01*
X145581242Y-136689286D01*
X145654000Y-136323507D01*
X145654000Y-136323502D01*
X145678566Y-136200000D01*
X145654000Y-136076498D01*
X145654000Y-128319423D01*
X147495200Y-126478223D01*
X147495201Y-134859533D01*
X147495201Y-134859533D01*
G37*
X147495201Y-134859533D02*
X145454000Y-136900735D01*
X145454000Y-136879717D01*
X145581242Y-136689286D01*
X145654000Y-136323507D01*
X145654000Y-136323502D01*
X145678566Y-136200000D01*
X145654000Y-136076498D01*
X145654000Y-128319423D01*
X147495200Y-126478223D01*
X147495201Y-134859533D01*
G36*
X161703737Y-118110742D02*
X162402067Y-118400000D01*
X163157933Y-118400000D01*
X163590031Y-118221019D01*
X150104800Y-131706252D01*
X150104800Y-125991409D01*
X150231800Y-125684803D01*
X150231800Y-125115197D01*
X150013822Y-124588950D01*
X149699148Y-124274276D01*
X150981802Y-122991622D01*
X151411050Y-122813822D01*
X151813822Y-122411050D01*
X152031800Y-121884803D01*
X152031800Y-121315197D01*
X151813822Y-120788950D01*
X151411050Y-120386178D01*
X151394218Y-120379206D01*
X153419382Y-118354042D01*
X153524083Y-118284083D01*
X153594042Y-118179382D01*
X153594044Y-118179380D01*
X153618340Y-118143019D01*
X153696263Y-118110742D01*
X153890000Y-117917005D01*
X154083737Y-118110742D01*
X154782067Y-118400000D01*
X155537933Y-118400000D01*
X156236263Y-118110742D01*
X156430000Y-117917005D01*
X156623737Y-118110742D01*
X157322067Y-118400000D01*
X158077933Y-118400000D01*
X158776263Y-118110742D01*
X158970000Y-117917005D01*
X159163737Y-118110742D01*
X159862067Y-118400000D01*
X160617933Y-118400000D01*
X161316263Y-118110742D01*
X161510000Y-117917005D01*
X161703737Y-118110742D01*
X161703737Y-118110742D01*
G37*
X161703737Y-118110742D02*
X162402067Y-118400000D01*
X163157933Y-118400000D01*
X163590031Y-118221019D01*
X150104800Y-131706252D01*
X150104800Y-125991409D01*
X150231800Y-125684803D01*
X150231800Y-125115197D01*
X150013822Y-124588950D01*
X149699148Y-124274276D01*
X150981802Y-122991622D01*
X151411050Y-122813822D01*
X151813822Y-122411050D01*
X152031800Y-121884803D01*
X152031800Y-121315197D01*
X151813822Y-120788950D01*
X151411050Y-120386178D01*
X151394218Y-120379206D01*
X153419382Y-118354042D01*
X153524083Y-118284083D01*
X153594042Y-118179382D01*
X153594044Y-118179380D01*
X153618340Y-118143019D01*
X153696263Y-118110742D01*
X153890000Y-117917005D01*
X154083737Y-118110742D01*
X154782067Y-118400000D01*
X155537933Y-118400000D01*
X156236263Y-118110742D01*
X156430000Y-117917005D01*
X156623737Y-118110742D01*
X157322067Y-118400000D01*
X158077933Y-118400000D01*
X158776263Y-118110742D01*
X158970000Y-117917005D01*
X159163737Y-118110742D01*
X159862067Y-118400000D01*
X160617933Y-118400000D01*
X161316263Y-118110742D01*
X161510000Y-117917005D01*
X161703737Y-118110742D01*
G36*
X147211050Y-110000000D02*
X144103476Y-113107576D01*
X143986043Y-113186042D01*
X143700119Y-113613957D01*
X143675201Y-113651250D01*
X143566047Y-114200000D01*
X143593601Y-114338522D01*
X143593601Y-114735675D01*
X143379040Y-114879040D01*
X143158021Y-115209819D01*
X143080409Y-115600000D01*
X143080409Y-117400000D01*
X143158021Y-117790181D01*
X143379040Y-118120960D01*
X143709819Y-118341979D01*
X144100000Y-118419591D01*
X145900000Y-118419591D01*
X146290181Y-118341979D01*
X146620960Y-118120960D01*
X146758259Y-117915477D01*
X147209982Y-118105944D01*
X147717422Y-118109154D01*
X140280577Y-125546000D01*
X127772394Y-125546000D01*
X127900000Y-125237933D01*
X127900000Y-124482067D01*
X127610742Y-123783737D01*
X127227005Y-123400000D01*
X138600000Y-123400000D01*
X138676537Y-123384776D01*
X138741421Y-123341421D01*
X138784776Y-123276537D01*
X138800000Y-123200000D01*
X138800000Y-105400000D01*
X138784776Y-105323463D01*
X138741421Y-105258579D01*
X138676537Y-105215224D01*
X138600000Y-105200000D01*
X131135526Y-105200000D01*
X131413958Y-105013958D01*
X131492426Y-104896522D01*
X132782549Y-103606400D01*
X140817452Y-103606400D01*
X147211050Y-110000000D01*
X147211050Y-110000000D01*
G37*
X147211050Y-110000000D02*
X144103476Y-113107576D01*
X143986043Y-113186042D01*
X143700119Y-113613957D01*
X143675201Y-113651250D01*
X143566047Y-114200000D01*
X143593601Y-114338522D01*
X143593601Y-114735675D01*
X143379040Y-114879040D01*
X143158021Y-115209819D01*
X143080409Y-115600000D01*
X143080409Y-117400000D01*
X143158021Y-117790181D01*
X143379040Y-118120960D01*
X143709819Y-118341979D01*
X144100000Y-118419591D01*
X145900000Y-118419591D01*
X146290181Y-118341979D01*
X146620960Y-118120960D01*
X146758259Y-117915477D01*
X147209982Y-118105944D01*
X147717422Y-118109154D01*
X140280577Y-125546000D01*
X127772394Y-125546000D01*
X127900000Y-125237933D01*
X127900000Y-124482067D01*
X127610742Y-123783737D01*
X127227005Y-123400000D01*
X138600000Y-123400000D01*
X138676537Y-123384776D01*
X138741421Y-123341421D01*
X138784776Y-123276537D01*
X138800000Y-123200000D01*
X138800000Y-105400000D01*
X138784776Y-105323463D01*
X138741421Y-105258579D01*
X138676537Y-105215224D01*
X138600000Y-105200000D01*
X131135526Y-105200000D01*
X131413958Y-105013958D01*
X131492426Y-104896522D01*
X132782549Y-103606400D01*
X140817452Y-103606400D01*
X147211050Y-110000000D01*
G36*
X110850510Y-124845858D02*
X110836368Y-124860000D01*
X110850510Y-124874142D01*
X110774142Y-124950510D01*
X110760000Y-124936368D01*
X110745858Y-124950510D01*
X110669490Y-124874142D01*
X110683632Y-124860000D01*
X110669490Y-124845858D01*
X110745858Y-124769490D01*
X110760000Y-124783632D01*
X110774142Y-124769490D01*
X110850510Y-124845858D01*
X110850510Y-124845858D01*
G37*
X110850510Y-124845858D02*
X110836368Y-124860000D01*
X110850510Y-124874142D01*
X110774142Y-124950510D01*
X110760000Y-124936368D01*
X110745858Y-124950510D01*
X110669490Y-124874142D01*
X110683632Y-124860000D01*
X110669490Y-124845858D01*
X110745858Y-124769490D01*
X110760000Y-124783632D01*
X110774142Y-124769490D01*
X110850510Y-124845858D01*
G36*
X147630510Y-116485858D02*
X147616368Y-116500000D01*
X147630510Y-116514142D01*
X147554142Y-116590510D01*
X147540000Y-116576368D01*
X147525858Y-116590510D01*
X147449490Y-116514142D01*
X147463632Y-116500000D01*
X147449490Y-116485858D01*
X147525858Y-116409490D01*
X147540000Y-116423632D01*
X147554142Y-116409490D01*
X147630510Y-116485858D01*
X147630510Y-116485858D01*
G37*
X147630510Y-116485858D02*
X147616368Y-116500000D01*
X147630510Y-116514142D01*
X147554142Y-116590510D01*
X147540000Y-116576368D01*
X147525858Y-116590510D01*
X147449490Y-116514142D01*
X147463632Y-116500000D01*
X147449490Y-116485858D01*
X147525858Y-116409490D01*
X147540000Y-116423632D01*
X147554142Y-116409490D01*
X147630510Y-116485858D01*
G04 #@! TD*
M02*
