M48
;DRILL file {KiCad 5.0.0-rc2-be01b52~65~ubuntu16.04.1} date Mon Jun 25 12:20:37 2018
;FORMAT={-:-/ absolute / inch / decimal}
FMAT,2
INCH,TZ
T1C0.0200
T2C0.0354
T3C0.0394
T4C0.1181
%
G90
G05
M72
T1
X4.0787Y-5.3465
X4.1488Y-5.3661
X4.1654Y-5.0866
X4.2126Y-5.0236
X4.3252Y-4.9866
X4.3622Y-4.8268
X4.378Y-5.1417
X4.4488Y-5.0945
X4.779Y-5.1457
X4.8425Y-5.0945
X4.9449Y-5.3622
X5.1732Y-5.1496
X5.5197Y-4.4961
X5.5276Y-5.1339
X5.5906Y-4.7953
X5.7402Y-5.1417
X5.7402Y-5.3701
X5.7402Y-5.4488
X5.7638Y-4.1339
X5.8583Y-4.937
X5.9213Y-5.4646
X5.9291Y-4.7874
X6.0157Y-4.7559
X6.0157Y-4.8189
X6.0945Y-4.937
X6.1331Y-5.3661
X6.5669Y-5.4094
X6.9606Y-5.4094
X7.3543Y-5.4094
X7.7008Y-5.3937
X7.748Y-5.4094
T2
X6.7323Y-4.7244
X6.8323Y-4.7244
X6.9323Y-4.7244
X7.0323Y-4.7244
T3
X5.7087Y-4.5866
X5.8087Y-4.5866
X5.9087Y-4.5866
X6.0087Y-4.5866
X6.1087Y-4.5866
X6.2087Y-4.5866
X6.3087Y-4.5866
X6.4087Y-4.5866
X5.5055Y-5.5276
X5.6055Y-5.5276
X5.7055Y-5.5276
X5.8055Y-5.5276
X5.9055Y-5.5276
X4.2606Y-4.0157
X4.2606Y-4.9157
X4.3606Y-4.0157
X4.3606Y-4.9157
X4.4606Y-4.0157
X4.4606Y-4.9157
X4.5606Y-4.0157
X4.5606Y-4.9157
X4.6606Y-4.0157
X4.6606Y-4.9157
X4.7606Y-4.0157
X4.7606Y-4.9157
X4.8606Y-4.0157
X4.8606Y-4.9157
X4.9606Y-4.0157
X4.9606Y-4.9157
T4
X6.4724Y-4.9055
X7.4488Y-4.2244
X4.4094Y-5.4724
X7.5591Y-5.4724
T0
M30
