G04 #@! TF.GenerationSoftware,KiCad,Pcbnew,5.0.0-rc2-be01b52~65~ubuntu16.04.1*
G04 #@! TF.CreationDate,2018-06-25T12:20:31+02:00*
G04 #@! TF.ProjectId,Firefly,46697265666C792E6B696361645F7063,rev?*
G04 #@! TF.SameCoordinates,Original*
G04 #@! TF.FileFunction,Soldermask,Top*
G04 #@! TF.FilePolarity,Negative*
%FSLAX46Y46*%
G04 Gerber Fmt 4.6, Leading zero omitted, Abs format (unit mm)*
G04 Created by KiCad (PCBNEW 5.0.0-rc2-be01b52~65~ubuntu16.04.1) date Mon Jun 25 12:20:31 2018*
%MOMM*%
%LPD*%
G01*
G04 APERTURE LIST*
%ADD10C,0.350000*%
%ADD11C,0.450000*%
%ADD12C,0.100000*%
G04 APERTURE END LIST*
D10*
X182250000Y-127378571D02*
X182250000Y-125878571D01*
X182250000Y-126450000D02*
X182392857Y-126378571D01*
X182678571Y-126378571D01*
X182821428Y-126450000D01*
X182892857Y-126521428D01*
X182964285Y-126664285D01*
X182964285Y-127092857D01*
X182892857Y-127235714D01*
X182821428Y-127307142D01*
X182678571Y-127378571D01*
X182392857Y-127378571D01*
X182250000Y-127307142D01*
X183464285Y-126378571D02*
X183821428Y-127378571D01*
X184178571Y-126378571D02*
X183821428Y-127378571D01*
X183678571Y-127735714D01*
X183607142Y-127807142D01*
X183464285Y-127878571D01*
X185678571Y-125878571D02*
X186535714Y-125878571D01*
X186107142Y-127378571D02*
X186107142Y-125878571D01*
X187678571Y-126378571D02*
X187678571Y-127378571D01*
X187035714Y-126378571D02*
X187035714Y-127164285D01*
X187107142Y-127307142D01*
X187250000Y-127378571D01*
X187464285Y-127378571D01*
X187607142Y-127307142D01*
X187678571Y-127235714D01*
X188178571Y-126378571D02*
X188750000Y-126378571D01*
X188392857Y-125878571D02*
X188392857Y-127164285D01*
X188464285Y-127307142D01*
X188607142Y-127378571D01*
X188750000Y-127378571D01*
X189464285Y-127378571D02*
X189321428Y-127307142D01*
X189250000Y-127235714D01*
X189178571Y-127092857D01*
X189178571Y-126664285D01*
X189250000Y-126521428D01*
X189321428Y-126450000D01*
X189464285Y-126378571D01*
X189678571Y-126378571D01*
X189821428Y-126450000D01*
X189892857Y-126521428D01*
X189964285Y-126664285D01*
X189964285Y-127092857D01*
X189892857Y-127235714D01*
X189821428Y-127307142D01*
X189678571Y-127378571D01*
X189464285Y-127378571D01*
X190607142Y-126592857D02*
X191107142Y-126592857D01*
X191321428Y-127378571D02*
X190607142Y-127378571D01*
X190607142Y-125878571D01*
X191321428Y-125878571D01*
X192178571Y-127378571D02*
X192035714Y-127307142D01*
X191964285Y-127164285D01*
X191964285Y-125878571D01*
X193321428Y-127307142D02*
X193178571Y-127378571D01*
X192892857Y-127378571D01*
X192750000Y-127307142D01*
X192678571Y-127164285D01*
X192678571Y-126592857D01*
X192750000Y-126450000D01*
X192892857Y-126378571D01*
X193178571Y-126378571D01*
X193321428Y-126450000D01*
X193392857Y-126592857D01*
X193392857Y-126735714D01*
X192678571Y-126878571D01*
X194678571Y-127307142D02*
X194535714Y-127378571D01*
X194250000Y-127378571D01*
X194107142Y-127307142D01*
X194035714Y-127235714D01*
X193964285Y-127092857D01*
X193964285Y-126664285D01*
X194035714Y-126521428D01*
X194107142Y-126450000D01*
X194250000Y-126378571D01*
X194535714Y-126378571D01*
X194678571Y-126450000D01*
X195107142Y-126378571D02*
X195678571Y-126378571D01*
X195321428Y-125878571D02*
X195321428Y-127164285D01*
X195392857Y-127307142D01*
X195535714Y-127378571D01*
X195678571Y-127378571D01*
X196178571Y-127378571D02*
X196178571Y-126378571D01*
X196178571Y-126664285D02*
X196250000Y-126521428D01*
X196321428Y-126450000D01*
X196464285Y-126378571D01*
X196607142Y-126378571D01*
X197321428Y-127378571D02*
X197178571Y-127307142D01*
X197107142Y-127235714D01*
X197035714Y-127092857D01*
X197035714Y-126664285D01*
X197107142Y-126521428D01*
X197178571Y-126450000D01*
X197321428Y-126378571D01*
X197535714Y-126378571D01*
X197678571Y-126450000D01*
X197750000Y-126521428D01*
X197821428Y-126664285D01*
X197821428Y-127092857D01*
X197750000Y-127235714D01*
X197678571Y-127307142D01*
X197535714Y-127378571D01*
X197321428Y-127378571D01*
D11*
X182695238Y-123321428D02*
X181861904Y-123321428D01*
X181861904Y-124630952D02*
X181861904Y-122130952D01*
X183052380Y-122130952D01*
X184004761Y-124630952D02*
X184004761Y-122964285D01*
X184004761Y-122130952D02*
X183885714Y-122250000D01*
X184004761Y-122369047D01*
X184123809Y-122250000D01*
X184004761Y-122130952D01*
X184004761Y-122369047D01*
X185195238Y-124630952D02*
X185195238Y-122964285D01*
X185195238Y-123440476D02*
X185314285Y-123202380D01*
X185433333Y-123083333D01*
X185671428Y-122964285D01*
X185909523Y-122964285D01*
X187695238Y-124511904D02*
X187457142Y-124630952D01*
X186980952Y-124630952D01*
X186742857Y-124511904D01*
X186623809Y-124273809D01*
X186623809Y-123321428D01*
X186742857Y-123083333D01*
X186980952Y-122964285D01*
X187457142Y-122964285D01*
X187695238Y-123083333D01*
X187814285Y-123321428D01*
X187814285Y-123559523D01*
X186623809Y-123797619D01*
X188528571Y-122964285D02*
X189480952Y-122964285D01*
X188885714Y-124630952D02*
X188885714Y-122488095D01*
X189004761Y-122250000D01*
X189242857Y-122130952D01*
X189480952Y-122130952D01*
X190671428Y-124630952D02*
X190433333Y-124511904D01*
X190314285Y-124273809D01*
X190314285Y-122130952D01*
X191385714Y-122964285D02*
X191980952Y-124630952D01*
X192576190Y-122964285D02*
X191980952Y-124630952D01*
X191742857Y-125226190D01*
X191623809Y-125345238D01*
X191385714Y-125464285D01*
D12*
G36*
X145083151Y-139411230D02*
X145212158Y-139436891D01*
X145394433Y-139512392D01*
X145558484Y-139622008D01*
X145697992Y-139761516D01*
X145807608Y-139925567D01*
X145883109Y-140107842D01*
X145921600Y-140301352D01*
X145921600Y-140498648D01*
X145883109Y-140692158D01*
X145807608Y-140874433D01*
X145697992Y-141038484D01*
X145558484Y-141177992D01*
X145394433Y-141287608D01*
X145212158Y-141363109D01*
X145083151Y-141388770D01*
X145018649Y-141401600D01*
X144821351Y-141401600D01*
X144756849Y-141388770D01*
X144627842Y-141363109D01*
X144445567Y-141287608D01*
X144281516Y-141177992D01*
X144142008Y-141038484D01*
X144032392Y-140874433D01*
X143956891Y-140692158D01*
X143918400Y-140498648D01*
X143918400Y-140301352D01*
X143956891Y-140107842D01*
X144032392Y-139925567D01*
X144142008Y-139761516D01*
X144281516Y-139622008D01*
X144445567Y-139512392D01*
X144627842Y-139436891D01*
X144756849Y-139411230D01*
X144821351Y-139398400D01*
X145018649Y-139398400D01*
X145083151Y-139411230D01*
X145083151Y-139411230D01*
G37*
G36*
X142543151Y-139411230D02*
X142672158Y-139436891D01*
X142854433Y-139512392D01*
X143018484Y-139622008D01*
X143157992Y-139761516D01*
X143267608Y-139925567D01*
X143343109Y-140107842D01*
X143381600Y-140301352D01*
X143381600Y-140498648D01*
X143343109Y-140692158D01*
X143267608Y-140874433D01*
X143157992Y-141038484D01*
X143018484Y-141177992D01*
X142854433Y-141287608D01*
X142672158Y-141363109D01*
X142543151Y-141388770D01*
X142478649Y-141401600D01*
X142281351Y-141401600D01*
X142216849Y-141388770D01*
X142087842Y-141363109D01*
X141905567Y-141287608D01*
X141741516Y-141177992D01*
X141602008Y-141038484D01*
X141492392Y-140874433D01*
X141416891Y-140692158D01*
X141378400Y-140498648D01*
X141378400Y-140301352D01*
X141416891Y-140107842D01*
X141492392Y-139925567D01*
X141602008Y-139761516D01*
X141741516Y-139622008D01*
X141905567Y-139512392D01*
X142087842Y-139436891D01*
X142216849Y-139411230D01*
X142281351Y-139398400D01*
X142478649Y-139398400D01*
X142543151Y-139411230D01*
X142543151Y-139411230D01*
G37*
G36*
X140003151Y-139411230D02*
X140132158Y-139436891D01*
X140314433Y-139512392D01*
X140478484Y-139622008D01*
X140617992Y-139761516D01*
X140727608Y-139925567D01*
X140803109Y-140107842D01*
X140841600Y-140301352D01*
X140841600Y-140498648D01*
X140803109Y-140692158D01*
X140727608Y-140874433D01*
X140617992Y-141038484D01*
X140478484Y-141177992D01*
X140314433Y-141287608D01*
X140132158Y-141363109D01*
X140003151Y-141388770D01*
X139938649Y-141401600D01*
X139741351Y-141401600D01*
X139676849Y-141388770D01*
X139547842Y-141363109D01*
X139365567Y-141287608D01*
X139201516Y-141177992D01*
X139062008Y-141038484D01*
X138952392Y-140874433D01*
X138876891Y-140692158D01*
X138838400Y-140498648D01*
X138838400Y-140301352D01*
X138876891Y-140107842D01*
X138952392Y-139925567D01*
X139062008Y-139761516D01*
X139201516Y-139622008D01*
X139365567Y-139512392D01*
X139547842Y-139436891D01*
X139676849Y-139411230D01*
X139741351Y-139398400D01*
X139938649Y-139398400D01*
X140003151Y-139411230D01*
X140003151Y-139411230D01*
G37*
G36*
X151001600Y-141401600D02*
X148998400Y-141401600D01*
X148998400Y-139398400D01*
X151001600Y-139398400D01*
X151001600Y-141401600D01*
X151001600Y-141401600D01*
G37*
G36*
X147623151Y-139411230D02*
X147752158Y-139436891D01*
X147934433Y-139512392D01*
X148098484Y-139622008D01*
X148237992Y-139761516D01*
X148347608Y-139925567D01*
X148423109Y-140107842D01*
X148461600Y-140301352D01*
X148461600Y-140498648D01*
X148423109Y-140692158D01*
X148347608Y-140874433D01*
X148237992Y-141038484D01*
X148098484Y-141177992D01*
X147934433Y-141287608D01*
X147752158Y-141363109D01*
X147623151Y-141388770D01*
X147558649Y-141401600D01*
X147361351Y-141401600D01*
X147296849Y-141388770D01*
X147167842Y-141363109D01*
X146985567Y-141287608D01*
X146821516Y-141177992D01*
X146682008Y-141038484D01*
X146572392Y-140874433D01*
X146496891Y-140692158D01*
X146458400Y-140498648D01*
X146458400Y-140301352D01*
X146496891Y-140107842D01*
X146572392Y-139925567D01*
X146682008Y-139761516D01*
X146821516Y-139622008D01*
X146985567Y-139512392D01*
X147167842Y-139436891D01*
X147296849Y-139411230D01*
X147361351Y-139398400D01*
X147558649Y-139398400D01*
X147623151Y-139411230D01*
X147623151Y-139411230D01*
G37*
G36*
X192260886Y-137418916D02*
X192467171Y-137459949D01*
X192758640Y-137580679D01*
X193020961Y-137755957D01*
X193244043Y-137979039D01*
X193419321Y-138241360D01*
X193540051Y-138532829D01*
X193601600Y-138842257D01*
X193601600Y-139157743D01*
X193540051Y-139467171D01*
X193419321Y-139758640D01*
X193244043Y-140020961D01*
X193020961Y-140244043D01*
X192758640Y-140419321D01*
X192467171Y-140540051D01*
X192260886Y-140581084D01*
X192157744Y-140601600D01*
X191842256Y-140601600D01*
X191739114Y-140581084D01*
X191532829Y-140540051D01*
X191241360Y-140419321D01*
X190979039Y-140244043D01*
X190755957Y-140020961D01*
X190580679Y-139758640D01*
X190459949Y-139467171D01*
X190398400Y-139157743D01*
X190398400Y-138842257D01*
X190459949Y-138532829D01*
X190580679Y-138241360D01*
X190755957Y-137979039D01*
X190979039Y-137755957D01*
X191241360Y-137580679D01*
X191532829Y-137459949D01*
X191739114Y-137418916D01*
X191842256Y-137398400D01*
X192157744Y-137398400D01*
X192260886Y-137418916D01*
X192260886Y-137418916D01*
G37*
G36*
X112260886Y-137418916D02*
X112467171Y-137459949D01*
X112758640Y-137580679D01*
X113020961Y-137755957D01*
X113244043Y-137979039D01*
X113419321Y-138241360D01*
X113540051Y-138532829D01*
X113601600Y-138842257D01*
X113601600Y-139157743D01*
X113540051Y-139467171D01*
X113419321Y-139758640D01*
X113244043Y-140020961D01*
X113020961Y-140244043D01*
X112758640Y-140419321D01*
X112467171Y-140540051D01*
X112260886Y-140581084D01*
X112157744Y-140601600D01*
X111842256Y-140601600D01*
X111739114Y-140581084D01*
X111532829Y-140540051D01*
X111241360Y-140419321D01*
X110979039Y-140244043D01*
X110755957Y-140020961D01*
X110580679Y-139758640D01*
X110459949Y-139467171D01*
X110398400Y-139157743D01*
X110398400Y-138842257D01*
X110459949Y-138532829D01*
X110580679Y-138241360D01*
X110755957Y-137979039D01*
X110979039Y-137755957D01*
X111241360Y-137580679D01*
X111532829Y-137459949D01*
X111739114Y-137418916D01*
X111842256Y-137398400D01*
X112157744Y-137398400D01*
X112260886Y-137418916D01*
X112260886Y-137418916D01*
G37*
G36*
X168911600Y-136901600D02*
X168038400Y-136901600D01*
X168038400Y-135698400D01*
X168911600Y-135698400D01*
X168911600Y-136901600D01*
X168911600Y-136901600D01*
G37*
G36*
X138911600Y-136901600D02*
X138038400Y-136901600D01*
X138038400Y-135698400D01*
X138911600Y-135698400D01*
X138911600Y-136901600D01*
X138911600Y-136901600D01*
G37*
G36*
X137161600Y-136901600D02*
X136288400Y-136901600D01*
X136288400Y-135698400D01*
X137161600Y-135698400D01*
X137161600Y-136901600D01*
X137161600Y-136901600D01*
G37*
G36*
X147161600Y-136901600D02*
X146288400Y-136901600D01*
X146288400Y-135698400D01*
X147161600Y-135698400D01*
X147161600Y-136901600D01*
X147161600Y-136901600D01*
G37*
G36*
X148911600Y-136901600D02*
X148038400Y-136901600D01*
X148038400Y-135698400D01*
X148911600Y-135698400D01*
X148911600Y-136901600D01*
X148911600Y-136901600D01*
G37*
G36*
X157161600Y-136901600D02*
X156288400Y-136901600D01*
X156288400Y-135698400D01*
X157161600Y-135698400D01*
X157161600Y-136901600D01*
X157161600Y-136901600D01*
G37*
G36*
X158911600Y-136901600D02*
X158038400Y-136901600D01*
X158038400Y-135698400D01*
X158911600Y-135698400D01*
X158911600Y-136901600D01*
X158911600Y-136901600D01*
G37*
G36*
X167161600Y-136901600D02*
X166288400Y-136901600D01*
X166288400Y-135698400D01*
X167161600Y-135698400D01*
X167161600Y-136901600D01*
X167161600Y-136901600D01*
G37*
G36*
X177161600Y-136901600D02*
X176288400Y-136901600D01*
X176288400Y-135698400D01*
X177161600Y-135698400D01*
X177161600Y-136901600D01*
X177161600Y-136901600D01*
G37*
G36*
X187086600Y-136901600D02*
X186213400Y-136901600D01*
X186213400Y-135698400D01*
X187086600Y-135698400D01*
X187086600Y-136901600D01*
X187086600Y-136901600D01*
G37*
G36*
X178911600Y-136901600D02*
X178038400Y-136901600D01*
X178038400Y-135698400D01*
X178911600Y-135698400D01*
X178911600Y-136901600D01*
X178911600Y-136901600D01*
G37*
G36*
X188836600Y-136901600D02*
X187963400Y-136901600D01*
X187963400Y-135698400D01*
X188836600Y-135698400D01*
X188836600Y-136901600D01*
X188836600Y-136901600D01*
G37*
G36*
X197161600Y-136901600D02*
X196288400Y-136901600D01*
X196288400Y-135698400D01*
X197161600Y-135698400D01*
X197161600Y-136901600D01*
X197161600Y-136901600D01*
G37*
G36*
X198911600Y-136901600D02*
X198038400Y-136901600D01*
X198038400Y-135698400D01*
X198911600Y-135698400D01*
X198911600Y-136901600D01*
X198911600Y-136901600D01*
G37*
G36*
X117161600Y-136901600D02*
X116288400Y-136901600D01*
X116288400Y-135698400D01*
X117161600Y-135698400D01*
X117161600Y-136901600D01*
X117161600Y-136901600D01*
G37*
G36*
X106761600Y-136901600D02*
X105888400Y-136901600D01*
X105888400Y-135698400D01*
X106761600Y-135698400D01*
X106761600Y-136901600D01*
X106761600Y-136901600D01*
G37*
G36*
X108511600Y-136901600D02*
X107638400Y-136901600D01*
X107638400Y-135698400D01*
X108511600Y-135698400D01*
X108511600Y-136901600D01*
X108511600Y-136901600D01*
G37*
G36*
X118911600Y-136901600D02*
X118038400Y-136901600D01*
X118038400Y-135698400D01*
X118911600Y-135698400D01*
X118911600Y-136901600D01*
X118911600Y-136901600D01*
G37*
G36*
X127161600Y-136801600D02*
X126288400Y-136801600D01*
X126288400Y-135598400D01*
X127161600Y-135598400D01*
X127161600Y-136801600D01*
X127161600Y-136801600D01*
G37*
G36*
X128911600Y-136801600D02*
X128038400Y-136801600D01*
X128038400Y-135598400D01*
X128911600Y-135598400D01*
X128911600Y-136801600D01*
X128911600Y-136801600D01*
G37*
G36*
X118701600Y-134501600D02*
X116998400Y-134501600D01*
X116998400Y-133298400D01*
X118701600Y-133298400D01*
X118701600Y-134501600D01*
X118701600Y-134501600D01*
G37*
G36*
X173801600Y-134501600D02*
X172098400Y-134501600D01*
X172098400Y-133298400D01*
X173801600Y-133298400D01*
X173801600Y-134501600D01*
X173801600Y-134501600D01*
G37*
G36*
X198701600Y-134501600D02*
X196998400Y-134501600D01*
X196998400Y-133298400D01*
X198701600Y-133298400D01*
X198701600Y-134501600D01*
X198701600Y-134501600D01*
G37*
G36*
X193801600Y-134501600D02*
X192098400Y-134501600D01*
X192098400Y-133298400D01*
X193801600Y-133298400D01*
X193801600Y-134501600D01*
X193801600Y-134501600D01*
G37*
G36*
X188701600Y-134501600D02*
X186998400Y-134501600D01*
X186998400Y-133298400D01*
X188701600Y-133298400D01*
X188701600Y-134501600D01*
X188701600Y-134501600D01*
G37*
G36*
X183801600Y-134501600D02*
X182098400Y-134501600D01*
X182098400Y-133298400D01*
X183801600Y-133298400D01*
X183801600Y-134501600D01*
X183801600Y-134501600D01*
G37*
G36*
X128701600Y-134501600D02*
X126998400Y-134501600D01*
X126998400Y-133298400D01*
X128701600Y-133298400D01*
X128701600Y-134501600D01*
X128701600Y-134501600D01*
G37*
G36*
X168701600Y-134501600D02*
X166998400Y-134501600D01*
X166998400Y-133298400D01*
X168701600Y-133298400D01*
X168701600Y-134501600D01*
X168701600Y-134501600D01*
G37*
G36*
X178701600Y-134501600D02*
X176998400Y-134501600D01*
X176998400Y-133298400D01*
X178701600Y-133298400D01*
X178701600Y-134501600D01*
X178701600Y-134501600D01*
G37*
G36*
X113801600Y-134501600D02*
X112098400Y-134501600D01*
X112098400Y-133298400D01*
X113801600Y-133298400D01*
X113801600Y-134501600D01*
X113801600Y-134501600D01*
G37*
G36*
X138701600Y-134501600D02*
X136998400Y-134501600D01*
X136998400Y-133298400D01*
X138701600Y-133298400D01*
X138701600Y-134501600D01*
X138701600Y-134501600D01*
G37*
G36*
X133801600Y-134501600D02*
X132098400Y-134501600D01*
X132098400Y-133298400D01*
X133801600Y-133298400D01*
X133801600Y-134501600D01*
X133801600Y-134501600D01*
G37*
G36*
X103801600Y-134501600D02*
X102098400Y-134501600D01*
X102098400Y-133298400D01*
X103801600Y-133298400D01*
X103801600Y-134501600D01*
X103801600Y-134501600D01*
G37*
G36*
X148701600Y-134501600D02*
X146998400Y-134501600D01*
X146998400Y-133298400D01*
X148701600Y-133298400D01*
X148701600Y-134501600D01*
X148701600Y-134501600D01*
G37*
G36*
X143801600Y-134501600D02*
X142098400Y-134501600D01*
X142098400Y-133298400D01*
X143801600Y-133298400D01*
X143801600Y-134501600D01*
X143801600Y-134501600D01*
G37*
G36*
X153801600Y-134501600D02*
X152098400Y-134501600D01*
X152098400Y-133298400D01*
X153801600Y-133298400D01*
X153801600Y-134501600D01*
X153801600Y-134501600D01*
G37*
G36*
X158701600Y-134501600D02*
X156998400Y-134501600D01*
X156998400Y-133298400D01*
X158701600Y-133298400D01*
X158701600Y-134501600D01*
X158701600Y-134501600D01*
G37*
G36*
X163801600Y-134501600D02*
X162098400Y-134501600D01*
X162098400Y-133298400D01*
X163801600Y-133298400D01*
X163801600Y-134501600D01*
X163801600Y-134501600D01*
G37*
G36*
X108701600Y-134501600D02*
X106998400Y-134501600D01*
X106998400Y-133298400D01*
X108701600Y-133298400D01*
X108701600Y-134501600D01*
X108701600Y-134501600D01*
G37*
G36*
X123801600Y-134501600D02*
X122098400Y-134501600D01*
X122098400Y-133298400D01*
X123801600Y-133298400D01*
X123801600Y-134501600D01*
X123801600Y-134501600D01*
G37*
G36*
X153801600Y-131301600D02*
X152098400Y-131301600D01*
X152098400Y-130098400D01*
X153801600Y-130098400D01*
X153801600Y-131301600D01*
X153801600Y-131301600D01*
G37*
G36*
X143801600Y-131301600D02*
X142098400Y-131301600D01*
X142098400Y-130098400D01*
X143801600Y-130098400D01*
X143801600Y-131301600D01*
X143801600Y-131301600D01*
G37*
G36*
X148701600Y-131301600D02*
X146998400Y-131301600D01*
X146998400Y-130098400D01*
X148701600Y-130098400D01*
X148701600Y-131301600D01*
X148701600Y-131301600D01*
G37*
G36*
X133801600Y-131301600D02*
X132098400Y-131301600D01*
X132098400Y-130098400D01*
X133801600Y-130098400D01*
X133801600Y-131301600D01*
X133801600Y-131301600D01*
G37*
G36*
X138701600Y-131301600D02*
X136998400Y-131301600D01*
X136998400Y-130098400D01*
X138701600Y-130098400D01*
X138701600Y-131301600D01*
X138701600Y-131301600D01*
G37*
G36*
X113801600Y-131301600D02*
X112098400Y-131301600D01*
X112098400Y-130098400D01*
X113801600Y-130098400D01*
X113801600Y-131301600D01*
X113801600Y-131301600D01*
G37*
G36*
X118701600Y-131301600D02*
X116998400Y-131301600D01*
X116998400Y-130098400D01*
X118701600Y-130098400D01*
X118701600Y-131301600D01*
X118701600Y-131301600D01*
G37*
G36*
X108701600Y-131301600D02*
X106998400Y-131301600D01*
X106998400Y-130098400D01*
X108701600Y-130098400D01*
X108701600Y-131301600D01*
X108701600Y-131301600D01*
G37*
G36*
X123801600Y-131301600D02*
X122098400Y-131301600D01*
X122098400Y-130098400D01*
X123801600Y-130098400D01*
X123801600Y-131301600D01*
X123801600Y-131301600D01*
G37*
G36*
X173801600Y-131301600D02*
X172098400Y-131301600D01*
X172098400Y-130098400D01*
X173801600Y-130098400D01*
X173801600Y-131301600D01*
X173801600Y-131301600D01*
G37*
G36*
X163801600Y-131301600D02*
X162098400Y-131301600D01*
X162098400Y-130098400D01*
X163801600Y-130098400D01*
X163801600Y-131301600D01*
X163801600Y-131301600D01*
G37*
G36*
X103801600Y-131301600D02*
X102098400Y-131301600D01*
X102098400Y-130098400D01*
X103801600Y-130098400D01*
X103801600Y-131301600D01*
X103801600Y-131301600D01*
G37*
G36*
X128701600Y-131301600D02*
X126998400Y-131301600D01*
X126998400Y-130098400D01*
X128701600Y-130098400D01*
X128701600Y-131301600D01*
X128701600Y-131301600D01*
G37*
G36*
X158701600Y-131301600D02*
X156998400Y-131301600D01*
X156998400Y-130098400D01*
X158701600Y-130098400D01*
X158701600Y-131301600D01*
X158701600Y-131301600D01*
G37*
G36*
X193801600Y-131301600D02*
X192098400Y-131301600D01*
X192098400Y-130098400D01*
X193801600Y-130098400D01*
X193801600Y-131301600D01*
X193801600Y-131301600D01*
G37*
G36*
X198701600Y-131301600D02*
X196998400Y-131301600D01*
X196998400Y-130098400D01*
X198701600Y-130098400D01*
X198701600Y-131301600D01*
X198701600Y-131301600D01*
G37*
G36*
X183801600Y-131301600D02*
X182098400Y-131301600D01*
X182098400Y-130098400D01*
X183801600Y-130098400D01*
X183801600Y-131301600D01*
X183801600Y-131301600D01*
G37*
G36*
X178701600Y-131301600D02*
X176998400Y-131301600D01*
X176998400Y-130098400D01*
X178701600Y-130098400D01*
X178701600Y-131301600D01*
X178701600Y-131301600D01*
G37*
G36*
X168701600Y-131301600D02*
X166998400Y-131301600D01*
X166998400Y-130098400D01*
X168701600Y-130098400D01*
X168701600Y-131301600D01*
X168701600Y-131301600D01*
G37*
G36*
X188701600Y-131301600D02*
X186998400Y-131301600D01*
X186998400Y-130098400D01*
X188701600Y-130098400D01*
X188701600Y-131301600D01*
X188701600Y-131301600D01*
G37*
G36*
X104174177Y-126749925D02*
X104182960Y-126754619D01*
X104192487Y-126757509D01*
X104217367Y-126759960D01*
X104330223Y-126794194D01*
X104434232Y-126849788D01*
X104525396Y-126924605D01*
X104600213Y-127015769D01*
X104655807Y-127119778D01*
X104690041Y-127232634D01*
X104701601Y-127350000D01*
X104701601Y-127850000D01*
X104690041Y-127967366D01*
X104655807Y-128080222D01*
X104600213Y-128184231D01*
X104525396Y-128275395D01*
X104434232Y-128350212D01*
X104330223Y-128405806D01*
X104217367Y-128440040D01*
X104194973Y-128442246D01*
X104187654Y-128443701D01*
X104178454Y-128447512D01*
X104172336Y-128451600D01*
X101427681Y-128451600D01*
X101425823Y-128450075D01*
X101417040Y-128445381D01*
X101407513Y-128442491D01*
X101382633Y-128440040D01*
X101269777Y-128405806D01*
X101165768Y-128350212D01*
X101074604Y-128275395D01*
X100999787Y-128184231D01*
X100944193Y-128080222D01*
X100909959Y-127967366D01*
X100898399Y-127850000D01*
X100898399Y-127350000D01*
X100909959Y-127232634D01*
X100944193Y-127119778D01*
X100999787Y-127015769D01*
X101074604Y-126924605D01*
X101165768Y-126849788D01*
X101269777Y-126794194D01*
X101382633Y-126759960D01*
X101405027Y-126757754D01*
X101412346Y-126756299D01*
X101421546Y-126752488D01*
X101427664Y-126748400D01*
X104172319Y-126748400D01*
X104174177Y-126749925D01*
X104174177Y-126749925D01*
G37*
G36*
X164660886Y-123018916D02*
X164867171Y-123059949D01*
X165158640Y-123180679D01*
X165420961Y-123355957D01*
X165644043Y-123579039D01*
X165819321Y-123841360D01*
X165940051Y-124132829D01*
X165940051Y-124132831D01*
X166001600Y-124442256D01*
X166001600Y-124757744D01*
X166000882Y-124761352D01*
X165940051Y-125067171D01*
X165819321Y-125358640D01*
X165725880Y-125498484D01*
X165644044Y-125620960D01*
X165420960Y-125844044D01*
X165333521Y-125902469D01*
X165158640Y-126019321D01*
X164867171Y-126140051D01*
X164660886Y-126181084D01*
X164557744Y-126201600D01*
X164242256Y-126201600D01*
X164139114Y-126181084D01*
X163932829Y-126140051D01*
X163641360Y-126019321D01*
X163466479Y-125902469D01*
X163379040Y-125844044D01*
X163155956Y-125620960D01*
X163074120Y-125498484D01*
X162980679Y-125358640D01*
X162859949Y-125067171D01*
X162799118Y-124761352D01*
X162798400Y-124757744D01*
X162798400Y-124442256D01*
X162859949Y-124132831D01*
X162859949Y-124132829D01*
X162980679Y-123841360D01*
X163155957Y-123579039D01*
X163379039Y-123355957D01*
X163641360Y-123180679D01*
X163932829Y-123059949D01*
X164139114Y-123018916D01*
X164242256Y-122998400D01*
X164557744Y-122998400D01*
X164660886Y-123018916D01*
X164660886Y-123018916D01*
G37*
G36*
X123623151Y-123871230D02*
X123752158Y-123896891D01*
X123934433Y-123972392D01*
X124098484Y-124082008D01*
X124237992Y-124221516D01*
X124347608Y-124385567D01*
X124423109Y-124567842D01*
X124423109Y-124567844D01*
X124460883Y-124757744D01*
X124461600Y-124761352D01*
X124461600Y-124958648D01*
X124423109Y-125152158D01*
X124347608Y-125334433D01*
X124237992Y-125498484D01*
X124098484Y-125637992D01*
X123934433Y-125747608D01*
X123752158Y-125823109D01*
X123646914Y-125844043D01*
X123558649Y-125861600D01*
X123361351Y-125861600D01*
X123273086Y-125844043D01*
X123167842Y-125823109D01*
X122985567Y-125747608D01*
X122821516Y-125637992D01*
X122682008Y-125498484D01*
X122572392Y-125334433D01*
X122496891Y-125152158D01*
X122458400Y-124958648D01*
X122458400Y-124761352D01*
X122459118Y-124757744D01*
X122496891Y-124567844D01*
X122496891Y-124567842D01*
X122572392Y-124385567D01*
X122682008Y-124221516D01*
X122821516Y-124082008D01*
X122985567Y-123972392D01*
X123167842Y-123896891D01*
X123296849Y-123871230D01*
X123361351Y-123858400D01*
X123558649Y-123858400D01*
X123623151Y-123871230D01*
X123623151Y-123871230D01*
G37*
G36*
X113463151Y-123871230D02*
X113592158Y-123896891D01*
X113774433Y-123972392D01*
X113938484Y-124082008D01*
X114077992Y-124221516D01*
X114187608Y-124385567D01*
X114263109Y-124567842D01*
X114263109Y-124567844D01*
X114300883Y-124757744D01*
X114301600Y-124761352D01*
X114301600Y-124958648D01*
X114263109Y-125152158D01*
X114187608Y-125334433D01*
X114077992Y-125498484D01*
X113938484Y-125637992D01*
X113774433Y-125747608D01*
X113592158Y-125823109D01*
X113486914Y-125844043D01*
X113398649Y-125861600D01*
X113201351Y-125861600D01*
X113113086Y-125844043D01*
X113007842Y-125823109D01*
X112825567Y-125747608D01*
X112661516Y-125637992D01*
X112522008Y-125498484D01*
X112412392Y-125334433D01*
X112336891Y-125152158D01*
X112298400Y-124958648D01*
X112298400Y-124761352D01*
X112299118Y-124757744D01*
X112336891Y-124567844D01*
X112336891Y-124567842D01*
X112412392Y-124385567D01*
X112522008Y-124221516D01*
X112661516Y-124082008D01*
X112825567Y-123972392D01*
X113007842Y-123896891D01*
X113136849Y-123871230D01*
X113201351Y-123858400D01*
X113398649Y-123858400D01*
X113463151Y-123871230D01*
X113463151Y-123871230D01*
G37*
G36*
X116003151Y-123871230D02*
X116132158Y-123896891D01*
X116314433Y-123972392D01*
X116478484Y-124082008D01*
X116617992Y-124221516D01*
X116727608Y-124385567D01*
X116803109Y-124567842D01*
X116803109Y-124567844D01*
X116840883Y-124757744D01*
X116841600Y-124761352D01*
X116841600Y-124958648D01*
X116803109Y-125152158D01*
X116727608Y-125334433D01*
X116617992Y-125498484D01*
X116478484Y-125637992D01*
X116314433Y-125747608D01*
X116132158Y-125823109D01*
X116026914Y-125844043D01*
X115938649Y-125861600D01*
X115741351Y-125861600D01*
X115653086Y-125844043D01*
X115547842Y-125823109D01*
X115365567Y-125747608D01*
X115201516Y-125637992D01*
X115062008Y-125498484D01*
X114952392Y-125334433D01*
X114876891Y-125152158D01*
X114838400Y-124958648D01*
X114838400Y-124761352D01*
X114839118Y-124757744D01*
X114876891Y-124567844D01*
X114876891Y-124567842D01*
X114952392Y-124385567D01*
X115062008Y-124221516D01*
X115201516Y-124082008D01*
X115365567Y-123972392D01*
X115547842Y-123896891D01*
X115676849Y-123871230D01*
X115741351Y-123858400D01*
X115938649Y-123858400D01*
X116003151Y-123871230D01*
X116003151Y-123871230D01*
G37*
G36*
X118543151Y-123871230D02*
X118672158Y-123896891D01*
X118854433Y-123972392D01*
X119018484Y-124082008D01*
X119157992Y-124221516D01*
X119267608Y-124385567D01*
X119343109Y-124567842D01*
X119343109Y-124567844D01*
X119380883Y-124757744D01*
X119381600Y-124761352D01*
X119381600Y-124958648D01*
X119343109Y-125152158D01*
X119267608Y-125334433D01*
X119157992Y-125498484D01*
X119018484Y-125637992D01*
X118854433Y-125747608D01*
X118672158Y-125823109D01*
X118566914Y-125844043D01*
X118478649Y-125861600D01*
X118281351Y-125861600D01*
X118193086Y-125844043D01*
X118087842Y-125823109D01*
X117905567Y-125747608D01*
X117741516Y-125637992D01*
X117602008Y-125498484D01*
X117492392Y-125334433D01*
X117416891Y-125152158D01*
X117378400Y-124958648D01*
X117378400Y-124761352D01*
X117379118Y-124757744D01*
X117416891Y-124567844D01*
X117416891Y-124567842D01*
X117492392Y-124385567D01*
X117602008Y-124221516D01*
X117741516Y-124082008D01*
X117905567Y-123972392D01*
X118087842Y-123896891D01*
X118216849Y-123871230D01*
X118281351Y-123858400D01*
X118478649Y-123858400D01*
X118543151Y-123871230D01*
X118543151Y-123871230D01*
G37*
G36*
X121083151Y-123871230D02*
X121212158Y-123896891D01*
X121394433Y-123972392D01*
X121558484Y-124082008D01*
X121697992Y-124221516D01*
X121807608Y-124385567D01*
X121883109Y-124567842D01*
X121883109Y-124567844D01*
X121920883Y-124757744D01*
X121921600Y-124761352D01*
X121921600Y-124958648D01*
X121883109Y-125152158D01*
X121807608Y-125334433D01*
X121697992Y-125498484D01*
X121558484Y-125637992D01*
X121394433Y-125747608D01*
X121212158Y-125823109D01*
X121106914Y-125844043D01*
X121018649Y-125861600D01*
X120821351Y-125861600D01*
X120733086Y-125844043D01*
X120627842Y-125823109D01*
X120445567Y-125747608D01*
X120281516Y-125637992D01*
X120142008Y-125498484D01*
X120032392Y-125334433D01*
X119956891Y-125152158D01*
X119918400Y-124958648D01*
X119918400Y-124761352D01*
X119919118Y-124757744D01*
X119956891Y-124567844D01*
X119956891Y-124567842D01*
X120032392Y-124385567D01*
X120142008Y-124221516D01*
X120281516Y-124082008D01*
X120445567Y-123972392D01*
X120627842Y-123896891D01*
X120756849Y-123871230D01*
X120821351Y-123858400D01*
X121018649Y-123858400D01*
X121083151Y-123871230D01*
X121083151Y-123871230D01*
G37*
G36*
X126163151Y-123871230D02*
X126292158Y-123896891D01*
X126474433Y-123972392D01*
X126638484Y-124082008D01*
X126777992Y-124221516D01*
X126887608Y-124385567D01*
X126963109Y-124567842D01*
X126963109Y-124567844D01*
X127000883Y-124757744D01*
X127001600Y-124761352D01*
X127001600Y-124958648D01*
X126963109Y-125152158D01*
X126887608Y-125334433D01*
X126777992Y-125498484D01*
X126638484Y-125637992D01*
X126474433Y-125747608D01*
X126292158Y-125823109D01*
X126186914Y-125844043D01*
X126098649Y-125861600D01*
X125901351Y-125861600D01*
X125813086Y-125844043D01*
X125707842Y-125823109D01*
X125525567Y-125747608D01*
X125361516Y-125637992D01*
X125222008Y-125498484D01*
X125112392Y-125334433D01*
X125036891Y-125152158D01*
X124998400Y-124958648D01*
X124998400Y-124761352D01*
X124999118Y-124757744D01*
X125036891Y-124567844D01*
X125036891Y-124567842D01*
X125112392Y-124385567D01*
X125222008Y-124221516D01*
X125361516Y-124082008D01*
X125525567Y-123972392D01*
X125707842Y-123896891D01*
X125836849Y-123871230D01*
X125901351Y-123858400D01*
X126098649Y-123858400D01*
X126163151Y-123871230D01*
X126163151Y-123871230D01*
G37*
G36*
X108383151Y-123871230D02*
X108512158Y-123896891D01*
X108694433Y-123972392D01*
X108858484Y-124082008D01*
X108997992Y-124221516D01*
X109107608Y-124385567D01*
X109183109Y-124567842D01*
X109183109Y-124567844D01*
X109220883Y-124757744D01*
X109221600Y-124761352D01*
X109221600Y-124958648D01*
X109183109Y-125152158D01*
X109107608Y-125334433D01*
X108997992Y-125498484D01*
X108858484Y-125637992D01*
X108694433Y-125747608D01*
X108512158Y-125823109D01*
X108406914Y-125844043D01*
X108318649Y-125861600D01*
X108121351Y-125861600D01*
X108033086Y-125844043D01*
X107927842Y-125823109D01*
X107745567Y-125747608D01*
X107581516Y-125637992D01*
X107442008Y-125498484D01*
X107332392Y-125334433D01*
X107256891Y-125152158D01*
X107218400Y-124958648D01*
X107218400Y-124761352D01*
X107219118Y-124757744D01*
X107256891Y-124567844D01*
X107256891Y-124567842D01*
X107332392Y-124385567D01*
X107442008Y-124221516D01*
X107581516Y-124082008D01*
X107745567Y-123972392D01*
X107927842Y-123896891D01*
X108056849Y-123871230D01*
X108121351Y-123858400D01*
X108318649Y-123858400D01*
X108383151Y-123871230D01*
X108383151Y-123871230D01*
G37*
G36*
X110923151Y-123871230D02*
X111052158Y-123896891D01*
X111234433Y-123972392D01*
X111398484Y-124082008D01*
X111537992Y-124221516D01*
X111647608Y-124385567D01*
X111723109Y-124567842D01*
X111723109Y-124567844D01*
X111760883Y-124757744D01*
X111761600Y-124761352D01*
X111761600Y-124958648D01*
X111723109Y-125152158D01*
X111647608Y-125334433D01*
X111537992Y-125498484D01*
X111398484Y-125637992D01*
X111234433Y-125747608D01*
X111052158Y-125823109D01*
X110946914Y-125844043D01*
X110858649Y-125861600D01*
X110661351Y-125861600D01*
X110573086Y-125844043D01*
X110467842Y-125823109D01*
X110285567Y-125747608D01*
X110121516Y-125637992D01*
X109982008Y-125498484D01*
X109872392Y-125334433D01*
X109796891Y-125152158D01*
X109758400Y-124958648D01*
X109758400Y-124761352D01*
X109759118Y-124757744D01*
X109796891Y-124567844D01*
X109796891Y-124567842D01*
X109872392Y-124385567D01*
X109982008Y-124221516D01*
X110121516Y-124082008D01*
X110285567Y-123972392D01*
X110467842Y-123896891D01*
X110596849Y-123871230D01*
X110661351Y-123858400D01*
X110858649Y-123858400D01*
X110923151Y-123871230D01*
X110923151Y-123871230D01*
G37*
G36*
X173311600Y-122601600D02*
X172438400Y-122601600D01*
X172438400Y-121398400D01*
X173311600Y-121398400D01*
X173311600Y-122601600D01*
X173311600Y-122601600D01*
G37*
G36*
X171561600Y-122601600D02*
X170688400Y-122601600D01*
X170688400Y-121398400D01*
X171561600Y-121398400D01*
X171561600Y-122601600D01*
X171561600Y-122601600D01*
G37*
G36*
X169601600Y-122186600D02*
X168398400Y-122186600D01*
X168398400Y-121313400D01*
X169601600Y-121313400D01*
X169601600Y-122186600D01*
X169601600Y-122186600D01*
G37*
G36*
X171863600Y-120863600D02*
X170136400Y-120863600D01*
X170136400Y-119136400D01*
X171863600Y-119136400D01*
X171863600Y-120863600D01*
X171863600Y-120863600D01*
G37*
G36*
X176331903Y-119169587D02*
X176489068Y-119234687D01*
X176630513Y-119329198D01*
X176750802Y-119449487D01*
X176845313Y-119590932D01*
X176910413Y-119748097D01*
X176943600Y-119914943D01*
X176943600Y-120085057D01*
X176910413Y-120251903D01*
X176845313Y-120409068D01*
X176750802Y-120550513D01*
X176630513Y-120670802D01*
X176489068Y-120765313D01*
X176331903Y-120830413D01*
X176165057Y-120863600D01*
X175994943Y-120863600D01*
X175828097Y-120830413D01*
X175670932Y-120765313D01*
X175529487Y-120670802D01*
X175409198Y-120550513D01*
X175314687Y-120409068D01*
X175249587Y-120251903D01*
X175216400Y-120085057D01*
X175216400Y-119914943D01*
X175249587Y-119748097D01*
X175314687Y-119590932D01*
X175409198Y-119449487D01*
X175529487Y-119329198D01*
X175670932Y-119234687D01*
X175828097Y-119169587D01*
X175994943Y-119136400D01*
X176165057Y-119136400D01*
X176331903Y-119169587D01*
X176331903Y-119169587D01*
G37*
G36*
X178871903Y-119169587D02*
X179029068Y-119234687D01*
X179170513Y-119329198D01*
X179290802Y-119449487D01*
X179385313Y-119590932D01*
X179450413Y-119748097D01*
X179483600Y-119914943D01*
X179483600Y-120085057D01*
X179450413Y-120251903D01*
X179385313Y-120409068D01*
X179290802Y-120550513D01*
X179170513Y-120670802D01*
X179029068Y-120765313D01*
X178871903Y-120830413D01*
X178705057Y-120863600D01*
X178534943Y-120863600D01*
X178368097Y-120830413D01*
X178210932Y-120765313D01*
X178069487Y-120670802D01*
X177949198Y-120550513D01*
X177854687Y-120409068D01*
X177789587Y-120251903D01*
X177756400Y-120085057D01*
X177756400Y-119914943D01*
X177789587Y-119748097D01*
X177854687Y-119590932D01*
X177949198Y-119449487D01*
X178069487Y-119329198D01*
X178210932Y-119234687D01*
X178368097Y-119169587D01*
X178534943Y-119136400D01*
X178705057Y-119136400D01*
X178871903Y-119169587D01*
X178871903Y-119169587D01*
G37*
G36*
X173791903Y-119169587D02*
X173949068Y-119234687D01*
X174090513Y-119329198D01*
X174210802Y-119449487D01*
X174305313Y-119590932D01*
X174370413Y-119748097D01*
X174403600Y-119914943D01*
X174403600Y-120085057D01*
X174370413Y-120251903D01*
X174305313Y-120409068D01*
X174210802Y-120550513D01*
X174090513Y-120670802D01*
X173949068Y-120765313D01*
X173791903Y-120830413D01*
X173625057Y-120863600D01*
X173454943Y-120863600D01*
X173288097Y-120830413D01*
X173130932Y-120765313D01*
X172989487Y-120670802D01*
X172869198Y-120550513D01*
X172774687Y-120409068D01*
X172709587Y-120251903D01*
X172676400Y-120085057D01*
X172676400Y-119914943D01*
X172709587Y-119748097D01*
X172774687Y-119590932D01*
X172869198Y-119449487D01*
X172989487Y-119329198D01*
X173130932Y-119234687D01*
X173288097Y-119169587D01*
X173454943Y-119136400D01*
X173625057Y-119136400D01*
X173791903Y-119169587D01*
X173791903Y-119169587D01*
G37*
G36*
X169601600Y-120436600D02*
X168398400Y-120436600D01*
X168398400Y-119563400D01*
X169601600Y-119563400D01*
X169601600Y-120436600D01*
X169601600Y-120436600D01*
G37*
G36*
X147703151Y-115511230D02*
X147832158Y-115536891D01*
X148014433Y-115612392D01*
X148178484Y-115722008D01*
X148317992Y-115861516D01*
X148427608Y-116025567D01*
X148503109Y-116207842D01*
X148541600Y-116401352D01*
X148541600Y-116598648D01*
X148503109Y-116792158D01*
X148427608Y-116974433D01*
X148317992Y-117138484D01*
X148178484Y-117277992D01*
X148014433Y-117387608D01*
X147832158Y-117463109D01*
X147703151Y-117488770D01*
X147638649Y-117501600D01*
X147441351Y-117501600D01*
X147376849Y-117488770D01*
X147247842Y-117463109D01*
X147065567Y-117387608D01*
X146901516Y-117277992D01*
X146762008Y-117138484D01*
X146652392Y-116974433D01*
X146576891Y-116792158D01*
X146538400Y-116598648D01*
X146538400Y-116401352D01*
X146576891Y-116207842D01*
X146652392Y-116025567D01*
X146762008Y-115861516D01*
X146901516Y-115722008D01*
X147065567Y-115612392D01*
X147247842Y-115536891D01*
X147376849Y-115511230D01*
X147441351Y-115498400D01*
X147638649Y-115498400D01*
X147703151Y-115511230D01*
X147703151Y-115511230D01*
G37*
G36*
X152783151Y-115511230D02*
X152912158Y-115536891D01*
X153094433Y-115612392D01*
X153258484Y-115722008D01*
X153397992Y-115861516D01*
X153507608Y-116025567D01*
X153583109Y-116207842D01*
X153621600Y-116401352D01*
X153621600Y-116598648D01*
X153583109Y-116792158D01*
X153507608Y-116974433D01*
X153397992Y-117138484D01*
X153258484Y-117277992D01*
X153094433Y-117387608D01*
X152912158Y-117463109D01*
X152783151Y-117488770D01*
X152718649Y-117501600D01*
X152521351Y-117501600D01*
X152456849Y-117488770D01*
X152327842Y-117463109D01*
X152145567Y-117387608D01*
X151981516Y-117277992D01*
X151842008Y-117138484D01*
X151732392Y-116974433D01*
X151656891Y-116792158D01*
X151618400Y-116598648D01*
X151618400Y-116401352D01*
X151656891Y-116207842D01*
X151732392Y-116025567D01*
X151842008Y-115861516D01*
X151981516Y-115722008D01*
X152145567Y-115612392D01*
X152327842Y-115536891D01*
X152456849Y-115511230D01*
X152521351Y-115498400D01*
X152718649Y-115498400D01*
X152783151Y-115511230D01*
X152783151Y-115511230D01*
G37*
G36*
X150243151Y-115511230D02*
X150372158Y-115536891D01*
X150554433Y-115612392D01*
X150718484Y-115722008D01*
X150857992Y-115861516D01*
X150967608Y-116025567D01*
X151043109Y-116207842D01*
X151081600Y-116401352D01*
X151081600Y-116598648D01*
X151043109Y-116792158D01*
X150967608Y-116974433D01*
X150857992Y-117138484D01*
X150718484Y-117277992D01*
X150554433Y-117387608D01*
X150372158Y-117463109D01*
X150243151Y-117488770D01*
X150178649Y-117501600D01*
X149981351Y-117501600D01*
X149916849Y-117488770D01*
X149787842Y-117463109D01*
X149605567Y-117387608D01*
X149441516Y-117277992D01*
X149302008Y-117138484D01*
X149192392Y-116974433D01*
X149116891Y-116792158D01*
X149078400Y-116598648D01*
X149078400Y-116401352D01*
X149116891Y-116207842D01*
X149192392Y-116025567D01*
X149302008Y-115861516D01*
X149441516Y-115722008D01*
X149605567Y-115612392D01*
X149787842Y-115536891D01*
X149916849Y-115511230D01*
X149981351Y-115498400D01*
X150178649Y-115498400D01*
X150243151Y-115511230D01*
X150243151Y-115511230D01*
G37*
G36*
X155323151Y-115511230D02*
X155452158Y-115536891D01*
X155634433Y-115612392D01*
X155798484Y-115722008D01*
X155937992Y-115861516D01*
X156047608Y-116025567D01*
X156123109Y-116207842D01*
X156161600Y-116401352D01*
X156161600Y-116598648D01*
X156123109Y-116792158D01*
X156047608Y-116974433D01*
X155937992Y-117138484D01*
X155798484Y-117277992D01*
X155634433Y-117387608D01*
X155452158Y-117463109D01*
X155323151Y-117488770D01*
X155258649Y-117501600D01*
X155061351Y-117501600D01*
X154996849Y-117488770D01*
X154867842Y-117463109D01*
X154685567Y-117387608D01*
X154521516Y-117277992D01*
X154382008Y-117138484D01*
X154272392Y-116974433D01*
X154196891Y-116792158D01*
X154158400Y-116598648D01*
X154158400Y-116401352D01*
X154196891Y-116207842D01*
X154272392Y-116025567D01*
X154382008Y-115861516D01*
X154521516Y-115722008D01*
X154685567Y-115612392D01*
X154867842Y-115536891D01*
X154996849Y-115511230D01*
X155061351Y-115498400D01*
X155258649Y-115498400D01*
X155323151Y-115511230D01*
X155323151Y-115511230D01*
G37*
G36*
X146001600Y-117501600D02*
X143998400Y-117501600D01*
X143998400Y-115498400D01*
X146001600Y-115498400D01*
X146001600Y-117501600D01*
X146001600Y-117501600D01*
G37*
G36*
X157863151Y-115511230D02*
X157992158Y-115536891D01*
X158174433Y-115612392D01*
X158338484Y-115722008D01*
X158477992Y-115861516D01*
X158587608Y-116025567D01*
X158663109Y-116207842D01*
X158701600Y-116401352D01*
X158701600Y-116598648D01*
X158663109Y-116792158D01*
X158587608Y-116974433D01*
X158477992Y-117138484D01*
X158338484Y-117277992D01*
X158174433Y-117387608D01*
X157992158Y-117463109D01*
X157863151Y-117488770D01*
X157798649Y-117501600D01*
X157601351Y-117501600D01*
X157536849Y-117488770D01*
X157407842Y-117463109D01*
X157225567Y-117387608D01*
X157061516Y-117277992D01*
X156922008Y-117138484D01*
X156812392Y-116974433D01*
X156736891Y-116792158D01*
X156698400Y-116598648D01*
X156698400Y-116401352D01*
X156736891Y-116207842D01*
X156812392Y-116025567D01*
X156922008Y-115861516D01*
X157061516Y-115722008D01*
X157225567Y-115612392D01*
X157407842Y-115536891D01*
X157536849Y-115511230D01*
X157601351Y-115498400D01*
X157798649Y-115498400D01*
X157863151Y-115511230D01*
X157863151Y-115511230D01*
G37*
G36*
X160403151Y-115511230D02*
X160532158Y-115536891D01*
X160714433Y-115612392D01*
X160878484Y-115722008D01*
X161017992Y-115861516D01*
X161127608Y-116025567D01*
X161203109Y-116207842D01*
X161241600Y-116401352D01*
X161241600Y-116598648D01*
X161203109Y-116792158D01*
X161127608Y-116974433D01*
X161017992Y-117138484D01*
X160878484Y-117277992D01*
X160714433Y-117387608D01*
X160532158Y-117463109D01*
X160403151Y-117488770D01*
X160338649Y-117501600D01*
X160141351Y-117501600D01*
X160076849Y-117488770D01*
X159947842Y-117463109D01*
X159765567Y-117387608D01*
X159601516Y-117277992D01*
X159462008Y-117138484D01*
X159352392Y-116974433D01*
X159276891Y-116792158D01*
X159238400Y-116598648D01*
X159238400Y-116401352D01*
X159276891Y-116207842D01*
X159352392Y-116025567D01*
X159462008Y-115861516D01*
X159601516Y-115722008D01*
X159765567Y-115612392D01*
X159947842Y-115536891D01*
X160076849Y-115511230D01*
X160141351Y-115498400D01*
X160338649Y-115498400D01*
X160403151Y-115511230D01*
X160403151Y-115511230D01*
G37*
G36*
X162943151Y-115511230D02*
X163072158Y-115536891D01*
X163254433Y-115612392D01*
X163418484Y-115722008D01*
X163557992Y-115861516D01*
X163667608Y-116025567D01*
X163743109Y-116207842D01*
X163781600Y-116401352D01*
X163781600Y-116598648D01*
X163743109Y-116792158D01*
X163667608Y-116974433D01*
X163557992Y-117138484D01*
X163418484Y-117277992D01*
X163254433Y-117387608D01*
X163072158Y-117463109D01*
X162943151Y-117488770D01*
X162878649Y-117501600D01*
X162681351Y-117501600D01*
X162616849Y-117488770D01*
X162487842Y-117463109D01*
X162305567Y-117387608D01*
X162141516Y-117277992D01*
X162002008Y-117138484D01*
X161892392Y-116974433D01*
X161816891Y-116792158D01*
X161778400Y-116598648D01*
X161778400Y-116401352D01*
X161816891Y-116207842D01*
X161892392Y-116025567D01*
X162002008Y-115861516D01*
X162141516Y-115722008D01*
X162305567Y-115612392D01*
X162487842Y-115536891D01*
X162616849Y-115511230D01*
X162681351Y-115498400D01*
X162878649Y-115498400D01*
X162943151Y-115511230D01*
X162943151Y-115511230D01*
G37*
G36*
X140801600Y-113236600D02*
X139598400Y-113236600D01*
X139598400Y-112363400D01*
X140801600Y-112363400D01*
X140801600Y-113236600D01*
X140801600Y-113236600D01*
G37*
G36*
X140801600Y-111486600D02*
X139598400Y-111486600D01*
X139598400Y-110613400D01*
X140801600Y-110613400D01*
X140801600Y-111486600D01*
X140801600Y-111486600D01*
G37*
G36*
X140561600Y-109401600D02*
X139688400Y-109401600D01*
X139688400Y-108198400D01*
X140561600Y-108198400D01*
X140561600Y-109401600D01*
X140561600Y-109401600D01*
G37*
G36*
X142311600Y-109401600D02*
X141438400Y-109401600D01*
X141438400Y-108198400D01*
X142311600Y-108198400D01*
X142311600Y-109401600D01*
X142311600Y-109401600D01*
G37*
G36*
X189460886Y-105718916D02*
X189667171Y-105759949D01*
X189958640Y-105880679D01*
X190220961Y-106055957D01*
X190444043Y-106279039D01*
X190619321Y-106541360D01*
X190740051Y-106832829D01*
X190801600Y-107142257D01*
X190801600Y-107457743D01*
X190740051Y-107767171D01*
X190619321Y-108058640D01*
X190444043Y-108320961D01*
X190220961Y-108544043D01*
X189958640Y-108719321D01*
X189667171Y-108840051D01*
X189460886Y-108881084D01*
X189357744Y-108901600D01*
X189042256Y-108901600D01*
X188939114Y-108881084D01*
X188732829Y-108840051D01*
X188441360Y-108719321D01*
X188179039Y-108544043D01*
X187955957Y-108320961D01*
X187780679Y-108058640D01*
X187659949Y-107767171D01*
X187598400Y-107457743D01*
X187598400Y-107142257D01*
X187659949Y-106832829D01*
X187780679Y-106541360D01*
X187955957Y-106279039D01*
X188179039Y-106055957D01*
X188441360Y-105880679D01*
X188732829Y-105759949D01*
X188939114Y-105718916D01*
X189042256Y-105698400D01*
X189357744Y-105698400D01*
X189460886Y-105718916D01*
X189460886Y-105718916D01*
G37*
G36*
X123623151Y-101011230D02*
X123752158Y-101036891D01*
X123934433Y-101112392D01*
X124098484Y-101222008D01*
X124237992Y-101361516D01*
X124347608Y-101525567D01*
X124423109Y-101707842D01*
X124461600Y-101901352D01*
X124461600Y-102098648D01*
X124423109Y-102292158D01*
X124347608Y-102474433D01*
X124237992Y-102638484D01*
X124098484Y-102777992D01*
X123934433Y-102887608D01*
X123752158Y-102963109D01*
X123623151Y-102988770D01*
X123558649Y-103001600D01*
X123361351Y-103001600D01*
X123296849Y-102988770D01*
X123167842Y-102963109D01*
X122985567Y-102887608D01*
X122821516Y-102777992D01*
X122682008Y-102638484D01*
X122572392Y-102474433D01*
X122496891Y-102292158D01*
X122458400Y-102098648D01*
X122458400Y-101901352D01*
X122496891Y-101707842D01*
X122572392Y-101525567D01*
X122682008Y-101361516D01*
X122821516Y-101222008D01*
X122985567Y-101112392D01*
X123167842Y-101036891D01*
X123296849Y-101011230D01*
X123361351Y-100998400D01*
X123558649Y-100998400D01*
X123623151Y-101011230D01*
X123623151Y-101011230D01*
G37*
G36*
X108383151Y-101011230D02*
X108512158Y-101036891D01*
X108694433Y-101112392D01*
X108858484Y-101222008D01*
X108997992Y-101361516D01*
X109107608Y-101525567D01*
X109183109Y-101707842D01*
X109221600Y-101901352D01*
X109221600Y-102098648D01*
X109183109Y-102292158D01*
X109107608Y-102474433D01*
X108997992Y-102638484D01*
X108858484Y-102777992D01*
X108694433Y-102887608D01*
X108512158Y-102963109D01*
X108383151Y-102988770D01*
X108318649Y-103001600D01*
X108121351Y-103001600D01*
X108056849Y-102988770D01*
X107927842Y-102963109D01*
X107745567Y-102887608D01*
X107581516Y-102777992D01*
X107442008Y-102638484D01*
X107332392Y-102474433D01*
X107256891Y-102292158D01*
X107218400Y-102098648D01*
X107218400Y-101901352D01*
X107256891Y-101707842D01*
X107332392Y-101525567D01*
X107442008Y-101361516D01*
X107581516Y-101222008D01*
X107745567Y-101112392D01*
X107927842Y-101036891D01*
X108056849Y-101011230D01*
X108121351Y-100998400D01*
X108318649Y-100998400D01*
X108383151Y-101011230D01*
X108383151Y-101011230D01*
G37*
G36*
X110923151Y-101011230D02*
X111052158Y-101036891D01*
X111234433Y-101112392D01*
X111398484Y-101222008D01*
X111537992Y-101361516D01*
X111647608Y-101525567D01*
X111723109Y-101707842D01*
X111761600Y-101901352D01*
X111761600Y-102098648D01*
X111723109Y-102292158D01*
X111647608Y-102474433D01*
X111537992Y-102638484D01*
X111398484Y-102777992D01*
X111234433Y-102887608D01*
X111052158Y-102963109D01*
X110923151Y-102988770D01*
X110858649Y-103001600D01*
X110661351Y-103001600D01*
X110596849Y-102988770D01*
X110467842Y-102963109D01*
X110285567Y-102887608D01*
X110121516Y-102777992D01*
X109982008Y-102638484D01*
X109872392Y-102474433D01*
X109796891Y-102292158D01*
X109758400Y-102098648D01*
X109758400Y-101901352D01*
X109796891Y-101707842D01*
X109872392Y-101525567D01*
X109982008Y-101361516D01*
X110121516Y-101222008D01*
X110285567Y-101112392D01*
X110467842Y-101036891D01*
X110596849Y-101011230D01*
X110661351Y-100998400D01*
X110858649Y-100998400D01*
X110923151Y-101011230D01*
X110923151Y-101011230D01*
G37*
G36*
X113463151Y-101011230D02*
X113592158Y-101036891D01*
X113774433Y-101112392D01*
X113938484Y-101222008D01*
X114077992Y-101361516D01*
X114187608Y-101525567D01*
X114263109Y-101707842D01*
X114301600Y-101901352D01*
X114301600Y-102098648D01*
X114263109Y-102292158D01*
X114187608Y-102474433D01*
X114077992Y-102638484D01*
X113938484Y-102777992D01*
X113774433Y-102887608D01*
X113592158Y-102963109D01*
X113463151Y-102988770D01*
X113398649Y-103001600D01*
X113201351Y-103001600D01*
X113136849Y-102988770D01*
X113007842Y-102963109D01*
X112825567Y-102887608D01*
X112661516Y-102777992D01*
X112522008Y-102638484D01*
X112412392Y-102474433D01*
X112336891Y-102292158D01*
X112298400Y-102098648D01*
X112298400Y-101901352D01*
X112336891Y-101707842D01*
X112412392Y-101525567D01*
X112522008Y-101361516D01*
X112661516Y-101222008D01*
X112825567Y-101112392D01*
X113007842Y-101036891D01*
X113136849Y-101011230D01*
X113201351Y-100998400D01*
X113398649Y-100998400D01*
X113463151Y-101011230D01*
X113463151Y-101011230D01*
G37*
G36*
X116003151Y-101011230D02*
X116132158Y-101036891D01*
X116314433Y-101112392D01*
X116478484Y-101222008D01*
X116617992Y-101361516D01*
X116727608Y-101525567D01*
X116803109Y-101707842D01*
X116841600Y-101901352D01*
X116841600Y-102098648D01*
X116803109Y-102292158D01*
X116727608Y-102474433D01*
X116617992Y-102638484D01*
X116478484Y-102777992D01*
X116314433Y-102887608D01*
X116132158Y-102963109D01*
X116003151Y-102988770D01*
X115938649Y-103001600D01*
X115741351Y-103001600D01*
X115676849Y-102988770D01*
X115547842Y-102963109D01*
X115365567Y-102887608D01*
X115201516Y-102777992D01*
X115062008Y-102638484D01*
X114952392Y-102474433D01*
X114876891Y-102292158D01*
X114838400Y-102098648D01*
X114838400Y-101901352D01*
X114876891Y-101707842D01*
X114952392Y-101525567D01*
X115062008Y-101361516D01*
X115201516Y-101222008D01*
X115365567Y-101112392D01*
X115547842Y-101036891D01*
X115676849Y-101011230D01*
X115741351Y-100998400D01*
X115938649Y-100998400D01*
X116003151Y-101011230D01*
X116003151Y-101011230D01*
G37*
G36*
X118543151Y-101011230D02*
X118672158Y-101036891D01*
X118854433Y-101112392D01*
X119018484Y-101222008D01*
X119157992Y-101361516D01*
X119267608Y-101525567D01*
X119343109Y-101707842D01*
X119381600Y-101901352D01*
X119381600Y-102098648D01*
X119343109Y-102292158D01*
X119267608Y-102474433D01*
X119157992Y-102638484D01*
X119018484Y-102777992D01*
X118854433Y-102887608D01*
X118672158Y-102963109D01*
X118543151Y-102988770D01*
X118478649Y-103001600D01*
X118281351Y-103001600D01*
X118216849Y-102988770D01*
X118087842Y-102963109D01*
X117905567Y-102887608D01*
X117741516Y-102777992D01*
X117602008Y-102638484D01*
X117492392Y-102474433D01*
X117416891Y-102292158D01*
X117378400Y-102098648D01*
X117378400Y-101901352D01*
X117416891Y-101707842D01*
X117492392Y-101525567D01*
X117602008Y-101361516D01*
X117741516Y-101222008D01*
X117905567Y-101112392D01*
X118087842Y-101036891D01*
X118216849Y-101011230D01*
X118281351Y-100998400D01*
X118478649Y-100998400D01*
X118543151Y-101011230D01*
X118543151Y-101011230D01*
G37*
G36*
X121083151Y-101011230D02*
X121212158Y-101036891D01*
X121394433Y-101112392D01*
X121558484Y-101222008D01*
X121697992Y-101361516D01*
X121807608Y-101525567D01*
X121883109Y-101707842D01*
X121921600Y-101901352D01*
X121921600Y-102098648D01*
X121883109Y-102292158D01*
X121807608Y-102474433D01*
X121697992Y-102638484D01*
X121558484Y-102777992D01*
X121394433Y-102887608D01*
X121212158Y-102963109D01*
X121083151Y-102988770D01*
X121018649Y-103001600D01*
X120821351Y-103001600D01*
X120756849Y-102988770D01*
X120627842Y-102963109D01*
X120445567Y-102887608D01*
X120281516Y-102777992D01*
X120142008Y-102638484D01*
X120032392Y-102474433D01*
X119956891Y-102292158D01*
X119918400Y-102098648D01*
X119918400Y-101901352D01*
X119956891Y-101707842D01*
X120032392Y-101525567D01*
X120142008Y-101361516D01*
X120281516Y-101222008D01*
X120445567Y-101112392D01*
X120627842Y-101036891D01*
X120756849Y-101011230D01*
X120821351Y-100998400D01*
X121018649Y-100998400D01*
X121083151Y-101011230D01*
X121083151Y-101011230D01*
G37*
G36*
X127001600Y-103001600D02*
X124998400Y-103001600D01*
X124998400Y-100998400D01*
X127001600Y-100998400D01*
X127001600Y-103001600D01*
X127001600Y-103001600D01*
G37*
M02*
