G04 #@! TF.GenerationSoftware,KiCad,Pcbnew,5.0.0-rc2-be01b52~65~ubuntu16.04.1*
G04 #@! TF.CreationDate,2018-06-25T12:20:31+02:00*
G04 #@! TF.ProjectId,Firefly,46697265666C792E6B696361645F7063,rev?*
G04 #@! TF.SameCoordinates,Original*
G04 #@! TF.FileFunction,Paste,Top*
G04 #@! TF.FilePolarity,Positive*
%FSLAX46Y46*%
G04 Gerber Fmt 4.6, Leading zero omitted, Abs format (unit mm)*
G04 Created by KiCad (PCBNEW 5.0.0-rc2-be01b52~65~ubuntu16.04.1) date Mon Jun 25 12:20:31 2018*
%MOMM*%
%LPD*%
G01*
G04 APERTURE LIST*
%ADD10R,1.500000X1.000000*%
%ADD11R,1.000000X0.670000*%
%ADD12R,0.670000X1.000000*%
G04 APERTURE END LIST*
D10*
G04 #@! TO.C,D3*
X122950000Y-130700000D03*
X122950000Y-133900000D03*
X127850000Y-130700000D03*
X127850000Y-133900000D03*
G04 #@! TD*
D11*
G04 #@! TO.C,C1*
X169000000Y-120000000D03*
X169000000Y-121750000D03*
G04 #@! TD*
D12*
G04 #@! TO.C,C2*
X108075000Y-136300000D03*
X106325000Y-136300000D03*
G04 #@! TD*
D11*
G04 #@! TO.C,C3*
X140200000Y-111050000D03*
X140200000Y-112800000D03*
G04 #@! TD*
D12*
G04 #@! TO.C,C4*
X116725000Y-136300000D03*
X118475000Y-136300000D03*
G04 #@! TD*
G04 #@! TO.C,C5*
X128475000Y-136200000D03*
X126725000Y-136200000D03*
G04 #@! TD*
G04 #@! TO.C,C6*
X138475000Y-136300000D03*
X136725000Y-136300000D03*
G04 #@! TD*
G04 #@! TO.C,C7*
X146725000Y-136300000D03*
X148475000Y-136300000D03*
G04 #@! TD*
G04 #@! TO.C,C8*
X156725000Y-136300000D03*
X158475000Y-136300000D03*
G04 #@! TD*
G04 #@! TO.C,C9*
X168475000Y-136300000D03*
X166725000Y-136300000D03*
G04 #@! TD*
G04 #@! TO.C,C10*
X176725000Y-136300000D03*
X178475000Y-136300000D03*
G04 #@! TD*
G04 #@! TO.C,C11*
X186650000Y-136300000D03*
X188400000Y-136300000D03*
G04 #@! TD*
G04 #@! TO.C,C12*
X196725000Y-136300000D03*
X198475000Y-136300000D03*
G04 #@! TD*
D10*
G04 #@! TO.C,D1*
X102950000Y-130700000D03*
X102950000Y-133900000D03*
X107850000Y-130700000D03*
X107850000Y-133900000D03*
G04 #@! TD*
G04 #@! TO.C,D2*
X117850000Y-133900000D03*
X117850000Y-130700000D03*
X112950000Y-133900000D03*
X112950000Y-130700000D03*
G04 #@! TD*
G04 #@! TO.C,D4*
X137850000Y-133900000D03*
X137850000Y-130700000D03*
X132950000Y-133900000D03*
X132950000Y-130700000D03*
G04 #@! TD*
G04 #@! TO.C,D5*
X147850000Y-133900000D03*
X147850000Y-130700000D03*
X142950000Y-133900000D03*
X142950000Y-130700000D03*
G04 #@! TD*
G04 #@! TO.C,D6*
X152950000Y-130700000D03*
X152950000Y-133900000D03*
X157850000Y-130700000D03*
X157850000Y-133900000D03*
G04 #@! TD*
G04 #@! TO.C,D7*
X162950000Y-130700000D03*
X162950000Y-133900000D03*
X167850000Y-130700000D03*
X167850000Y-133900000D03*
G04 #@! TD*
G04 #@! TO.C,D8*
X177850000Y-133900000D03*
X177850000Y-130700000D03*
X172950000Y-133900000D03*
X172950000Y-130700000D03*
G04 #@! TD*
G04 #@! TO.C,D9*
X182950000Y-130700000D03*
X182950000Y-133900000D03*
X187850000Y-130700000D03*
X187850000Y-133900000D03*
G04 #@! TD*
G04 #@! TO.C,D10*
X197850000Y-133900000D03*
X197850000Y-130700000D03*
X192950000Y-133900000D03*
X192950000Y-130700000D03*
G04 #@! TD*
D12*
G04 #@! TO.C,R1*
X172875000Y-122000000D03*
X171125000Y-122000000D03*
G04 #@! TD*
G04 #@! TO.C,R2*
X141875000Y-108800000D03*
X140125000Y-108800000D03*
G04 #@! TD*
M02*
